<?xml version="1.0" encoding="UTF-8" standalone="no"?>
<svg
   version="1.1"
   width="17.2047in"
   height="11.4173in"
   viewBox="0 0 1238.7402 822.0472"
   id="svg18"
   sodipodi:docname="2423bb9a87e674c3c0aa3a99907866d3a3db1790b357018cbfa3bf250de07652.cdr"
   xmlns:inkscape="http://www.inkscape.org/namespaces/inkscape"
   xmlns:sodipodi="http://sodipodi.sourceforge.net/DTD/sodipodi-0.dtd"
   xmlns="http://www.w3.org/2000/svg"
   xmlns:svg="http://www.w3.org/2000/svg">
  <defs
     id="defs22" />
  <sodipodi:namedview
     id="namedview20"
     pagecolor="#ffffff"
     bordercolor="#000000"
     borderopacity="0.25"
     inkscape:showpageshadow="2"
     inkscape:pageopacity="0.0"
     inkscape:pagecheckerboard="0"
     inkscape:deskcolor="#d1d1d1"
     inkscape:document-units="in" />
  <g
     id="Layer1000">
    <g
       id="Layer1001">
      <path
         d="  M1050.7950,448.3343 C1041.8698,430.0795 1044.5358,406.5879 1051.9456,385.8511 C1064.3456,351.1364 1084.3788,357.8394 1088.9088,368.9902 C1094.6322,383.0766 1081.2953,373.8621 1080.1085,391.7388 C1079.1125,406.7621 1088.6064,403.3991 1086.2362,417.2784 C1082.7516,437.6766 1071.4134,451.8583 1050.7950,448.3343 Z Z M903.2050,360.6271 C912.3899,378.1521 911.0355,370.6306 903.2576,381.7452 C893.6256,395.5127 900.4238,398.4155 904.4049,408.3072 C917.4952,440.8259 845.2847,486.6322 867.7999,396.5778 C873.1058,375.3512 878.7107,359.1116 903.2050,360.6271 Z Z M748.4978,376.3473 C751.0553,351.2153 766.3351,296.4049 760.5789,276.0232 L734.7434,275.1356 C732.9583,309.3046 724.3783,347.2179 718.4446,380.7228 C713.6351,407.8765 719.3519,445.2441 656.8457,442.2198 C574.2767,438.2289 618.1204,286.9997 671.4943,307.1349 C696.1562,325.5606 669.5153,347.6485 665.2811,358.4541 C711.8041,376.7418 720.1145,310.9877 683.0658,295.8362 C653.4104,283.7091 611.6443,300.1098 593.0016,336.0835 C575.2563,370.3150 576.1340,422.3574 601.2069,444.5078 C628.6137,468.7226 677.8619,464.6331 704.7987,442.5025 C714.2367,456.7105 704.6376,464.1696 733.5139,460.1886 C733.8558,459.3930 734.0859,458.3608 734.2503,457.6934 C734.4146,457.0327 734.7499,456.0202 734.9340,455.2049 L735.9597,450.1818 C740.1873,425.7632 752.6300,365.1998 784.0935,370.0356 C787.9298,393.7441 768.8926,430.2734 782.1671,450.0174 C795.3494,469.6233 819.4426,462.5094 838.8612,439.8167 C847.5201,449.7380 849.9265,456.7171 866.6756,459.9749 C881.2157,462.7987 896.0516,460.2444 907.7810,453.2160 C939.9874,433.9224 921.1376,423.5179 943.5674,413.9648 C948.5905,411.8247 954.6984,409.5104 959.5111,407.9061 C950.3722,487.8748 1002.4870,461.4180 1020.7122,439.6852 C1027.8787,451.6545 1035.8243,460.0176 1055.0489,460.9151 C1091.8938,462.6377 1102.9985,442.3118 1113.9915,422.7947 C1117.1014,417.2719 1115.3952,418.6887 1120.6452,415.6709 C1135.3825,407.1993 1148.8279,407.8437 1149.6826,388.8558 C1137.8908,393.4811 1136.9407,402.0447 1119.2743,405.1973 C1120.0140,383.6091 1119.1034,368.3491 1105.8553,357.3397 C1093.3271,346.9286 1071.8145,346.5505 1055.2100,352.9248 C994.5053,376.2191 1038.8421,453.8045 988.0719,439.1231 C982.9403,418.6657 995.1759,370.9527 999.4495,347.0436 C1009.2952,291.9538 1021.5078,267.4924 980.8857,275.8226 C979.9882,302.1118 974.3865,325.4916 969.8894,351.0575 C964.4948,381.7123 968.1997,399.7239 938.3996,405.2335 C939.6094,362.0834 920.7859,335.8403 874.3155,352.9248 C829.9359,369.2367 840.3865,418.8104 833.4041,431.6969 C828.6506,438.4031 821.5202,444.0410 809.9980,438.8732 C798.7585,418.3961 824.8602,375.6537 809.1531,356.2779 C798.5645,343.2171 776.1676,348.1351 760.5624,364.3221 L750.2697,374.8384 C749.9902,374.3256 749.1191,375.8871 748.4978,376.3473 Z"
         style="fill-rule: evenodd; fill: #054628; "
         id="path2" />
      <path
         d="  M334.7650,362.8888 C343.5292,389.3785 332.0332,369.2236 328.1936,389.2404 C324.8010,406.9232 335.4521,399.1223 334.1601,416.2035 C333.0983,430.2340 317.7003,457.9794 300.8590,447.1738 C285.2736,437.1769 292.9726,346.8957 334.7650,362.8888 Z Z M411.3609,460.1031 C416.1802,429.5108 417.9915,406.2296 439.2707,379.9404 C445.2340,372.5734 450.6582,367.0440 460.4973,371.2354 C466.3949,396.7652 440.5364,438.8699 464.4717,456.0826 C489.0613,473.7687 527.9017,439.6359 517.7502,422.7585 C510.4391,428.4128 502.0004,448.5808 487.9173,438.3735 C471.9242,424.7835 501.9445,377.2152 485.9778,356.5836 C478.1801,346.5045 460.6715,347.4250 449.4057,353.8880 C444.0407,356.9649 440.6153,360.0814 437.0156,363.6712 L426.8576,373.9705 C426.5946,373.4676 425.7530,374.9896 425.1547,375.4433 C427.0811,349.9858 422.9916,347.3592 397.3205,349.5059 C398.7834,379.7103 394.6281,400.2498 367.2509,405.1184 C367.8886,365.7357 354.3578,340.2289 309.8204,350.6203 C245.0986,365.7225 246.9198,488.6046 329.5052,456.6842 C344.9099,450.7308 351.8561,443.0120 358.4177,429.8296 C368.5330,409.5038 359.7096,421.4797 389.3683,406.4038 C388.8917,437.1408 366.9977,465.2413 411.3609,460.1031 Z"
         style="fill-rule: evenodd; fill: #054628; "
         id="path4" />
      <path
         d="  M127.9332,349.8412 C125.9608,340.4623 125.8391,346.2514 117.2656,339.7292 C115.6121,289.8006 207.2247,292.8414 225.8937,344.0094 C245.1676,396.8342 215.1111,455.0537 159.7714,446.0331 C163.7459,415.9043 186.9021,347.8491 176.6258,321.3824 L151.4116,319.5612 C144.4588,357.7210 142.0130,397.7383 132.5059,434.8692 C114.6653,434.5405 104.7638,434.1986 109.1327,455.3989 C118.7417,461.3523 126.3158,462.2793 139.7940,458.8046 C163.1706,452.7755 195.3277,474.3013 231.1404,444.5637 C258.7379,421.6474 275.1386,373.1158 249.1749,331.7672 C231.2225,303.1769 186.0902,285.1456 136.5593,294.4752 C57.8430,309.3013 92.5446,381.2356 127.9332,349.8412 Z"
         style="fill-rule: evenodd; fill: #054628; "
         id="path6" />
      <path
         d="  M903.2050,360.6271 C878.7107,359.1116 873.1058,375.3512 867.7999,396.5778 C845.2847,486.6322 917.4952,440.8259 904.4049,408.3072 C900.4238,398.4155 893.6256,395.5127 903.2576,381.7452 C911.0355,370.6306 912.3899,378.1521 903.2050,360.6271 Z"
         style="fill-rule: evenodd; fill: #fdfdfd; "
         id="path8" />
      <path
         d="  M1050.7950,448.3343 C1071.4134,451.8583 1082.7516,437.6766 1086.2362,417.2784 C1088.6064,403.3991 1079.1125,406.7621 1080.1085,391.7388 C1081.2953,373.8621 1094.6322,383.0766 1088.9088,368.9902 C1084.3788,357.8394 1064.3456,351.1364 1051.9456,385.8511 C1044.5358,406.5879 1041.8698,430.0795 1050.7950,448.3343 Z"
         style="fill-rule: evenodd; fill: #fdfdfd; "
         id="path10" />
      <path
         d="  M334.7650,362.8888 C292.9726,346.8957 285.2736,437.1769 300.8590,447.1738 C317.7003,457.9794 333.0983,430.2340 334.1601,416.2035 C335.4521,399.1223 324.8010,406.9232 328.1936,389.2404 C332.0332,369.2236 343.5292,389.3785 334.7650,362.8888 Z"
         style="fill-rule: evenodd; fill: #fdfdfd; "
         id="path12" />
    </g>
    <path
       d="  M224.1369,534.6819 L231.8066,533.9205 C232.2692,536.4862 233.1938,538.3627 234.5990,539.5686 C236.0044,540.7744 237.8991,541.3728 240.2836,541.3728 C242.8038,541.3728 244.7079,540.8379 245.9860,539.7681 C247.2644,538.6983 247.9082,537.4471 247.9082,536.0148 C247.9082,535.0898 247.6361,534.3103 247.1012,533.6575 C246.5663,533.0137 245.6235,532.4516 244.2815,531.9802 C243.3660,531.6540 241.2808,531.0918 238.0170,530.2757 C233.8194,529.2241 230.8728,527.9369 229.1774,526.4045 C226.7932,524.2558 225.6055,521.6357 225.6055,518.5443 C225.6055,516.5589 226.1676,514.6911 227.2827,512.9595 C228.4070,511.2278 230.0207,509.9134 232.1331,509.0066 C234.2455,508.1000 236.7839,507.6468 239.7759,507.6468 C244.6444,507.6468 248.3161,508.7256 250.7732,510.8924 C253.2390,513.0592 254.5265,515.9424 254.6532,519.5597 L246.7658,519.8315 C246.4305,517.8189 245.7142,516.3775 244.6172,515.4979 C243.5202,514.6186 241.8701,514.1744 239.6761,514.1744 C237.4095,514.1744 235.6325,514.6458 234.3543,515.5886 C233.5292,516.1961 233.1122,517.0031 233.1122,518.0185 C233.1122,518.9431 233.5020,519.7320 234.2818,520.3845 C235.2699,521.2278 237.6726,522.0981 241.4894,523.0049 C245.3063,523.9023 248.1256,524.8451 249.9480,525.8064 C251.7795,526.7764 253.2118,528.0908 254.2453,529.7681 C255.2788,531.4453 255.7956,533.5123 255.7956,535.9694 C255.7956,538.1997 255.1791,540.2940 253.9372,542.2431 C252.6951,544.1924 250.9452,545.6429 248.6786,546.5857 C246.4123,547.5379 243.5837,548.0093 240.2019,548.0093 C235.2790,548.0093 231.4984,546.8760 228.8602,544.6003 C226.2220,542.3338 224.6536,539.0246 224.1369,534.6819 Z Z M262.4865,547.3020 L262.4865,508.3540 L291.3168,508.3540 L291.3168,514.9358 L270.3739,514.9358 L270.3739,523.5851 L289.8479,523.5851 L289.8479,530.1669 L270.3739,530.1669 L270.3739,540.7200 L292.0782,540.7200 L292.0782,547.3020 L262.4865,547.3020 Z Z M298.7691,547.3020 L298.7691,508.3540 L315.3328,508.3540 C319.4943,508.3540 322.5223,508.7075 324.4082,509.4057 C326.3029,510.1036 327.8078,511.3457 328.9411,513.1318 C330.0744,514.9270 330.6455,516.9668 330.6455,519.2697 C330.6455,522.1979 329.7934,524.6096 328.0799,526.5133 C326.3664,528.4174 323.8098,529.6141 320.4009,530.1128 C322.0963,531.1009 323.4923,532.1889 324.5893,533.3766 C325.6954,534.5640 327.1822,536.6767 329.0499,539.7046 L333.8005,547.3020 L324.3991,547.3020 L318.7599,538.7981 C316.7382,535.7789 315.3509,533.8752 314.5986,533.0863 C313.8551,532.3068 313.0662,531.7628 312.2323,531.4725 C311.3892,531.1826 310.0654,531.0374 308.2521,531.0374 L306.6565,531.0374 L306.6565,547.3020 L298.7691,547.3020 Z Z M306.6565,524.8361 L312.4772,524.8361 C316.2487,524.8361 318.5966,524.6731 319.5397,524.3556 C320.4734,524.0384 321.2167,523.4854 321.7425,522.7055 C322.2774,521.9260 322.5404,520.9466 322.5404,519.7774 C322.5404,518.4626 322.1870,517.4110 321.4888,516.5949 C320.7906,515.7882 319.8025,515.2805 318.5331,515.0718 C317.8896,514.9811 315.9765,514.9358 312.7944,514.9358 L306.6565,514.9358 L306.6565,524.8361 Z Z M347.0372,547.3020 L333.1026,508.3540 L341.6247,508.3540 L351.5159,537.1843 L361.0083,508.3540 L369.3852,508.3540 L355.5323,547.3020 L347.0372,547.3020 Z Z M373.0842,547.3020 L373.0842,508.3540 L380.9718,508.3540 L380.9718,547.3020 L373.0842,547.3020 Z Z M413.3832,532.9412 L420.9987,535.2803 C419.8292,539.5686 417.8801,542.7507 415.1602,544.8362 C412.4404,546.9123 408.9951,547.9549 404.8157,547.9549 C399.6388,547.9549 395.3869,546.1869 392.0505,542.6512 C388.7232,539.1153 387.0550,534.2831 387.0550,528.1452 C387.0550,521.6630 388.7323,516.6221 392.0777,513.0320 C395.4231,509.4420 399.8293,507.6468 405.2871,507.6468 C410.0559,507.6468 413.9271,509.0610 416.9007,511.8806 C418.6777,513.5488 420.0015,515.9424 420.8899,519.0701 L413.1111,520.9194 C412.6487,518.9068 411.6878,517.3112 410.2282,516.1416 C408.7593,514.9721 406.9826,514.3918 404.8974,514.3918 C402.0052,514.3918 399.6570,515.4256 397.8618,517.5017 C396.0578,519.5687 395.1601,522.9232 395.1601,527.5650 C395.1601,532.4788 396.0488,535.9876 397.8167,538.0727 C399.5935,540.1670 401.8963,541.2095 404.7341,541.2095 C406.8283,541.2095 408.6326,540.5477 410.1375,539.2151 C411.6424,537.8822 412.7304,535.7971 413.3832,532.9412 Z Z M427.4810,547.3020 L427.4810,508.3540 L435.3687,508.3540 L435.3687,547.3020 L427.4810,547.3020 Z Z M441.2344,528.0636 C441.2344,524.0928 441.8328,520.7564 443.0203,518.0547 C443.8998,516.0691 445.1148,514.2832 446.6469,512.7058 C448.1790,511.1280 449.8563,509.9587 451.6787,509.1880 C454.1083,508.1635 456.9097,507.6468 460.0828,507.6468 C465.8306,507.6468 470.4182,509.4329 473.8725,512.9957 C477.3175,516.5677 479.0401,521.5269 479.0401,527.8825 C479.0401,534.1833 477.3266,539.1153 473.9088,542.6694 C470.4908,546.2323 465.9123,548.0093 460.1917,548.0093 C454.3985,548.0093 449.7837,546.2413 446.3657,542.6963 C442.9480,539.1607 441.2344,534.2831 441.2344,528.0636 Z Z M449.3395,527.8008 C449.3395,532.2161 450.3640,535.5615 452.4038,537.8460 C454.4436,540.1216 457.0367,541.2640 460.1735,541.2640 C463.3194,541.2640 465.8941,540.1307 467.9161,537.8732 C469.9287,535.6066 470.9350,532.2161 470.9350,527.6920 C470.9350,523.2223 469.9559,519.8859 467.9887,517.6919 C466.0302,515.4888 463.4283,514.3918 460.1735,514.3918 C456.9279,514.3918 454.3078,515.5070 452.3221,517.7282 C450.3368,519.9585 449.3395,523.3130 449.3395,527.8008 Z Z M483.1109,534.6819 L490.7806,533.9205 C491.2432,536.4862 492.1679,538.3627 493.5730,539.5686 C494.9785,540.7744 496.8731,541.3728 499.2576,541.3728 C501.7779,541.3728 503.6820,540.8379 504.9601,539.7681 C506.2385,538.6983 506.8823,537.4471 506.8823,536.0148 C506.8823,535.0898 506.6101,534.3103 506.0752,533.6575 C505.5403,533.0137 504.5975,532.4516 503.2556,531.9802 C502.3400,531.6540 500.2549,531.0918 496.9911,530.2757 C492.7935,529.2241 489.8469,527.9369 488.1515,526.4045 C485.7673,524.2558 484.5796,521.6357 484.5796,518.5443 C484.5796,516.5589 485.1417,514.6911 486.2568,512.9595 C487.3810,511.2278 488.9948,509.9134 491.1072,509.0066 C493.2196,508.1000 495.7580,507.6468 498.7500,507.6468 C503.6185,507.6468 507.2902,508.7256 509.7472,510.8924 C512.2131,513.0592 513.5006,515.9424 513.6273,519.5597 L505.7399,519.8315 C505.4046,517.8189 504.6883,516.3775 503.5912,515.4979 C502.4942,514.6186 500.8442,514.1744 498.6502,514.1744 C496.3836,514.1744 494.6066,514.6458 493.3284,515.5886 C492.5032,516.1961 492.0863,517.0031 492.0863,518.0185 C492.0863,518.9431 492.4760,519.7320 493.2558,520.3845 C494.2440,521.2278 496.6466,522.0981 500.4635,523.0049 C504.2803,523.9023 507.0997,524.8451 508.9221,525.8064 C510.7535,526.7764 512.1859,528.0908 513.2194,529.7681 C514.2529,531.4453 514.7697,533.5123 514.7697,535.9694 C514.7697,538.1997 514.1531,540.2940 512.9113,542.2431 C511.6691,544.1924 509.9193,545.6429 507.6527,546.5857 C505.3864,547.5379 502.5577,548.0093 499.1760,548.0093 C494.2531,548.0093 490.4725,546.8760 487.8343,544.6003 C485.1961,542.3338 483.6277,539.0246 483.1109,534.6819 Z Z M569.6379,547.3020 L561.1431,547.3020 L557.7795,538.4353 L542.1586,538.4353 L538.9220,547.3020 L530.5810,547.3020 L545.7033,508.3540 L554.0352,508.3540 L569.6379,547.3020 Z Z M555.2229,531.8532 L549.8104,517.4382 L544.5519,531.8532 L555.2229,531.8532 Z Z M591.9497,532.9956 L591.9497,526.4135 L608.8671,526.4135 L608.8671,541.9531 C607.2262,543.5578 604.8420,544.9629 601.7139,546.1869 C598.5952,547.4018 595.4312,548.0093 592.2218,548.0093 C588.1510,548.0093 584.6063,547.1569 581.5780,545.4434 C578.5591,543.7301 576.2835,541.2730 574.7604,538.0909 C573.2374,534.9087 572.4757,531.4363 572.4757,527.6920 C572.4757,523.6305 573.3281,520.0220 575.0235,516.8580 C576.7277,513.7030 579.2119,511.2731 582.4848,509.5868 C584.9870,508.2905 588.0878,507.6468 591.8049,507.6468 C596.6371,507.6468 600.4176,508.6621 603.1375,510.6929 C605.8483,512.7330 607.5981,515.5342 608.3776,519.1245 L600.5446,520.5932 C600.0007,518.6803 598.9671,517.1661 597.4529,516.0509 C595.9480,514.9449 594.0624,514.3918 591.7958,514.3918 C588.3687,514.3918 585.6398,515.4797 583.6181,517.6647 C581.5962,519.8496 580.5808,523.0865 580.5808,527.3748 C580.5808,532.0074 581.6052,535.4799 583.6544,537.7915 C585.7123,540.1035 588.3959,541.2640 591.7232,541.2640 C593.3642,541.2640 595.0142,540.9377 596.6643,540.2940 C598.3234,539.6502 599.7376,538.8616 600.9253,537.9367 L600.9253,532.9956 L591.9497,532.9956 Z Z M616.1474,547.3020 L616.1474,508.3540 L632.7111,508.3540 C636.8726,508.3540 639.9006,508.7075 641.7865,509.4057 C643.6811,510.1036 645.1860,511.3457 646.3193,513.1318 C647.4526,514.9270 648.0238,516.9668 648.0238,519.2697 C648.0238,522.1979 647.1717,524.6096 645.4582,526.5133 C643.7446,528.4174 641.1881,529.6141 637.7791,530.1128 C639.4745,531.1009 640.8706,532.1889 641.9676,533.3766 C643.0737,534.5640 644.5604,536.6767 646.4282,539.7046 L651.1788,547.3020 L641.7774,547.3020 L636.1381,538.7981 C634.1165,535.7789 632.7292,533.8752 631.9769,533.0863 C631.2334,532.3068 630.4445,531.7628 629.6105,531.4725 C628.7675,531.1826 627.4437,531.0374 625.6304,531.0374 L624.0348,531.0374 L624.0348,547.3020 L616.1474,547.3020 Z Z M624.0348,524.8361 L629.8554,524.8361 C633.6269,524.8361 635.9749,524.6731 636.9180,524.3556 C637.8517,524.0384 638.5949,523.4854 639.1208,522.7055 C639.6557,521.9260 639.9187,520.9466 639.9187,519.7774 C639.9187,518.4626 639.5652,517.4110 638.8671,516.5949 C638.1689,515.7882 637.1807,515.2805 635.9114,515.0718 C635.2679,514.9811 633.3548,514.9358 630.1726,514.9358 L624.0348,514.9358 L624.0348,524.8361 Z Z M653.7991,528.0636 C653.7991,524.0928 654.3975,520.7564 655.5849,518.0547 C656.4645,516.0691 657.6795,514.2832 659.2116,512.7058 C660.7437,511.1280 662.4210,509.9587 664.2434,509.1880 C666.6729,508.1635 669.4744,507.6468 672.6475,507.6468 C678.3953,507.6468 682.9829,509.4329 686.4372,512.9957 C689.8822,516.5677 691.6048,521.5269 691.6048,527.8825 C691.6048,534.1833 689.8912,539.1153 686.4735,542.6694 C683.0555,546.2323 678.4770,548.0093 672.7564,548.0093 C666.9632,548.0093 662.3484,546.2413 658.9304,542.6963 C655.5127,539.1607 653.7991,534.2831 653.7991,528.0636 Z Z M661.9042,527.8008 C661.9042,532.2161 662.9287,535.5615 664.9685,537.8460 C667.0083,540.1216 669.6014,541.2640 672.7382,541.2640 C675.8841,541.2640 678.4588,540.1307 680.4808,537.8732 C682.4934,535.6066 683.4997,532.2161 683.4997,527.6920 C683.4997,523.2223 682.5206,519.8859 680.5534,517.6919 C678.5949,515.4888 675.9930,514.3918 672.7382,514.3918 C669.4926,514.3918 666.8725,515.5070 664.8868,517.7282 C662.9014,519.9585 661.9042,523.3130 661.9042,527.8008 Z Z M697.7426,547.3020 L697.7426,508.3540 L710.3537,508.3540 C715.1315,508.3540 718.2411,508.5442 719.6916,508.9343 C721.9219,509.5233 723.7896,510.7927 725.2946,512.7511 C726.7995,514.7093 727.5521,517.2386 727.5521,520.3395 C727.5521,522.7328 727.1169,524.7363 726.2555,526.3682 C725.3853,528.0001 724.2883,529.2785 722.9554,530.2123 C721.6228,531.1372 720.2628,531.7537 718.8849,532.0528 C717.0080,532.4244 714.2973,532.6149 710.7435,532.6149 L705.6300,532.6149 L705.6300,547.3020 L697.7426,547.3020 Z Z M705.6300,514.9358 L705.6300,526.0329 L709.9183,526.0329 C713.0100,526.0329 715.0680,525.8242 716.1106,525.4163 C717.1532,525.0084 717.9693,524.3737 718.5583,523.4944 C719.1476,522.6239 719.4470,521.6176 719.4470,520.4571 C719.4470,519.0338 719.0300,517.8643 718.2048,516.9396 C717.3709,516.0149 716.3283,515.4347 715.0499,515.1988 C714.1161,515.0265 712.2393,514.9358 709.4106,514.9358 L705.6300,514.9358 Z Z M734.0253,547.3020 L734.0253,508.3540 L762.8556,508.3540 L762.8556,514.9358 L741.9127,514.9358 L741.9127,523.5851 L761.3867,523.5851 L761.3867,530.1669 L741.9127,530.1669 L741.9127,540.7200 L763.6170,540.7200 L763.6170,547.3020 L734.0253,547.3020 Z Z M795.2216,532.9412 L802.8371,535.2803 C801.6676,539.5686 799.7185,542.7507 796.9986,544.8362 C794.2788,546.9123 790.8335,547.9549 786.6541,547.9549 C781.4772,547.9549 777.2253,546.1869 773.8889,542.6512 C770.5616,539.1153 768.8934,534.2831 768.8934,528.1452 C768.8934,521.6630 770.5706,516.6221 773.9161,513.0320 C777.2615,509.4420 781.6677,507.6468 787.1255,507.6468 C791.8943,507.6468 795.7655,509.0610 798.7391,511.8806 C800.5161,513.5488 801.8399,515.9424 802.7283,519.0701 L794.9494,520.9194 C794.4871,518.9068 793.5262,517.3112 792.0666,516.1416 C790.5977,514.9721 788.8209,514.3918 786.7358,514.3918 C783.8436,514.3918 781.4954,515.4256 779.7002,517.5017 C777.8962,519.5687 776.9985,522.9232 776.9985,527.5650 C776.9985,532.4788 777.8871,535.9876 779.6551,538.0727 C781.4319,540.1670 783.7347,541.2095 786.5725,541.2095 C788.6667,541.2095 790.4710,540.5477 791.9759,539.2151 C793.4808,537.8822 794.5688,535.7971 795.2216,532.9412 Z Z M809.5915,508.3540 L817.4789,508.3540 L817.4789,529.4599 C817.4789,532.8145 817.5787,534.9813 817.7692,535.9694 C818.1045,537.5650 818.8934,538.8525 820.1443,539.8135 C821.4046,540.7835 823.1182,541.2640 825.2940,541.2640 C827.4971,541.2640 829.1653,540.8107 830.2895,539.8951 C831.4138,538.9792 832.0844,537.8641 832.3112,536.5315 C832.5380,535.1987 832.6556,532.9956 832.6556,529.9132 L832.6556,508.3540 L840.5433,508.3540 L840.5433,528.8343 C840.5433,533.5123 840.3347,536.8215 839.9086,538.7528 C839.4826,540.6837 838.7028,542.3156 837.5604,543.6485 C836.4271,544.9810 834.9041,546.0327 833.0003,546.8216 C831.0872,547.6102 828.6032,548.0093 825.5296,548.0093 C821.8216,548.0093 819.0111,547.5830 817.0982,546.7218 C815.1851,545.8606 813.6711,544.7455 812.5560,543.3673 C811.4409,541.9894 810.7157,540.5567 810.3620,539.0427 C809.8452,536.8124 809.5915,533.5123 809.5915,529.1515 L809.5915,508.3540 Z Z M883.9610,547.3020 L875.4661,547.3020 L872.1026,538.4353 L856.4817,538.4353 L853.2451,547.3020 L844.9041,547.3020 L860.0264,508.3540 L868.3583,508.3540 L883.9610,547.3020 Z Z M869.5460,531.8532 L864.1335,517.4382 L858.8750,531.8532 L869.5460,531.8532 Z Z M888.1588,547.3020 L888.1588,508.3540 L904.7225,508.3540 C908.8841,508.3540 911.9120,508.7075 913.7979,509.4057 C915.6926,510.1036 917.1975,511.3457 918.3308,513.1318 C919.4641,514.9270 920.0353,516.9668 920.0353,519.2697 C920.0353,522.1979 919.1832,524.6096 917.4696,526.5133 C915.7561,528.4174 913.1995,529.6141 909.7906,530.1128 C911.4860,531.1009 912.8820,532.1889 913.9791,533.3766 C915.0851,534.5640 916.5719,536.6767 918.4397,539.7046 L923.1902,547.3020 L913.7889,547.3020 L908.1496,538.7981 C906.1279,535.7789 904.7407,533.8752 903.9883,533.0863 C903.2448,532.3068 902.4559,531.7628 901.6220,531.4725 C900.7790,531.1826 899.4552,531.0374 897.6419,531.0374 L896.0462,531.0374 L896.0462,547.3020 L888.1588,547.3020 Z Z M896.0462,524.8361 L901.8669,524.8361 C905.6384,524.8361 907.9863,524.6731 908.9294,524.3556 C909.8631,524.0384 910.6064,523.4854 911.1322,522.7055 C911.6671,521.9260 911.9302,520.9466 911.9302,519.7774 C911.9302,518.4626 911.5767,517.4110 910.8785,516.5949 C910.1803,515.7882 909.1922,515.2805 907.9228,515.0718 C907.2794,514.9811 905.3663,514.9358 902.1841,514.9358 L896.0462,514.9358 L896.0462,524.8361 Z Z M927.1704,547.3020 L927.1704,508.3540 L935.0580,508.3540 L935.0580,547.3020 L927.1704,547.3020 Z Z M940.9238,528.0636 C940.9238,524.0928 941.5222,520.7564 942.7096,518.0547 C943.5892,516.0691 944.8041,514.2832 946.3363,512.7058 C947.8684,511.1280 949.5456,509.9587 951.3680,509.1880 C953.7976,508.1635 956.5991,507.6468 959.7722,507.6468 C965.5200,507.6468 970.1076,509.4329 973.5619,512.9957 C977.0068,516.5677 978.7294,521.5269 978.7294,527.8825 C978.7294,534.1833 977.0159,539.1153 973.5982,542.6694 C970.1802,546.2323 965.6016,548.0093 959.8810,548.0093 C954.0879,548.0093 949.4731,546.2413 946.0551,542.6963 C942.6373,539.1607 940.9238,534.2831 940.9238,528.0636 Z Z M949.0289,527.8008 C949.0289,532.2161 950.0533,535.5615 952.0931,537.8460 C954.1329,540.1216 956.7261,541.2640 959.8629,541.2640 C963.0088,541.2640 965.5835,540.1307 967.6054,537.8732 C969.6180,535.6066 970.6243,532.2161 970.6243,527.6920 C970.6243,523.2223 969.6453,519.8859 967.6780,517.6919 C965.7196,515.4888 963.1176,514.3918 959.8629,514.3918 C956.6172,514.3918 953.9972,515.5070 952.0115,517.7282 C950.0261,519.9585 949.0289,523.3130 949.0289,527.8008 Z Z M982.8003,534.6819 L990.4700,533.9205 C990.9326,536.4862 991.8573,538.3627 993.2624,539.5686 C994.6678,540.7744 996.5625,541.3728 998.9470,541.3728 C1001.4673,541.3728 1003.3713,540.8379 1004.6494,539.7681 C1005.9279,538.6983 1006.5716,537.4471 1006.5716,536.0148 C1006.5716,535.0898 1006.2995,534.3103 1005.7646,533.6575 C1005.2297,533.0137 1004.2869,532.4516 1002.9450,531.9802 C1002.0294,531.6540 999.9442,531.0918 996.6804,530.2757 C992.4829,529.2241 989.5363,527.9369 987.8409,526.4045 C985.4566,524.2558 984.2689,521.6357 984.2689,518.5443 C984.2689,516.5589 984.8310,514.6911 985.9462,512.9595 C987.0704,511.2278 988.6842,509.9134 990.7965,509.0066 C992.9089,508.1000 995.4473,507.6468 998.4393,507.6468 C1003.3078,507.6468 1006.9795,508.7256 1009.4366,510.8924 C1011.9025,513.0592 1013.1900,515.9424 1013.3167,519.5597 L1005.4293,519.8315 C1005.0939,517.8189 1004.3776,516.3775 1003.2806,515.4979 C1002.1836,514.6186 1000.5335,514.1744 998.3395,514.1744 C996.0729,514.1744 994.2959,514.6458 993.0178,515.5886 C992.1926,516.1961 991.7756,517.0031 991.7756,518.0185 C991.7756,518.9431 992.1654,519.7320 992.9452,520.3845 C993.9334,521.2278 996.3360,522.0981 1000.1529,523.0049 C1003.9697,523.9023 1006.7890,524.8451 1008.6114,525.8064 C1010.4429,526.7764 1011.8752,528.0908 1012.9088,529.7681 C1013.9423,531.4453 1014.4590,533.5123 1014.4590,535.9694 C1014.4590,538.1997 1013.8425,540.2940 1012.6006,542.2431 C1011.3585,544.1924 1009.6087,545.6429 1007.3421,546.5857 C1005.0758,547.5379 1002.2471,548.0093 998.8654,548.0093 C993.9424,548.0093 990.1619,546.8760 987.5237,544.6003 C984.8854,542.3338 983.3170,539.0246 982.8003,534.6819 Z"
       style="fill-rule: evenodd; fill: #1b1918; "
       id="path15" />
  </g>
</svg>
