<?xml version="1.0" encoding="UTF-8" standalone="no"?>
<svg
   version="1.1"
   width="845.76538"
   height="751.9809"
   id="svg93"
   viewBox="0 0 845.76536 751.9809"
   sodipodi:docname="369f4be44c838c1d805f56f9fe2ec9cc.cdr"
   xmlns:inkscape="http://www.inkscape.org/namespaces/inkscape"
   xmlns:sodipodi="http://sodipodi.sourceforge.net/DTD/sodipodi-0.dtd"
   xmlns="http://www.w3.org/2000/svg"
   xmlns:svg="http://www.w3.org/2000/svg">
  <defs
     id="defs97" />
  <sodipodi:namedview
     id="namedview95"
     pagecolor="#ffffff"
     bordercolor="#666666"
     borderopacity="1.0"
     inkscape:pageshadow="2"
     inkscape:pageopacity="0.0"
     inkscape:pagecheckerboard="0" />
  <g
     id="Layer1000"
     transform="translate(-196.4174,-35.129597)">
    <path
       d="m 883.3893,650.4885 c 9.4482,-1.3944 18.7928,4.2122 20.9627,10.9398 3.2157,9.9699 -3.6609,18.4594 -12.2856,19.3966 -9.3661,1.018 -19.8298,-3.7588 -21.7174,-11.027 -2.6909,-10.3639 4.5166,-18.0514 13.0403,-19.3094 z m 24.9318,25.2204 c 1.3212,5.3989 7.5189,9.7242 13.1148,7.6673 8.7466,-3.2163 -6.1194,-8.9758 -8.9543,-10.7933 -6.1226,-3.9249 -3.4646,-12.8161 3.9072,-14.5648 8.8028,-2.0884 14.8995,4.7023 19.9346,3.5946 -0.0827,1.9173 -0.7919,6.5009 -2.0373,8.069 l -0.694,-1.0742 c -4.2508,-6.931 -10.2168,-8.1252 -12.3823,-4.475 0.6574,1.8681 0.4629,1.5258 2.4851,2.5855 l 9.121,5.2889 c 8.0172,6.5761 0.4768,19.1591 -13.9244,16.0843 -3.9053,-0.8336 -7.5776,-2.6865 -12.4258,-4.0752 -1.7184,-0.4926 -0.4389,0.3542 -1.5283,-0.6347 0.5412,-2.6543 1.3281,-8.883 2.6145,-10.3936 z m -531.365,1.6136 c -7.3074,-0.5223 -12.2787,5.5359 -21.8898,1.9394 -14.6936,-5.4974 -12.8711,-25.3821 4.7844,-28.6452 8.0544,-1.4891 15.8139,2.0449 17.4281,8.0683 l -19.4787,7.9603 c 1.4449,7.4059 9.2164,11.4388 16.1588,4.4649 3.7979,-3.815 1.4449,-4.0733 3.7177,-5.2776 1.0275,1.9552 -0.3991,8.7914 -0.7205,11.4899 z m 62.6828,-42.2892 c 19.706,-1.4891 25.3973,27.9183 -1.0577,30.5504 -10.5288,1.0477 -17.8879,-5.2858 -17.1421,-15.9017 0.7073,-10.0651 9.4369,-13.9863 18.1998,-14.6487 z m 393.3992,33.7232 c -4.1737,-3.1254 -13.8076,0.377 -20.3489,-6.0121 -2.1004,-2.0512 -4.3082,-4.0524 -5.3054,-8.0632 -4.8273,-19.4187 29.2653,-27.1182 33.1732,-3.2555 l -21.3915,0.4149 c -1.0774,12.0349 9.9666,13.4722 16.4776,8.3121 1.6559,-1.3123 0.4964,-1.1001 2.6695,-2.1428 -0.5545,2.7219 -3.863,8.2692 -5.2745,10.7466 z M 325.7593,649.161 c 1.0666,-1.5365 8.9455,-2.8822 11.1899,-2.8109 -0.3676,1.9445 -0.3164,1.2214 -2.0247,2.619 -0.449,4.7503 2.2722,13.9376 3.2903,18.8098 4.0164,19.2267 2.9113,11.2872 6.6934,15.0675 -0.9283,1.0205 -10.5628,3.3628 -10.9739,2.5943 -0.0897,-0.1674 -0.3246,-0.0348 -0.4799,-0.0796 0.1964,-0.9624 5.1683,-4.1504 -0.396,-8.6828 l -23.4288,-16.9879 5.1734,24.0243 c 1.2416,5.414 2.9341,2.6669 4.211,5.013 -0.1175,0.079 -0.281,0.1699 -0.3676,0.2122 -0.0852,0.043 -0.2627,0.1529 -0.3707,0.2027 l -9.0377,2.0266 c -1.3047,-0.0606 -0.3353,0.1509 -1.2081,-0.3025 1.6338,-3.013 3.2145,-0.7048 1.3237,-9.2379 l -4.3562,-19.6832 c -1.4374,-6.1315 -0.9801,-4.883 -2.965,-6.1088 -2.0285,-1.2523 -0.4073,0.8065 -1.6748,-1.3287 l 21.5848,-4.8797 c -0.2672,2.396 -1.9363,2.3997 -0.1282,4.5501 l 10.0203,7.7456 c -2.6271,-15.9466 -3.7923,-9.2101 -6.0752,-12.7631 z m 522.2061,0.3057 c 1.287,-6.1011 -1.2599,-4.0076 -1.7253,-6.7219 1.9261,-1.0907 9.5719,0.8557 12.6247,1.2346 l 0.5715,5.4052 c 4.8722,-3.2264 5.4778,-4.5627 12.4776,-1.9009 l -3.8068,6.7983 c -2.0316,-1.4272 -3.025,-3.4354 -6.7225,-1.599 -2.3152,1.15 -3.2978,3.0648 -4.1491,6.0348 -4.3537,15.1907 -0.1743,11.4502 0.4319,15.0429 -2.7029,0.1497 -9.7317,-1.7992 -13.3636,-2.5267 l -3.791,-1.2201 c 1.0988,-2.0165 -0.1952,-0.1788 1.5763,-1.3155 1.4575,-0.9353 0.2873,0.2053 1.2952,-0.8254 1.3647,-1.395 3.9994,-15.6466 4.5811,-18.4063 z m -459.0603,25.4225 c 1.4329,2.6916 0.6978,3.8232 3.2637,5.2467 4.9921,2.7692 16.5338,-0.4036 16.6159,-5.8618 0.1137,-7.6389 -16.2863,3.1671 -24.7367,-5.2833 -2.4111,-2.4118 -4.3714,-7.834 -3.5453,-12.7138 1.827,-10.7996 11.776,-12.6563 19.1477,-13.9863 l 12.7068,-2.125 c 1.5738,0.1743 0.228,-0.276 1.313,0.4401 -1.1027,2.0923 -2.3089,1.3761 -2.4118,4.2761 l 2.624,15.164 c 1.1247,6.2679 1.4853,4.0885 4.5065,7.2234 2.1541,2.2356 1.9868,6.108 0.389,9.0844 -5.085,9.4709 -28.5429,12.6064 -34.6724,7.0276 0.5741,-1.8504 3.1109,-7.6774 4.7996,-8.4921 z m 141.0325,-51.133 c 10.2218,-1.6438 18.6659,2.876 20.0723,11.848 3.3073,21.101 -32.1002,24.8743 -34.6118,5.8131 -1.3426,-10.1851 5.8189,-16.2585 14.5395,-17.6611 z m -40.9554,33.9601 c -10.4914,3.6988 -25.7641,3.0041 -28.63,-10.501 -4.1598,-19.6087 20.8989,-16.7953 24.2428,-18.5086 l 3.4658,10.4302 c -1.9861,0.1478 -3.4563,-7.4924 -11.2278,-5.2429 -11.8814,3.4399 -1.7783,27.9789 10.4252,18.4423 2.8538,-2.2311 1.9981,-3.4872 3.772,-4.8785 0.6663,1.4885 -1.5807,8.9525 -2.048,10.2585 z m 254.4191,-31.5698 c 21.3239,-2.0922 18.7984,7.5442 17.4735,18.5737 -1.8434,15.3428 0.5974,7.1179 1.714,11.9263 -1.9287,0.8872 -5.9553,-0.2211 -8.506,-0.4996 -4.4238,-0.4831 -3.9325,-0.9144 -5.1267,-4.6423 -5.6237,5.2978 -19.4553,4.6379 -18.9399,-5.0079 0.4603,-8.6096 12.5919,-9.6333 20.7581,-10.2781 0.3284,-5.4614 -2.0095,-7.2795 -7.8372,-6.2665 -5.2296,0.9087 -5.5467,4.3398 -8.9727,5.4595 l 2.2211,-9.2424 z m -250.724,2.6966 c 1.4764,-1.0849 12.7788,-2.6353 13.9875,-2.1705 0.8703,2.785 1.3906,11.6073 1.779,15.1344 1.8876,17.1641 1.5687,8.1397 4.7004,12.7011 -1.9533,1.3306 -15.86,2.391 -17.6674,2.0859 1.1323,-5.5018 3.9312,5.3156 1.8327,-14.3349 -2.0607,-19.3011 -2.3632,-8.5388 -4.6322,-13.416 z m 299.6119,2.7326 c 1.8725,-7.7879 -1.2012,-4.8804 -2.3751,-8.0797 1.011,-0.7243 2.6366,-0.5462 3.7398,-0.4604 l 10.722,0.761 c -0.6145,6.6979 -1.9331,13.6642 -2.9132,20.3628 -0.4907,3.3502 -0.994,6.8495 -1.498,10.2136 -1.2959,8.6575 1.1734,5.4487 1.5731,8.6013 -3.6243,0.2621 -13.8429,-1.7897 -18.2244,-2.4137 -7.2297,-1.0306 -10.6171,-2.0575 -13.6661,-6.6442 -4.1813,-6.29 -2.905,-22.3988 14.3917,-22.4076 3.0686,-10e-4 4.4908,0.8146 7.3509,0.341 z M 657.3161,620.6264 c 6.684,2.7187 18.556,-4.4402 24.8345,3.7222 2.5217,3.2776 1.2921,9.7096 1.0623,13.9957 -0.8052,15.0404 1.2927,6.5287 2.5387,12.057 -3.0572,-0.1351 -6.1245,-0.257 -9.1653,-0.4142 -4.2653,-0.2204 -3.1873,-0.9625 -4.8318,-3.9275 -7.5289,6.3159 -19.9232,4.3171 -19.1609,-4.8355 0.7572,-9.0889 16.3071,-9.8707 20.0066,-11.0137 -0.1143,-8.3292 -7.8442,-6.9329 -12.8262,-3.1817 -2.0803,1.5662 -1.4841,2.4573 -3.5252,3.5732 -0.9309,-2.3063 0.8671,-6.9966 1.0673,-9.9755 z m -84.3776,20.3855 c -3.9084,-1.714 -8.7345,-1.7714 -12.9664,-3.042 -8.612,-2.5861 -7.7607,-14.6033 4.8893,-16.5276 l 13.4785,-0.3618 c 1.2239,0.0757 0.3802,-0.1181 1.1564,0.2766 0.2987,2.1901 1.0009,6.1093 0.2627,7.8327 -4.151,-3.4051 -4.7156,-5.7632 -13.6068,-3.7613 l -0.5608,2.3448 c 2.0177,2.5476 10.3027,2.6688 13.7786,4.1453 4.144,1.7601 6.4831,7.133 3.748,12.0349 -6.1112,10.9519 -21.7091,4.8956 -27.3069,7.5145 l -1.2587,-11.4577 c 2.4428,0.67 1.2397,2.2741 3.7797,4.3979 4.4276,3.7026 15.1754,4.0904 14.6064,-3.3963 z m 116.6199,8.1491 2.6859,-2.5254 c 1.0388,-1.6401 1.3104,-9.2638 1.4922,-11.3541 1.6799,-19.3164 -1.3672,-8.5698 -1.9084,-13.9914 l 12.7864,0.0467 0.9226,5.5044 c 2.9568,-1.9047 5.404,-3.8997 10.1397,-4.2009 15.3296,-0.9738 6.9626,17.6239 7.9781,25.9587 0.5077,4.1699 2.3435,0.4307 2.641,4.3461 L 708.8128,651.3 c 0.5678,-2.5697 1.911,-0.7199 3.1501,-3.6205 0.7357,-1.7215 1.8756,-15.082 0.8948,-18.3735 -4.7496,-2.3303 -7.9016,2.4983 -8.4017,7.5953 -1.6173,16.4726 1.4702,9.7191 2.6056,13.8638 -1.5055,0.8747 -15.6813,-0.7477 -15.8234,-0.7862 -1.2144,-0.3303 -1.0653,-0.3714 -1.6798,-0.8179 z M 498.2978,613.8634 c 8.0247,-3.3148 10.2199,7.0977 4.2767,9.4608 -3.589,1.4273 -7.1085,-0.377 -7.9282,-2.9346 -1.1209,-3.5006 1.1475,-5.4924 3.6515,-6.5262 z m 149.5013,34.3295 c -8.0058,0.009 -23.0335,0.7926 -29.9038,-1.3167 -16.6008,-5.0957 -18.8749,-30.7747 -2.6821,-36.6023 7.38,-2.6562 13.039,-1.5744 20.0704,-0.5514 2.2318,0.3246 4.0038,-0.4673 5.8036,-0.6062 0.283,3.4247 1.5738,10.1908 1.1204,13.1375 -1.3414,-0.5608 -5.8921,-11.0952 -16.6198,-8.5786 -14.0147,3.2877 -9.5315,33.8976 4.8792,30.5947 3.8699,-0.8866 3.3186,-5.4235 3.3205,-9.5454 0.006,-12.9431 -2.4149,-4.8514 -3.4052,-9.0895 1.8971,-1.0086 16.5358,-0.8002 18.3861,0 -1.1809,4.5394 -3.6647,-2.1365 -3.6451,10.6929 0.0227,15.3554 1.3887,6.3941 2.6758,11.865 z m -281.3124,-56.3222 -17.7634,3.9104 c -0.8197,0.8014 -0.2577,0.3101 -1.3629,0.7022 -4.5065,-0.2753 -67.2393,15.6188 -71.6403,17.9232 0.2273,4.0026 15.0327,55.745 16.4599,60.9084 2.7958,10.1119 14.758,53.8914 18.6905,59.2082 10.9771,-3.2902 21.5823,-7.0825 33.4018,-10.2186 77.0374,-20.4417 197.6181,-32.5998 274.5481,-32.6825 55.4836,-0.0594 109.9555,4.2299 163.8091,11.8979 32.0806,4.5684 78.2814,13.3977 110.4145,21.1269 5.9009,1.4196 11.6124,2.7439 17.5159,4.3991 4.3019,1.2062 13.829,4.708 17.3099,5.1867 3.9142,-5.9211 33.7795,-108.4877 35.2913,-120.0427 -13.6048,-3.4658 -27.6353,-8.0039 -41.6702,-11.5928 -7.0276,-1.7967 -14.2813,-3.6824 -21.4579,-5.2663 -6.6152,-1.4594 -15.4224,-3.0275 -21.6807,-4.9656 l -0.7459,-0.0733 -16.6235,-3.431 c -0.2153,0.007 -2.0733,0.0132 -2.1124,0.006 -1.1077,-0.1914 -0.8557,-0.1699 -1.4948,-0.6069 -77.5369,-16.0564 -165.1674,-22.3306 -247.1105,-21.7313 -75.9985,0.5558 -154.7233,8.5211 -229.3988,22.7064 -4.2495,0.8077 -10.2938,2.4035 -14.3797,2.6353 z"
       style="fill:#000000;fill-rule:evenodd"
       id="path2" />
    <path
       d="m 727.1838,388.4192 c -1.0262,-10.6569 -0.1093,-26.4026 -0.1093,-37.614 0,-10.8887 -1.2068,-25.5116 2.0127,-35.1574 3.1879,-9.5537 17.687,-11.0251 26.6136,-10.998 21.9516,0.0663 42.8708,11.9067 36.5783,37.2989 -4.1333,16.6753 -21.8494,31.8401 -35.919,38.9024 -6.7523,3.3893 -20.3723,7.8352 -29.1763,7.5681 z M 626.5553,288.2467 c 1.8036,2.3783 13.363,-1.8971 18.9191,21.4521 1.6199,6.8097 1.9211,11.4028 1.9533,18.6577 0.0354,8.1283 -10.0784,19.2096 -15.5101,25.3707 -0.9018,1.0231 -1.2081,1.6988 -2.1415,2.6947 -9.3743,10.004 -17.6321,18.1897 -31.2098,24.9148 -17.2797,8.559 -44.9649,15.8783 -65.4799,7.0831 -23.3044,-9.9906 -18.3369,-38.4021 -18.3369,-62.8957 l -81.2748,0.007 c 0,17.3049 0.1307,34.4179 -10e-4,51.474 -0.0796,10.2149 -2.024,22.3445 -11.5638,27.1232 -2.9549,1.4797 -6.8431,1.7455 -9.8227,2.9157 l 0.0171,9.2632 c 5.6868,0.754 151.7343,0.1604 165.0108,0.1604 8.9379,0 18.4101,-0.3006 27.2842,0.0802 12.5281,0.5374 16.9968,3.5239 23.5109,4.4895 1.6811,-2.5798 13.4975,-39.0899 16.4827,-47.8712 l 2.989,-7.1791 0.0272,80.8542 c 3.9994,0.9505 68.7442,0.2918 78.589,0.2918 0.0309,-3.8592 -0.7281,-27.4693 0.4187,-28.8113 1.2997,-1.0413 22.4752,-6.1554 26.0496,-7.1311 8.8211,-2.4074 17.3732,-4.8899 26.133,-7.5404 29.3335,-8.876 69.3019,-23.0884 86.9819,-47.2251 10.2155,-13.9453 14.2105,-34.2632 5.0901,-52.6897 -7.1741,-14.4941 -22.2662,-21.6599 -42.9927,-23.8418 -20.4581,-2.1541 -45.6325,-0.9075 -66.6312,-0.9075 -44.7673,0 -89.7309,-0.4156 -134.4736,0.0177 z"
       style="fill:#201e1f;fill-rule:evenodd"
       id="path4" />
    <path
       d="m 282.6062,374.9059 c 3.863,-1.0609 14.6563,-9.3932 18.7978,-10.3525 0.7149,0.9252 12.7201,12.0393 14.5237,12.2288 -0.4332,-49.5517 7.2303,-91.3136 22.1664,-131.8275 13.3024,-36.082 36.9453,-72.2385 59.363,-95.1987 26.6843,-27.331 54.5893,-47.8352 90.2911,-63.7091 80.4104,-35.753 174.135,-34.6573 253.1327,3.1109 17.2796,8.2609 34.0705,18.1252 48.2671,28.75 5.9022,4.4175 16.4556,12.2969 21.3656,17.1571 l 9.9301,9.2967 c 15.5821,14.1334 31.4965,34.5688 43.9027,52.8936 21.3593,31.5489 39.261,70.2182 44.713,109.783 3.1778,23.0575 4.6726,47.1627 6.9953,70.4986 l 13.4893,-9.4867 c 4.9158,3.0566 10.4397,9.2026 15.4603,12.6702 C 944.2502,308.3505 927.1809,240.0187 888.581,184.7549 873.2237,162.7685 858.717,145.3631 840.1932,127.8195 779.6007,70.4319 705.7127,37.4501 616.6815,35.2265 511.89,32.6082 425.9551,83.5031 377.3444,132.8704 c -46.4395,47.1626 -72.5996,99.4747 -86.4931,165.8621 -4.6379,22.1632 -8.2837,52.3607 -8.2451,76.1734 z"
       style="fill:#201e1f;fill-rule:evenodd"
       id="path6" />
    <path
       d="m 414.1962,160.5752 0.0543,9.788 c 7.3181,0.9075 8.7466,-0.8153 13.7792,3.8914 3.5302,3.3016 4.7276,5.9748 5.1728,12.3841 0.7831,11.2727 0.2722,23.8898 0.2722,35.3065 0,23.4926 0.0619,46.9934 -0.003,70.4847 l 81.2673,0.1541 0.0101,-22.3881 c 6.0317,-1.0843 22.1172,-0.2254 29.2148,-0.2355 9.4798,-0.0133 16.347,2.1206 23.3366,6.18 13.7527,7.9875 19.6296,19.0865 24.5637,32.6371 0.4572,1.2554 0.2065,0.7249 0.7559,1.676 l 9.176,-1.4209 -16.9734,-97.1444 -7.5454,2.0247 c 0.0493,13.6301 -4.4352,23.9144 -18.6526,28.0427 -5.6287,1.6343 -38.3289,2.0379 -44.8683,1.1051 -0.5513,-8.5918 -0.3726,-20.9444 -0.0373,-29.6556 0.7976,-20.7448 11.9535,-27.4806 31.2925,-28.3603 9.7154,-0.4421 18.5598,0.6896 27.5293,2.989 28.1968,7.2284 46.4263,23.0903 57.027,48.2861 l 3.3963,9.9761 c 0.4901,1.1431 -0.8241,-1.4695 0.3726,0.7319 l 0.4547,0.6789 c 2.9082,-1.683 5.3237,-4.3309 8.1738,-5.7525 l -18.6362,-86.2266 c -1.8194,0.2715 -3.5839,0.9694 -5.1412,1.4108 -17.0612,4.8355 -79.3292,3.2163 -97.2157,3.2163 -7.6907,0 -101.8429,-0.5993 -106.7764,0.2204 z"
       style="fill:#201e1f;fill-rule:evenodd"
       id="path8" />
    <path
       d="m 1003.7111,787.1105 h 0.5153 l -14.5022,-66.4019 c 2.0032,-1.025 4.5507,-3.3338 6.4863,-4.8116 2.3859,-1.8219 4.1776,-3.1039 6.4693,-4.7547 10.4909,-7.5568 22.9192,-15.488 33.0052,-23.1446 2.0285,-1.5397 4.6859,-4.0481 6.4978,-4.8861 -1.1191,-1.3293 -2.5994,-1.4771 -4.4617,-2.1048 -19.574,-6.6045 -64.3685,-24.186 -78.8177,-25.3885 -10.0412,23.984 -15.841,62.5636 -25.8121,85.9115 l -50.0822,8.1201 c 6.3853,3.906 49.6679,14.0558 61.4293,17.6713 14.981,4.605 29.4687,10.2862 44.3069,15.0485 3.1652,1.0155 12.8351,3.4936 14.9658,4.7408 z"
       style="fill:#000000;fill-rule:evenodd"
       id="path10" />
    <path
       d="m 196.4174,682.5559 v 0.0505 l 12.89,9.8037 c 12.0437,8.3481 29.1706,19.9321 39.6185,28.3989 l -14.1581,65.8929 c 9.2417,-2.1737 20.5421,-6.672 29.6373,-9.673 24.7259,-8.1586 34.7873,-11.8404 60.8704,-18.2566 l 29.0197,-8.9897 c 0.6669,-0.4232 0.5854,-0.372 1.0041,-0.7882 l -49.7152,-7.45 c -5.2568,-13.7729 -8.6393,-28.3105 -12.8168,-42.766 l -9.4955,-32.2152 c -0.6833,-2.4616 -2.0815,-9.8365 -2.9082,-11.3673 -7.2858,0.449 -34.966,9.4481 -43.1758,12.2799 -8.4662,2.9201 -34.0769,11.8562 -40.7704,15.0801 z"
       style="fill:#000000;fill-rule:evenodd"
       id="path12" />
    <path
       d="m 647.4132,483.4076 c -0.004,13.363 1.5479,23.4831 -4.9966,32.6888 -1.6186,2.276 -4.103,4.797 -6.7756,6.055 -2.9473,1.3875 -7.4336,2.4888 -9.6319,3.635 l 0.0688,9.1457 122.8302,0.1598 c 0.8595,-10.8211 1.2226,-9.4191 -7.2732,-11.3945 -4.7453,-1.1033 -9.111,-5.5277 -11.243,-8.5641 -5.4967,-7.8296 -4.3884,-24.2536 -4.3865,-35.0722 l -3.4557,0.0158 c -14.8048,0.0341 -64.3722,-0.6454 -75.1643,0.1851 z"
       style="fill:#201e1f;fill-rule:evenodd"
       id="path14" />
    <path
       d="m 727.1838,388.4192 c 8.804,0.2671 22.424,-4.1788 29.1763,-7.5681 14.0696,-7.0623 31.7857,-22.2271 35.919,-38.9024 6.2925,-25.3922 -14.6267,-37.2326 -36.5783,-37.2989 -8.9266,-0.0271 -23.4257,1.4443 -26.6136,10.998 -3.2195,9.6458 -2.0127,24.2687 -2.0127,35.1574 0,11.2114 -0.9169,26.9571 0.1093,37.614 z"
       style="fill:#f6f6f6;fill-rule:evenodd"
       id="path16" />
    <path
       d="m 860.9829,588.8609 16.6235,3.431 c -0.3258,-1.6388 1.654,-3.3818 2.6588,-5.1721 l 13.5631,-27.6821 c 12.7618,-29.4858 29.0626,-80.6289 35.6702,-112.4184 1.6079,-7.7386 7.2209,-37.1303 3.0238,-44.1629 -2.0645,-3.4595 -8.0305,-2.2949 -11.2487,0.2444 -1.0332,9.476 -0.73,19.3126 -1.935,28.9654 -3.6767,29.4503 -8.9322,46.9656 -17.3119,74.6401 -4.9763,16.4366 -18.0564,50.5665 -27.7067,64.8458 -2.0663,3.0579 -4.0146,6.3424 -6.2059,9.2537 z"
       style="fill:#201e1f;fill-rule:evenodd"
       id="path18" />
    <path
       d="m 348.7233,595.7811 17.7634,-3.9104 c -2.4358,0.1945 -1.6918,0.2495 -3.0875,-1.1538 -2.3707,-2.3833 -6.6411,-6.9903 -8.4365,-9.805 -0.2716,-0.425 -0.3221,-0.5601 -0.5791,-0.9801 -0.9883,-1.6142 -2.0297,-2.9214 -2.9821,-4.4516 -13.4027,-21.5406 -19.8082,-40.6769 -28.3489,-65.2885 -10.8571,-31.2888 -19.4938,-72.3528 -19.538,-105.1407 -12.3115,-3.8605 -13.4502,-0.8943 -12.3267,16.8748 0.6132,9.7065 2.3947,19.3543 4.3847,28.6616 6.8842,32.2101 15.9635,59.1698 26.839,89.1866 4.3638,12.0444 9.176,23.6953 14.5439,35.1985 1.8169,3.8927 3.5176,7.1248 5.5271,10.9449 2.1358,4.0594 5.6881,8.696 6.2407,9.8637 z"
       style="fill:#201e1f;fill-rule:evenodd"
       id="path20" />
    <path
       d="m 433.4892,322.1846 3.5365,0.1693 73.7882,-0.0297 1.0692,0.002 2.7054,-0.004 0.1756,-12.7232 -2.3461,-0.008 -76.4608,0.002 -2.4851,0.0979 z"
       style="fill:#201e1f;fill-rule:evenodd"
       id="path22" />
    <path
       d="m 647.4227,476.6648 78.4267,0.2173 0.1667,-12.7429 -78.6174,0.0253 z"
       style="fill:#201e1f;fill-rule:evenodd"
       id="path24" />
    <path
       d="m 433.4709,298.406 0.004,6.9505 0.0164,2.5229 81.1991,0.0979 0.0568,-12.2054 -81.2553,0.009 z"
       style="fill:#201e1f;fill-rule:evenodd"
       id="path26" />
    <path
       d="m 400.1335,646.0994 c 1.347,2.1661 2.2836,10.8489 2.888,14.0949 0.4925,2.6461 1.5055,5.1122 -0.1472,6.6481 -1.5592,1.4493 -4.5671,1.6798 -6.7042,0.2002 -5.7595,-3.9881 -7.7753,-19.3656 3.9634,-20.9432 z m -11.2284,28.7898 c -1.6887,0.8147 -4.2255,6.6417 -4.7996,8.4921 6.1295,5.5788 29.5874,2.4433 34.6724,-7.0276 1.5978,-2.9764 1.7651,-6.8488 -0.389,-9.0844 -3.0212,-3.1349 -3.3818,-0.9555 -4.5065,-7.2234 l -2.624,-15.164 c 0.1029,-2.9 1.3091,-2.1838 2.4118,-4.2761 -1.085,-0.7161 0.2608,-0.2658 -1.313,-0.4401 l -12.7068,2.125 c -7.3717,1.33 -17.3207,3.1867 -19.1477,13.9863 -0.8261,4.8798 1.1342,10.302 3.5453,12.7138 8.4504,8.4504 24.8504,-2.3556 24.7367,5.2833 -0.0821,5.4582 -11.6238,8.631 -16.6159,5.8618 -2.5659,-1.4235 -1.8308,-2.5551 -3.2637,-5.2467 z"
       style="fill:#fcfcfc;fill-rule:evenodd"
       id="path28" />
    <path
       d="m 647.4063,462.2927 78.5965,0.2494 -0.0138,-12.2085 -78.5556,0.002 z"
       style="fill:#201e1f;fill-rule:evenodd"
       id="path30" />
    <path
       d="m 647.7991,648.1929 c -1.2871,-5.4709 -2.6531,3.4904 -2.6758,-11.865 -0.0196,-12.8294 2.4642,-6.1535 3.6451,-10.6929 -1.8503,-0.8002 -16.489,-1.0086 -18.3861,0 0.9903,4.2381 3.4109,-3.8536 3.4052,9.0895 -0.002,4.1219 0.5494,8.6588 -3.3205,9.5454 -14.4107,3.3029 -18.8939,-27.307 -4.8792,-30.5947 10.7277,-2.5166 15.2784,8.0178 16.6198,8.5786 0.4534,-2.9467 -0.8374,-9.7128 -1.1204,-13.1375 -1.7998,0.1389 -3.5718,0.9308 -5.8036,0.6062 -7.0314,-1.023 -12.6904,-2.1048 -20.0704,0.5514 -16.1928,5.8276 -13.9187,31.5066 2.6821,36.6023 6.8703,2.1093 21.898,1.3256 29.9038,1.3167 z"
       style="fill:#fcfcfc;fill-rule:evenodd"
       id="path32" />
    <path
       d="m 791.4234,635.4911 c 0.641,2.7838 -1.2435,11.6358 -1.7342,15.0062 -0.4004,2.7503 -0.1541,5.3781 -2.1497,6.4611 -9.9452,5.3983 -13.4602,-22.7133 3.8839,-21.4673 z m -1.5093,-11.9951 c 1.1739,3.1993 4.2476,0.2918 2.3751,8.0797 l -0.8993,0.2741 c -2.8601,0.4736 -4.2823,-0.3423 -7.3509,-0.341 -17.2967,0.009 -18.573,16.1176 -14.3917,22.4076 3.049,4.5867 6.4364,5.6136 13.6661,6.6442 4.3815,0.624 14.6001,2.6758 18.2244,2.4137 -0.3997,-3.1526 -2.869,0.0562 -1.5731,-8.6013 0.504,-3.3641 1.0073,-6.8634 1.498,-10.2136 0.9801,-6.6986 2.2987,-13.6649 2.9132,-20.3628 l -10.722,-0.761 c -1.1032,-0.0858 -2.7288,-0.2639 -3.7398,0.4604 z"
       style="fill:#fcfcfc;fill-rule:evenodd"
       id="path34" />
    <path
       d="m 325.7593,649.161 c 2.2829,3.553 3.4481,-3.1835 6.0752,12.7631 l -10.0203,-7.7456 c -1.8081,-2.1504 -0.139,-2.1541 0.1282,-4.5501 l -21.5848,4.8797 c 1.2675,2.1352 -0.3537,0.0764 1.6748,1.3287 1.9849,1.2258 1.5276,-0.0227 2.965,6.1088 l 4.3562,19.6832 c 1.8908,8.5331 0.3101,6.2249 -1.3237,9.2379 0.8728,0.4534 -0.0966,0.2419 1.2081,0.3025 l 9.0377,-2.0266 c 0.108,-0.0498 0.2855,-0.1597 0.3707,-0.2027 0.0866,-0.0423 0.2501,-0.1332 0.3676,-0.2122 -1.2769,-2.3461 -2.9694,0.401 -4.211,-5.013 l -5.1734,-24.0243 23.4288,16.9879 c 5.5643,4.5324 0.5924,7.7204 0.396,8.6828 0.1553,0.0448 0.3902,-0.0878 0.4799,0.0796 0.4111,0.7685 10.0456,-1.5738 10.9739,-2.5943 -3.7821,-3.7803 -2.677,4.1592 -6.6934,-15.0675 -1.0181,-4.8722 -3.7393,-14.0595 -3.2903,-18.8098 1.7083,-1.3976 1.6571,-0.6745 2.0247,-2.619 -2.2444,-0.0713 -10.1233,1.2744 -11.1899,2.8109 z"
       style="fill:#fcfcfc;fill-rule:evenodd"
       id="path36" />
    <path
       d="m 689.5584,649.161 c 0.6145,0.4465 0.4654,0.4876 1.6798,0.8179 0.1421,0.0385 14.3179,1.6609 15.8234,0.7862 -1.1354,-4.1447 -4.2229,2.6088 -2.6056,-13.8638 0.5001,-5.097 3.6521,-9.9256 8.4017,-7.5953 0.9808,3.2915 -0.1591,16.652 -0.8948,18.3735 -1.2391,2.9006 -2.5823,1.0508 -3.1501,3.6205 l 17.4831,1.6451 c -0.2975,-3.9154 -2.1333,-0.1762 -2.641,-4.3461 -1.0155,-8.3348 7.3515,-26.9325 -7.9781,-25.9587 -4.7357,0.3012 -7.1829,2.2962 -10.1397,4.2009 l -0.9226,-5.5044 -12.7864,-0.0467 c 0.5412,5.4216 3.5883,-5.325 1.9084,13.9914 -0.1818,2.0903 -0.4534,9.714 -1.4922,11.3541 z"
       style="fill:#fcfcfc;fill-rule:evenodd"
       id="path38" />
    <path
       d="m 893.8144,661.9935 c 0.005,4.5053 -1.7575,10.1846 -4.0998,12.65 -4.0196,4.2312 -7.7134,0.0739 -7.9818,-5.1386 -0.7963,-15.4811 12.0696,-19.4496 12.0816,-7.5114 z m -10.4251,-11.505 c -8.5237,1.258 -15.7312,8.9455 -13.0403,19.3094 1.8876,7.2682 12.3513,12.045 21.7174,11.027 8.6247,-0.9372 15.5013,-9.4267 12.2856,-19.3966 -2.1699,-6.7276 -11.5145,-12.3342 -20.9627,-10.9398 z"
       style="fill:#fcfcfc;fill-rule:evenodd"
       id="path40" />
    <path
       d="m 530.4997,628.6107 c 8.9739,-3.2567 10.6841,17.8386 4.6234,19.7654 -8.1081,2.5778 -11.0978,-17.4155 -4.6234,-19.7654 z m -0.5621,-4.8545 c -8.7206,1.4026 -15.8821,7.476 -14.5395,17.6611 2.5116,19.0612 37.9191,15.2879 34.6118,-5.8131 -1.4064,-8.972 -9.8505,-13.4918 -20.0723,-11.848 z"
       style="fill:#fcfcfc;fill-rule:evenodd"
       id="path42" />
    <path
       d="m 435.9616,639.9111 c 8.4845,-3.8712 11.9667,18.3887 6.0493,20.6798 -7.8649,3.0452 -12.7396,-17.6276 -6.0493,-20.6798 z m 3.6773,-4.8778 c -8.7629,0.6624 -17.4925,4.5836 -18.1998,14.6487 -0.7458,10.6159 6.6133,16.9494 17.1421,15.9017 26.455,-2.6321 20.7637,-32.0395 1.0577,-30.5504 z"
       style="fill:#fcfcfc;fill-rule:evenodd"
       id="path44" />
    <path
       d="m 750.3133,639.5771 c -0.1194,4.9265 -3.6521,13.0516 -8.1006,9.2044 -4.6,-3.9786 2.725,-9.0914 8.1006,-9.2044 z m -14.1278,-13.4079 -2.2211,9.2424 c 3.426,-1.1197 3.7431,-4.5508 8.9727,-5.4595 5.8277,-1.013 8.1656,0.8051 7.8372,6.2665 -8.1662,0.6448 -20.2978,1.6685 -20.7581,10.2781 -0.5154,9.6458 13.3162,10.3057 18.9399,5.0079 1.1942,3.7279 0.7029,4.1592 5.1267,4.6423 2.5507,0.2785 6.5773,1.3868 8.506,0.4996 -1.1166,-4.8084 -3.5574,3.4165 -1.714,-11.9263 1.3249,-11.0295 3.8504,-20.6659 -17.4735,-18.5737 z"
       style="fill:#fcfcfc;fill-rule:evenodd"
       id="path46" />
    <path
       d="m 672.3185,633.7481 c 0.2122,2.9928 -0.1882,5.7892 -1.6527,7.8966 -0.9574,1.3786 -3.6445,3.7291 -5.9072,1.7183 -4.5432,-4.036 2.8134,-9.128 7.5599,-9.6149 z m -15.0024,-13.1217 c -0.2002,2.9789 -1.9982,7.6692 -1.0673,9.9755 2.0411,-1.1159 1.4449,-2.007 3.5252,-3.5732 4.982,-3.7512 12.7119,-5.1475 12.8262,3.1817 -3.6995,1.143 -19.2494,1.9248 -20.0066,11.0137 -0.7623,9.1526 11.632,11.1514 19.1609,4.8355 1.6445,2.965 0.5665,3.7071 4.8318,3.9275 3.0408,0.1572 6.1081,0.2791 9.1653,0.4142 -1.246,-5.5283 -3.3439,2.9834 -2.5387,-12.057 0.2298,-4.2861 1.4594,-10.7181 -1.0623,-13.9957 -6.2785,-8.1624 -18.1505,-1.0035 -24.8345,-3.7222 z"
       style="fill:#fcfcfc;fill-rule:evenodd"
       id="path48" />
    <path
       d="m 907.5519,672.9877 c -1.2864,1.5106 -2.0733,7.7393 -2.6145,10.3936 1.0894,0.9889 -0.1901,0.1421 1.5283,0.6347 4.8482,1.3887 8.5205,3.2416 12.4258,4.0752 14.4012,3.0748 21.9416,-9.5082 13.9244,-16.0843 l -9.121,-5.2889 c -2.0222,-1.0597 -1.8277,-0.7174 -2.4851,-2.5855 2.1655,-3.6502 8.1315,-2.456 12.3823,4.475 l 0.694,1.0742 c 1.2454,-1.5681 1.9546,-6.1517 2.0373,-8.069 -5.0351,1.1077 -11.1318,-5.683 -19.9346,-3.5946 -7.3718,1.7487 -10.0298,10.6399 -3.9072,14.5648 2.8349,1.8175 17.7009,7.577 8.9543,10.7933 -5.5959,2.0569 -11.7936,-2.2684 -13.1148,-7.6673 z"
       style="fill:#fcfcfc;fill-rule:evenodd"
       id="path50" />
    <path
       d="m 819.4572,647.9586 c 0.6467,-8.7813 11.7369,-8.9556 9.6503,-0.1054 z m 13.5809,20.7979 c 1.4115,-2.4774 4.72,-8.0247 5.2745,-10.7466 -2.1731,1.0427 -1.0136,0.8305 -2.6695,2.1428 -6.511,5.1601 -17.555,3.7228 -16.4776,-8.3121 l 21.3915,-0.4149 c -3.9079,-23.8627 -38.0005,-16.1632 -33.1732,3.2555 0.9972,4.0108 3.205,6.012 5.3054,8.0632 6.5413,6.3891 16.1752,2.8867 20.3489,6.0121 z"
       style="fill:#fcfcfc;fill-rule:evenodd"
       id="path52" />
    <path
       d="m 356.3861,663.0564 c -0.7123,-11.267 8.3898,-9.4608 9.0472,-3.5555 z m 20.57,14.2661 c 0.3214,-2.6985 1.748,-9.5347 0.7205,-11.4899 -2.2728,1.2043 0.0802,1.4626 -3.7177,5.2776 -6.9424,6.9739 -14.7139,2.941 -16.1588,-4.4649 l 19.4787,-7.9603 c -1.6142,-6.0234 -9.3737,-9.5574 -17.4281,-8.0683 -17.6555,3.2631 -19.478,23.1478 -4.7844,28.6452 9.6111,3.5965 14.5824,-2.4617 21.8898,-1.9394 z"
       style="fill:#fcfcfc;fill-rule:evenodd"
       id="path54" />
    <path
       d="m 572.9385,641.0119 c 0.569,7.4867 -10.1788,7.0989 -14.6064,3.3963 -2.54,-2.1238 -1.3369,-3.7279 -3.7797,-4.3979 l 1.2587,11.4577 c 5.5978,-2.6189 21.1957,3.4374 27.3069,-7.5145 2.7351,-4.9019 0.396,-10.2748 -3.748,-12.0349 -3.4759,-1.4765 -11.7609,-1.5977 -13.7786,-4.1453 l 0.5608,-2.3448 c 8.8912,-2.0019 9.4558,0.3562 13.6068,3.7613 0.7382,-1.7234 0.036,-5.6426 -0.2627,-7.8327 -0.7762,-0.3947 0.0675,-0.2009 -1.1564,-0.2766 l -13.4785,0.3618 c -12.65,1.9243 -13.5013,13.9415 -4.8893,16.5276 4.2319,1.2706 9.058,1.328 12.9664,3.042 z"
       style="fill:#fcfcfc;fill-rule:evenodd"
       id="path56" />
    <path
       d="m 347.3604,596.4833 c 1.1052,-0.3921 0.5432,0.0992 1.3629,-0.7022 -0.5526,-1.1677 -4.1049,-5.8043 -6.2407,-9.8637 -2.0095,-3.8201 -3.7102,-7.0522 -5.5271,-10.9449 -5.3679,-11.5032 -10.1801,-23.1541 -14.5439,-35.1985 -10.8755,-30.0168 -19.9548,-56.9765 -26.839,-89.1866 -1.99,-9.3073 -3.7715,-18.9551 -4.3847,-28.6616 -1.1235,-17.7691 0.0152,-20.7353 12.3267,-16.8748 0.0442,32.7879 8.6809,73.8519 19.538,105.1407 8.5407,24.6116 14.9462,43.7479 28.3489,65.2885 0.9524,1.5302 1.9938,2.8374 2.9821,4.4516 0.257,0.42 0.3075,0.5551 0.5791,0.9801 1.7954,2.8147 6.0658,7.4217 8.4365,9.805 1.3957,1.4033 0.6517,1.3483 3.0875,1.1538 -1.0218,-1.3066 -2.5703,-2.1781 -3.8839,-3.5567 -7.755,-8.1397 -16.3286,-23.444 -20.9324,-33.6115 -16.021,-35.3803 -30.253,-80.7879 -34.9041,-120.085 -1.1715,-9.901 -0.941,-20.0476 -2.0474,-29.6209 -2.1017,-2.3214 -9.2202,-4.6183 -12.429,-1.6217 -10.8243,10.1081 12.0166,86.4527 15.2721,97.2246 7.6704,25.3789 16.8723,49.7297 27.5501,73.4926 l 8.8179,16.861 c 1.3382,2.0764 2.5299,3.2176 3.4304,5.5302 z"
       style="fill:#343233;fill-rule:evenodd"
       id="path58" />
    <path
       d="m 857.3757,588.2603 c 0.6391,0.437 0.3871,0.4155 1.4948,0.6069 0.0391,0.007 1.8971,6e-4 2.1124,-0.006 l 7.1312,-8.0551 c 2.1913,-2.9113 4.1396,-6.1958 6.2059,-9.2537 9.6503,-14.2793 22.7304,-48.4092 27.7067,-64.8458 8.3797,-27.6745 13.6352,-45.1898 17.3119,-74.6401 1.205,-9.6528 0.9018,-19.4894 1.935,-28.9654 3.2182,-2.5393 9.1842,-3.7039 11.2487,-0.2444 4.1971,7.0326 -1.4159,36.4243 -3.0238,44.1629 -6.6076,31.7895 -22.9084,82.9326 -35.6702,112.4184 l -13.5631,27.6821 c -1.0048,1.7903 -2.9846,3.5333 -2.6588,5.1721 l 0.7459,0.0733 c 11.1072,-18.7903 13.2834,-24.2492 21.6094,-44.905 13.2145,-32.7847 33.9158,-97.0389 35.2155,-132.5146 0.1629,-4.4497 0.1137,-11.2581 -2.4093,-13.9736 -2.5741,-2.7712 -10.6285,-1.2012 -12.595,1.6154 l -2.0493,28.7967 c -2.9139,25.3518 -9.4899,51.8902 -17.5222,75.547 -7.5479,22.2296 -19.4161,55.5846 -34.404,74.14 -1.7714,2.1932 -5.4721,7.1627 -8.8217,7.1892 z"
       style="fill:#353334;fill-rule:evenodd"
       id="path60" />
    <path
       d="m 488.9822,657.7163 c 0.4673,-1.306 2.7143,-8.77 2.048,-10.2585 -1.7739,1.3913 -0.9182,2.6474 -3.772,4.8785 -12.2035,9.5366 -22.3066,-15.0024 -10.4252,-18.4423 7.7715,-2.2495 9.2417,5.3907 11.2278,5.2429 l -3.4658,-10.4302 c -3.3439,1.7133 -28.4026,-1.1001 -24.2428,18.5086 2.8659,13.5051 18.1386,14.1998 28.63,10.501 z"
       style="fill:#fcfcfc;fill-rule:evenodd"
       id="path62" />
    <path
       d="m 846.2401,642.7448 c 0.4654,2.7143 3.0123,0.6208 1.7253,6.7219 -0.5817,2.7597 -3.2164,17.0113 -4.5811,18.4063 -1.0079,1.0307 0.1623,-0.1099 -1.2952,0.8254 -1.7715,1.1367 -0.4775,-0.701 -1.5763,1.3155 l 3.791,1.2201 c 3.6319,0.7275 10.6607,2.6764 13.3636,2.5267 -0.6062,-3.5927 -4.7856,0.1478 -0.4319,-15.0429 0.8513,-2.97 1.8339,-4.8848 4.1491,-6.0348 3.6975,-1.8364 4.6909,0.1718 6.7225,1.599 l 3.8068,-6.7983 c -6.9998,-2.6618 -7.6054,-1.3255 -12.4776,1.9009 l -0.5715,-5.4052 c -3.0528,-0.3789 -10.6986,-2.3253 -12.6247,-1.2346 z"
       style="fill:#fcfcfc;fill-rule:evenodd"
       id="path64" />
    <path
       d="m 325.8616,737.7805 43.7505,7.037 -3.4841,-17.0668 c -6.4579,-0.003 -35.9007,7.3831 -40.2664,10.0298 z"
       style="fill:#000000;fill-rule:evenodd"
       id="path66" />
    <path
       d="m 869.4895,744.6925 43.4367,-6.8116 c -3.4488,-2.4174 -35.0665,-10.7118 -40.1294,-10.0936 z"
       style="fill:#000000;fill-rule:evenodd"
       id="path68" />
    <path
       d="m 492.6773,628.8431 c 2.269,4.8772 2.5715,-5.8851 4.6322,13.416 2.0985,19.6505 -0.7004,8.8331 -1.8327,14.3349 1.8074,0.3051 15.7141,-0.7553 17.6674,-2.0859 -3.1317,-4.5614 -2.8128,4.463 -4.7004,-12.7011 -0.3884,-3.5271 -0.9087,-12.3494 -1.779,-15.1344 -1.2087,-0.4648 -12.5111,1.0856 -13.9875,2.1705 z"
       style="fill:#fcfcfc;fill-rule:evenodd"
       id="path70" />
    <path
       d="m 791.4234,635.4911 c -17.3441,-1.246 -13.8291,26.8656 -3.8839,21.4673 1.9956,-1.083 1.7493,-3.7108 2.1497,-6.4611 0.4907,-3.3704 2.3752,-12.2224 1.7342,-15.0062 z"
       style="fill:#000000;fill-rule:evenodd"
       id="path72" />
    <path
       d="m 435.9616,639.9111 c -6.6903,3.0522 -1.8156,23.725 6.0493,20.6798 5.9174,-2.2911 2.4352,-24.551 -6.0493,-20.6798 z"
       style="fill:#000000;fill-rule:evenodd"
       id="path74" />
    <path
       d="m 893.8144,661.9935 c -0.012,-11.9382 -12.8779,-7.9697 -12.0816,7.5114 0.2684,5.2125 3.9622,9.3698 7.9818,5.1386 2.3423,-2.4654 4.1043,-8.1447 4.0998,-12.65 z"
       style="fill:#000000;fill-rule:evenodd"
       id="path76" />
    <path
       d="m 400.1335,646.0994 c -11.7387,1.5776 -9.7229,16.9551 -3.9634,20.9432 2.1371,1.4796 5.145,1.2491 6.7042,-0.2002 1.6527,-1.5359 0.6397,-4.002 0.1472,-6.6481 -0.6044,-3.246 -1.541,-11.9288 -2.888,-14.0949 z"
       style="fill:#000000;fill-rule:evenodd"
       id="path78" />
    <path
       d="m 530.4997,628.6107 c -6.4744,2.3499 -3.4847,22.3432 4.6234,19.7654 6.0607,-1.9268 4.3505,-23.0221 -4.6234,-19.7654 z"
       style="fill:#000000;fill-rule:evenodd"
       id="path80" />
    <path
       d="m 498.2978,613.8634 c -2.504,1.0338 -4.7724,3.0256 -3.6515,6.5262 0.8197,2.5576 4.3392,4.3619 7.9282,2.9346 5.9432,-2.3631 3.748,-12.7756 -4.2767,-9.4608 z"
       style="fill:#fcfcfc;fill-rule:evenodd"
       id="path82" />
    <path
       d="m 750.3133,639.5771 c -5.3756,0.113 -12.7006,5.2258 -8.1006,9.2044 4.4485,3.8472 7.9812,-4.2779 8.1006,-9.2044 z"
       style="fill:#000000;fill-rule:evenodd"
       id="path84" />
    <path
       d="m 672.3185,633.7481 c -4.7465,0.4869 -12.1031,5.5789 -7.5599,9.6149 2.2627,2.0108 4.9498,-0.3397 5.9072,-1.7183 1.4645,-2.1074 1.8649,-4.9038 1.6527,-7.8966 z"
       style="fill:#000000;fill-rule:evenodd"
       id="path86" />
    <path
       d="m 819.4572,647.9586 9.6503,-0.1054 c 2.0866,-8.8502 -9.0036,-8.6759 -9.6503,0.1054 z"
       style="fill:#000000;fill-rule:evenodd"
       id="path88" />
    <path
       d="m 356.3861,663.0564 9.0472,-3.5555 c -0.6574,-5.9053 -9.7595,-7.7115 -9.0472,3.5555 z"
       style="fill:#000000;fill-rule:evenodd"
       id="path90" />
  </g>
</svg>
