<?xml version="1.0" encoding="UTF-8" standalone="no"?>
<svg
   version="1.1"
   width="451.4165"
   height="488.46759"
   id="svg104"
   viewBox="0 0 451.4165 488.46759"
   sodipodi:docname="2116948d06fe75511d127a2c1a2d2933.cdr"
   xmlns:inkscape="http://www.inkscape.org/namespaces/inkscape"
   xmlns:sodipodi="http://sodipodi.sourceforge.net/DTD/sodipodi-0.dtd"
   xmlns="http://www.w3.org/2000/svg"
   xmlns:svg="http://www.w3.org/2000/svg">
  <defs
     id="defs108" />
  <sodipodi:namedview
     id="namedview106"
     pagecolor="#ffffff"
     bordercolor="#666666"
     borderopacity="1.0"
     inkscape:pageshadow="2"
     inkscape:pageopacity="0.0"
     inkscape:pagecheckerboard="0" />
  <g
     id="Layer1000"
     transform="translate(-71.7276,-176.7259)">
    <g
       id="Layer1001">
      <path
         d="m 162.285,473.3927 c 1.0598,6.2755 15.734,24.9704 19.1328,28.8407 22.4293,25.5398 48.5248,44.1867 84.0933,55.6642 25.673,8.2854 53.8972,10.056 82.2202,5.5919 19.4511,-3.0661 35.0373,-9.8248 51.4123,-18.5019 4.1232,-2.184 11.3225,-7.5184 14.5899,-8.5709 -3.9365,-11.007 -35.0754,-35.8025 -45.7089,-43.3708 -16.7385,-11.9135 -36.0953,-21.8082 -58.8527,-28.6983 -33.0273,-10.0007 -80.4469,-13.7866 -115.2883,-3.2103 -6.3372,1.9238 -10.775,3.2176 -16.7023,5.6282 -4.3544,1.7706 -10.6815,5.5411 -14.8963,6.6272 z"
         style="fill:#0d670d;fill-rule:evenodd"
         id="path2" />
      <path
         d="m 310.4629,420.1909 c 8.9917,-4.4297 11.0388,18.7448 3.3989,21.3295 -9.6734,3.2728 -11.0805,-17.5454 -3.3989,-21.3295 z m -110.1452,13.2245 c -1.9501,-2.8086 -3.3245,-6.3208 -2.6065,-11.3796 1.6455,-11.5827 10.9454,-7.7831 9.7459,4.2728 -0.4941,4.9654 -1.9809,7.6916 -7.1394,7.1068 z m 129.5927,-28.3275 c 12.3814,-2.7896 20.0049,5.6571 20.363,11.4702 L 334.058,416.462 c -2.3136,-3.4695 -4.0379,-6.6562 -4.1476,-11.3741 z m 28.6638,10.6026 c -3.1232,-5.5692 -7.8293,-18.3867 -3.3199,-24.9758 7.6335,-1.1315 23.0865,-1.1206 28.4245,1.417 1.5131,6.6635 1.0988,17.2416 -1.1477,23.547 z m -181.431,-35.0436 c 4.1423,-0.4216 17.317,-1.5902 20.5852,-0.7334 l -0.0897,7.8257 -20.7693,0.3572 z m 48.6517,-3.2139 -0.3681,9.5229 -22.7048,0.3454 c -0.4433,-6.8974 0.0571,-4.3689 0.2846,-7.5066 0.0263,-0.3554 0.1152,-0.4433 0.1868,-0.8812 z m 33.2839,-1.8476 -0.5793,10.531 -27.0846,0.3164 0.4206,-9.3896 z m -61.2035,-10.0524 -0.5684,8.3316 -20.3568,1.641 0.049,-7.3552 z m 88.3933,-13.7848 c 2.9954,-1.3563 8.8239,-0.8712 12.8564,-0.7298 1.3291,2.8222 7.2048,17.9588 6.8167,20.9941 -0.436,3.416 -2.1495,2.271 -6.3425,2.2755 -15.2961,0.0118 -14.9353,5.3381 -13.3306,-22.5398 z m -60.4764,10.4304 -0.4107,9.4413 -22.8454,1.4723 0.0599,-8.1739 z m 33.38,-3.6382 -0.6718,10.5002 -27.0438,1.8368 0.155,-9.4114 z m -61.3187,-6.3081 -0.3381,8.2256 -20.6886,2.3073 0.4216,-7.2927 z m 28.0094,-4.8983 -0.2013,9.1348 c -5.0923,0.6863 -19.1337,3.4596 -23.1563,2.7606 l -0.0734,-7.9354 z m 33.2803,-5.4913 -0.6065,10.4449 -27.0765,3.1849 0.2176,-9.3316 z m -61.2942,-3.067 -0.3209,8.0488 -20.6523,3.7034 0.0653,-7.1422 z m 4.7986,-0.6183 c 2.8921,-2.0072 20.2824,-5.2891 23.2842,-5.678 l -0.097,9.0306 -23.2805,3.9899 z m 56.4375,-13.016 -0.184,10.2844 -27.4001,4.7343 -0.1133,-8.9871 z m -87.6462,10.7141 c -0.7797,5.7651 -1.0852,66.2705 -0.1106,68.2025 3.038,1.4034 21.2887,1.2719 26.353,1.3925 -2.4224,5.0361 -4.0525,1.9927 -10.1557,4.0552 l -1.058,14.608 4.9364,1.3708 c 1.7298,11.6652 4.0969,18.4193 16.7829,18.403 13.7549,-0.0181 15.8211,-4.9011 18.0604,-17.9388 2.9691,-0.5331 22.0122,0.3934 24.1943,1.2212 3.4252,5.4776 1.2774,13.7657 12.2427,14.1284 11.0533,0.3653 13.8782,-0.9057 16.7113,-10.5265 l 15.3578,0.6174 c 2.7171,-11.1285 1.3681,-16.6896 8.998,-23.9007 8.2373,-7.7849 17.0531,-1.8694 19.7656,6.6934 -1.2674,-0.7198 -12.5101,-12.5319 -21.1554,-0.3644 -6.8612,9.658 -8.319,39.6618 14.938,39.1677 11.3424,-0.2411 12.7903,-7.3117 16.7412,-15.0821 l 26.2379,-0.1678 c 2.5257,3.0607 2.8711,6.2955 6.1893,9.3099 5.3108,4.824 17.0495,6.2029 23.6504,-8.4604 2.1976,-4.882 1.1468,-1.1124 4.3997,-3.7624 0.9592,-4.9763 1.4995,-15.1637 0.3046,-19.9505 -2.0625,-8.2664 -3.8575,-1.3781 -5.1268,-16.9072 -1.0806,-13.2245 -3.5656,-13.0523 -21.917,-22.848 -4.6599,-2.4878 -34.176,-2.4352 -42.0688,-2.3771 -10.5845,0.077 -10.1729,-0.3038 -13.453,-8.8376 -1.8087,-4.7043 -5.0062,-11.4847 -5.6218,-16.3459 6.8221,-1.3391 25.246,1.7379 32.904,2.0117 2.9909,-6.3679 3.3662,-5.2872 7.3435,-8.8048 -9.7142,-2.146 -61.8245,-9.0216 -67.828,-3.1768 -4.0462,3.9392 -2.1042,29.4926 -2.1106,36.6284 -0.0118,12.6905 -0.3255,24.8117 -0.7216,37.4407 -6.1178,0.8703 -40.5703,-1.1161 -51.0859,-1.5431 -7.105,-0.2883 -10.871,0.9356 -13.4847,-4.0389 l 57.083,1.1859 c 1.4152,-14.5047 -1.7597,-79.136 0.9084,-85.8666 4.1613,-3.242 28.2958,0.5521 35.6891,0.9583 27.7899,1.5276 25.7673,0.4197 28.3683,11.414 l 6.2501,0.3418 c -1.048,-24.5851 -18.7194,-16.6542 -46.4549,-20.4002 -4.1622,-0.5621 -6.5674,-1.1297 -12.3316,-1.2666 -2.2447,-0.0534 -4.6445,0.1043 -6.8348,-0.3136 -12.3588,-2.3581 -7.0153,-1.4869 -16.9008,0.7452 l -76.0554,19.5063 c -1.3073,0.2548 -1.3417,0.2357 -2.4224,0.5376 l -2.9437,0.8731 c -2.7633,0.7516 -2.3554,0.378 -4.5684,2.067 z"
         style="fill:#1e4623;fill-rule:evenodd"
         id="path4" />
      <path
         d="m 132.1561,315.7001 c -4.2438,-6.0933 -5.1441,-27.2197 -4.329,-35.5758 2.8911,4.271 5.1984,10.0288 6.3507,16.0449 0.9646,5.0407 0.4469,15.7993 -2.0217,19.5309 z m 16.2625,23.858 c 5.931,-12.7441 26.46,-37.2721 42.3073,-43.0389 -1.4678,2.5385 -2.7561,3.8648 -4.6998,6.4414 -1.7715,2.349 -2.8458,3.7079 -4.6726,6.0986 -8.1721,10.6988 -20.888,24.6667 -32.9349,30.4989 z m -11.1938,-23.9025 c 1.1723,-13.0377 6.8313,-23.7601 16.3143,-31.8932 -1.6319,8.6925 -7.2374,28.4681 -16.3143,31.8932 z m 0.8414,-32.9756 c -7.7759,-6.0008 -9.6172,-19.209 -9.2519,-32.2232 1.3228,1.0689 0.3763,-0.003 1.7362,1.8132 l 5.6562,12.0332 c 1.8722,5.7152 3.465,12.0306 1.8595,18.3768 z m 4.329,1.4732 c 0.3726,-11.9571 4.2936,-25.9369 10.3878,-33.4879 0.4388,13.191 -1.3826,28.1081 -10.3878,33.4879 z m 78.776,-31.2568 c 10.1857,-9.3053 22.3522,-7.1349 36.0726,-2.8104 -9.4839,5.134 -24.9205,5.0796 -36.0726,2.8104 z m -77.8305,-1.1568 c -1.8612,-20.0412 0.5803,-19.8681 3.3635,-33.526 0.5576,0.8513 0.1532,-0.6436 1.0571,2.2094 1.7724,5.5973 3.4333,28.9214 -4.4206,31.3166 z m 105.2506,-13.1928 c 2.2909,-2.2221 6.3607,-2.727 9.2056,-3.4405 10.6298,-2.6645 17.4284,-0.2276 28.3475,4.4214 -3.8422,1.5612 -14.1493,2.7071 -18.8074,2.6709 -7.4405,-0.058 -12.5092,-2.3436 -18.7457,-3.6518 z m -109.4418,11.3415 c -8.3796,-3.8802 -12.1139,-19.4483 -11.5962,-30.5641 6.2745,6.0235 11.4539,19.2725 11.5962,30.5641 z m 81.8295,-5.2881 c 2.5503,-10.5193 15.0187,-21.8808 25.2569,-24.7148 -1.4143,4.1341 -7.5256,12.4159 -10.0831,14.9987 -2.9102,2.9374 -10.2736,7.7859 -15.1738,9.7161 z m 28.8253,-12.638 c 4.0262,-11.9698 18.8164,-20.9741 30.8579,-24.1291 -4.1659,7.7133 -18.743,20.8463 -30.8579,24.1291 z m -111.8107,-6.1005 c -3.0507,-8.406 -8.1403,-9.9019 -7.5383,-29.0837 3.2565,2.1097 6.3824,9.037 7.745,12.6099 1.058,2.7733 1.5685,5.2193 1.7081,8.3144 0.174,3.863 0.2674,5.8983 -1.9148,8.1594 z m 137.7983,3.2764 c -4.6998,0.2231 -0.7008,0.6718 -2.0153,-1.6681 -0.02,-0.0363 -0.0454,-0.2321 -0.0671,-0.2602 l -4.8304,-0.2974 c 2.1994,-4.358 1.0009,-2.7161 2.7579,-3.5819 4.6109,-1.4841 10.3116,-11.8402 18.6124,-18.0223 1.6509,-1.2302 2.2393,-1.5947 3.6291,-2.4723 l 3.2837,-2.5412 c 0.0825,-0.3019 0.3092,-0.3236 0.4515,-0.4959 -10.1702,1.0571 -28.0873,6.8013 -35.127,11.5066 -4.7587,3.1803 -8.3534,6.8212 -11.4476,11.637 -1.4043,2.1849 -2.7824,5.0598 -3.8821,7.572 -1.6001,3.6554 -1.6654,3.834 -5.891,4.8439 9.4911,-16.268 11.628,-15.6198 19.1201,-25.2415 -6.241,1.1877 -18.4964,6.8566 -23.6631,9.9817 -7.1059,4.2972 -12.2055,9.3651 -16.3976,17.4112 -8.2782,15.8854 0.006,6.9245 -15.7966,17.9551 -6.212,4.3354 -13.6579,9.9164 -18.2289,14.8029 l -12.6996,12.6217 c -1.4841,1.7171 -2.3164,2.8114 -3.883,4.5847 -8.6172,9.7568 -21.1654,27.9513 -27.2922,39.4959 l -11.1693,22.2624 c 0.6845,-6.9826 2.8558,-15.919 4.0652,-23.2198 1.2112,-7.309 1.1078,-4.0824 5.6562,-8.1938 7.7288,-6.9844 11.5138,-13.9562 14.6561,-25.3131 1.8295,-6.6173 4.8222,-14.9136 6.0289,-21.2072 -3.7778,1.6691 -5.0162,4.0679 -8.0597,5.591 1.6156,-7.4259 2.9383,-11.2799 3.5829,-20.0702 0.5168,-7.0506 1.6709,-14.4312 1.6709,-21.1954 -3.0897,2.8223 -3.3554,4.2375 -5.5049,5.5348 0.4932,-7.464 -0.0598,-13.3505 -1.0109,-20.4746 l -1.9845,-14.0214 c -0.1124,-0.9003 -0.2221,-1.8268 -0.4778,-2.6944 -0.475,-1.6092 -0.2221,-1.02 -0.7742,-1.912 l -5.4106,11.9335 c -1.0761,-8.0597 -4.5148,-13.3506 -8.0043,-18.9325 -3.6554,-5.8484 -4.2783,-8.3026 -6.5992,-14.0894 l -2.1495,-3.7434 c -0.0689,-0.3154 -0.2874,-0.3417 -0.3998,-0.4986 l 0.8477,34.1316 c -2.068,-1.6273 -3.3517,-3.7343 -4.5865,-5.3081 l -4.6527,-4.9065 c 1.4352,5.6444 4.1468,9.3162 5.2909,16.5671 0.9374,5.9382 1.2448,12.9526 1.9637,19.1229 -2.5856,-1.7697 -2.261,-3.0435 -4.7161,-4.8902 1.3862,6.6907 3.6418,10.8293 4.2664,18.869 0.5567,7.1531 1.0027,13.7649 1.6564,20.3423 -1.9383,-2.3001 -2.8476,-4.9691 -5.1096,-6.9527 4.232,21.227 0.4053,31.3737 4.1758,44.8956 3.9854,14.2952 6.9908,7.0424 4.8358,17.9316 -6.4504,32.5949 -12.3714,75.991 -6.0778,108.3755 10.5881,54.4793 42.4042,93.3107 76.8522,117.2866 39.165,27.2577 96.5191,43.9001 154.2612,29.0537 26.5851,-6.8349 46.5837,-17.4457 65.7846,-31.7101 14.1057,-10.4802 39.2846,-37.0399 44.8339,-51.7177 -9.6371,11.919 -10.3814,14.2734 -22.5888,26.3276 -8.2681,8.1657 -16.9479,14.4792 -27.1843,21.1971 -68.9993,45.2791 -162.3952,32.2522 -217.7457,-15.8228 -16.8183,-14.6089 -33.5731,-32.7563 -43.8421,-53.6307 -11.2563,-22.8816 -19.8491,-46.61 -19.6333,-77.1234 0.4569,-64.4454 21.4456,-46.0515 53.7549,-91.3678 14.3578,-20.1382 16.6161,-17.9651 22.8988,-25.2351 -7.7342,1.4306 -29.7336,14.0223 -35.4126,18.1292 -17.3822,12.5736 -19.8508,21.2878 -25.8661,27.0248 5.3979,-14.7476 34.0772,-46.0262 46.1104,-57.4556 4.2112,-3.999 9.0968,-7.4976 14.8048,-11.2872 9.2282,-6.1267 7.969,-1.4532 19.0122,-0.3354 17.025,1.7225 28.8725,-5.6925 42.7271,-8.7994 -0.2067,-0.1469 -0.4787,-0.272 -0.6763,-0.3527 l -2.126,-0.7806 c -3.4931,-0.8141 -4.6364,0.4134 -14.9752,-2.6228 l -16.7249,-4.1286 c 14.4312,-4.7642 9.7568,5.241 31.7282,4.436 6.8357,-0.2503 27.2985,-3.7035 32.9965,-5.8286 -7.7305,-1.4269 -11.1149,-2.3426 -17.6297,-4.8584 -2.4324,-0.9402 -5.0525,-2.1767 -7.7668,-3.048 -2.6418,-0.8495 -5.7669,-1.1749 -8.1585,-2.2692 1.9682,-0.9129 3.8603,-1.4333 5.9228,-0.8468 z"
         style="fill:#0e680e;fill-rule:evenodd"
         id="path6" />
      <path
         d="m 441.1363,397.2304 c 1.6989,-0.5077 5.7242,1.4533 7.367,2.4478 2.5874,1.5657 0.6573,0.2801 1.8159,1.6219 l -5.717,0.6854 0.126,5.0107 c -2.4841,-1.8023 -6.7079,-4.7705 -3.5919,-9.7658 z m -40.5975,-33.7563 c 5.2556,-6.4078 12.1385,-0.9102 13.871,5.0561 l -4.2066,-2.1958 c -5.0978,1.8205 -7.833,3.9619 -9.6644,-2.8603 z m -16.8337,-20.3794 c -0.6681,12.434 -5.8285,1.9855 -17.5544,-0.1568 -6.9835,-1.2756 -18.8092,1.9455 -21.6668,6.7269 -1.0761,4.2801 7.7967,11.7133 11.0351,13.9281 6.1903,4.2329 10.3824,5.27 19.3522,4.9464 1.8033,2.9374 -0.737,4.5031 5.2356,8.1041 16.7159,10.0786 10.7187,6.8221 14.5799,26.2188 0.709,3.5602 2.8576,5.7686 4.0779,8.8982 1.5965,4.0942 1.3681,7.5311 1.4642,12.3198 0.3055,15.2 -3.3381,16.3858 -4.067,23.9387 6.9545,-0.3001 9.4567,-8.6644 11.9136,-14.55 3.3281,-7.9717 4.4106,-10.2763 12.9988,-13.1565 5.1068,-1.7126 4.8294,-2.5748 10.4249,-0.7498 12.1185,3.9519 14.987,-0.5693 20.1736,-3.1042 4.1305,-2.0181 6.1776,-0.0236 8.8929,-4.1395 4.0107,-6.0806 3.5738,-14.3796 -1.9338,-18.9488 -5.5148,-4.5765 -8.3688,-7.1476 -12.5192,-13.6969 -5.3508,-8.4449 -5.3843,-8.1993 -5.8766,-20.0748 -0.4161,-10.0369 -6.6317,-11.114 -8.9028,-17.6052 0.004,-0.0816 10.5456,-13.5799 3.9202,-17.3704 -3.3282,-1.9039 -4.7026,0.7389 -9.5229,4.5067 -5.7234,4.4722 -6.0307,1.5748 -11.7994,0.9075 -13.8827,-1.6056 -20.1936,2.7017 -28.3058,-2.6219 -3.1531,-2.0688 -5.9083,-4.9455 -8.6372,-6.6816 -8.6507,-5.5003 -12.2816,9.8719 6.717,22.3612 z"
         style="fill:#1d4522;fill-rule:evenodd"
         id="path8" />
      <path
         d="m 420.9563,530.9009 c 8.1041,-3.5584 26.4146,-24.0275 32.8651,-31.7644 6.7541,-8.1014 22.3594,-32.3647 22.9015,-41.1659 -16.3849,-5.2864 -47.5365,-1.4388 -64.2351,1.3472 -13.3705,2.2311 -45.6109,12.8093 -50.6398,20.0576 11.9652,8.5057 19.597,11.026 32.2259,22.9731 2.9047,2.7479 4.5756,4.2148 7.0778,6.7361 4.2012,4.232 17.4166,20.6722 19.8046,21.8163 z"
         style="fill:#89bd0c;fill-rule:evenodd"
         id="path10" />
      <path
         d="m 279.8988,227.683 c 10.2908,-4.7768 22.4356,-1.9029 32.2776,2.7543 0.7253,0.3427 1.5104,0.7117 2.0598,1.1224 2.0217,1.5131 0.67,0.2828 1.9202,1.8984 -9.4994,0.4061 -28.0384,1.1359 -36.2576,-5.7751 z m 31.0655,-7.1285 c 21.4383,-1.1188 20.3758,-0.2992 36.5848,8.3896 -4.552,0.8531 -16.0304,0.1523 -20.6704,-0.8785 l -12.2046,-4.6889 c -0.4044,-0.2239 -1.6618,-0.9782 -1.922,-1.174 z m 33.8605,-3.1142 c 11.521,-0.5122 23.4591,0.8169 32.5033,7.8566 l 1.7715,1.6328 c -8.765,-0.369 -28.0338,-1.417 -34.2748,-9.4894 z m 34.5423,-0.4542 c 12.1049,0.679 22.0384,0.4805 31.4589,6.0942 -8.4105,3.0271 -27.7546,-0.5377 -31.4589,-6.0942 z m 6.3579,-4.0679 c 7.5085,-5.6617 22.3277,-7.095 31.992,-5.6236 l 4.2021,1.4804 c -15.0305,3.32 -17.9805,6.1042 -36.1941,4.1432 z m -35.7788,-0.2548 c 1.1577,-2.018 -0.1397,-0.4378 1.6672,-2.0226 6.8584,-6.0134 24.111,-9.4377 34.8179,-8.3108 -2.97,2.5521 -11.2228,5.621 -15.754,7.309 -8.2491,3.0734 -11.2318,3.194 -20.7311,3.0244 z m -68.2025,9.1857 c 2.2964,-4.8431 9.5166,-10.6154 14.0768,-13.2472 5.5121,-3.1813 12.8746,-5.9545 20.3585,-6.0361 -10.725,8.2155 -17.1138,15.9787 -34.4353,19.2833 z m 33.0201,-7.4513 c 11.1838,-8.1377 18.2879,-13.8646 35.7553,-14.3406 -2.6926,3.0525 -11.6715,7.8004 -16.093,10.2101 -3.2646,1.7797 -5.4604,2.7706 -9.4549,3.6137 -2.718,0.5739 -7.8312,2.0326 -10.2074,0.5168 z m -43.1268,8.9327 c -1.757,0.8658 -0.5585,-0.7761 -2.7579,3.5819 l 4.8304,0.2974 c 0.0217,0.0281 0.0471,0.2239 0.0671,0.2602 1.3145,2.3399 -2.6845,1.8912 2.0153,1.6681 7.0987,2.3944 11.58,8.3081 25.324,8.93 10.5365,0.4769 21.131,-1.1831 30.983,-2.591 l -9.7478,-3.6962 c -2.7642,-1.3327 -6.3498,-3.3082 -8.182,-4.9618 8.7387,3.9745 7.9046,5.5311 21.5063,6.3407 8.9726,0.5331 18.9252,-0.2121 27.9005,-0.7942 l -3.261,-1.679 c -12.6552,-5.3308 -17.9116,-10.2491 -24.2605,-12.6235 13.6434,-2.5212 5.2156,14.9208 47.1739,12.4812 l 8.3715,-1.3264 c -2.1387,-2.5076 -15.9598,-9.6308 -19.607,-12.162 8.1929,-0.8631 5.9881,8.9246 25.139,10.3298 9.9536,0.7307 24.0784,-1.0127 34.2332,-1.7316 l -1.146,-0.8033 c -5.2374,-3.0697 -13.8609,-3.5094 -20.7148,-6.9989 28.4535,-0.2031 17.7666,2.4016 52.2989,-1.0208 -7.6907,-3.4442 -32.7128,-1.6673 -42.99,-2.4098 6.5864,-2.756 15.8709,-3.0652 21.7874,-5.9173 -2.602,-1.8567 -12.5274,-3.067 -16.6479,-3.8639 -34.9765,-6.7696 -35.0227,8.6525 -48.3787,8.2264 9.9145,-6.1703 18.8789,-8.8665 31.0074,-12.0604 -7.7559,-3.9084 -39.1351,-4.7089 -54.53,5.6363 -5.6001,3.7633 -4.6019,7.6544 -14.4584,7.0334 3.6164,-0.8704 15.7376,-10.5728 24.003,-13.6117 3.4016,-1.2511 6.63,-1.922 9.3779,-3.5094 -21.8309,-1.6337 -44.5058,-1.0272 -58.1972,16.8763 -2.2439,2.9328 -2.7389,3.2846 -7.2746,3.9382 0.1342,-0.1677 0.369,-0.6047 0.4443,-0.4641 0.0734,0.1378 0.339,-0.3554 0.4415,-0.4542 0.0988,-0.0961 0.3155,-0.3165 0.437,-0.4316 l 2.086,-1.8585 c 8.6589,-7.3453 14.1393,-12.5111 25.1617,-17.5436 -11.482,0.2439 -28.6729,2.8195 -37.4887,7.4858 -17.2117,9.1095 -16.1465,20.6858 -22.6232,20.3712 -2.5602,-0.1242 -0.5639,0.7353 -2.3236,-0.9437 z"
         style="fill:#136413;fill-rule:evenodd"
         id="path12" />
      <path
         d="m 358.5742,415.6905 23.9569,-0.0118 c 2.2465,-6.3054 2.6608,-16.8835 1.1477,-23.547 -5.338,-2.5376 -20.791,-2.5485 -28.4245,-1.417 -4.5094,6.5891 0.1967,19.4066 3.3199,24.9758 z"
         style="fill:#f7f7f7;fill-rule:evenodd"
         id="path14" />
      <path
         d="m 286.2686,351.7482 c -1.6047,27.8779 -1.9655,22.5516 13.3306,22.5398 4.193,-0.005 5.9065,1.1405 6.3425,-2.2755 0.3881,-3.0353 -5.4876,-18.1719 -6.8167,-20.9941 -4.0325,-0.1414 -9.861,-0.6265 -12.8564,0.7298 z"
         style="fill:#f8f8f8;fill-rule:evenodd"
         id="path16" />
      <path
         d="m 148.4186,339.5581 c 12.0469,-5.8322 24.7628,-19.8001 32.9349,-30.4989 1.8268,-2.3907 2.9011,-3.7496 4.6726,-6.0986 1.9437,-2.5766 3.232,-3.9029 4.6998,-6.4414 -15.8473,5.7668 -36.3763,30.2948 -42.3073,43.0389 z"
         style="fill:#f5f5f5;fill-rule:evenodd"
         id="path18" />
      <path
         d="m 231.6116,361.466 -0.155,9.4114 27.0438,-1.8368 0.6718,-10.5002 z"
         style="fill:#f9f5ea;fill-rule:evenodd"
         id="path20" />
      <path
         d="m 231.8355,377.0432 -0.4206,9.3896 27.0846,-0.3164 0.5793,-10.531 z"
         style="fill:#f9f5ea;fill-rule:evenodd"
         id="path22" />
      <path
         d="m 231.6778,346.1409 -0.2176,9.3316 27.0765,-3.1849 0.6065,-10.4449 z"
         style="fill:#f9f5ea;fill-rule:evenodd"
         id="path24" />
      <path
         d="m 231.3877,331.173 0.1133,8.9871 27.4001,-4.7343 0.184,-10.2844 z"
         style="fill:#f9f5ea;fill-rule:evenodd"
         id="path26" />
      <path
         d="m 310.4629,420.1909 c -7.6816,3.7841 -6.2745,24.6023 3.3989,21.3295 7.6399,-2.5847 5.5928,-25.7592 -3.3989,-21.3295 z"
         style="fill:#f5f5f5;fill-rule:evenodd"
         id="path28" />
      <path
         d="m 249.8043,231.9622 c 12.1149,-3.2828 26.692,-16.4158 30.8579,-24.1291 -12.0415,3.155 -26.8317,12.1593 -30.8579,24.1291 z"
         style="fill:#f5f5f5;fill-rule:evenodd"
         id="path30" />
      <path
         d="m 202.4319,351.294 0.0734,7.9354 c 4.0226,0.699 18.064,-2.0743 23.1563,-2.7606 l 0.2013,-9.1348 z"
         style="fill:#f9f5ea;fill-rule:evenodd"
         id="path32" />
      <path
         d="m 203.1934,378.9135 c -0.0716,0.4379 -0.1605,0.5258 -0.1868,0.8812 -0.2275,3.1377 -0.7279,0.6092 -0.2846,7.5066 l 22.7048,-0.3454 0.3681,-9.5229 z"
         style="fill:#f9f5ea;fill-rule:evenodd"
         id="path34" />
      <path
         d="m 202.596,364.9183 -0.0599,8.1739 22.8454,-1.4723 0.4107,-9.4413 z"
         style="fill:#f9f5ea;fill-rule:evenodd"
         id="path36" />
      <path
         d="m 202.6476,338.1574 -0.0933,7.3425 23.2805,-3.9899 0.097,-9.0306 c -3.0018,0.3889 -20.3921,3.6708 -23.2842,5.678 z"
         style="fill:#f9f5ea;fill-rule:evenodd"
         id="path38" />
      <path
         d="m 281.7437,221.8491 c 17.3215,-3.3046 23.7103,-11.0678 34.4353,-19.2833 -7.4839,0.0816 -14.8464,2.8548 -20.3585,6.0361 -4.5602,2.6318 -11.7804,8.4041 -14.0768,13.2472 z"
         style="fill:#f5f5f5;fill-rule:evenodd"
         id="path40" />
      <path
         d="m 248.5913,238.5468 c 6.2365,1.3082 11.3052,3.5938 18.7457,3.6518 4.6581,0.0362 14.9652,-1.1097 18.8074,-2.6709 -10.9191,-4.649 -17.7177,-7.0859 -28.3475,-4.4214 -2.8449,0.7135 -6.9147,1.2184 -9.2056,3.4405 z"
         style="fill:#f5f5f5;fill-rule:evenodd"
         id="path42" />
      <path
         d="m 221.1712,252.8964 c 11.1521,2.2692 26.5887,2.3236 36.0726,-2.8104 -13.7204,-4.3245 -25.8869,-6.4949 -36.0726,2.8104 z"
         style="fill:#f7f7f7;fill-rule:evenodd"
         id="path44" />
      <path
         d="m 279.8988,227.683 c 8.2192,6.911 26.7582,6.1812 36.2576,5.7751 -1.2502,-1.6156 0.1015,-0.3853 -1.9202,-1.8984 -0.5494,-0.4107 -1.3345,-0.7797 -2.0598,-1.1224 -9.842,-4.6572 -21.9868,-7.5311 -32.2776,-2.7543 z"
         style="fill:#f5f5f5;fill-rule:evenodd"
         id="path46" />
      <path
         d="m 314.7638,214.3978 c 2.3762,1.5158 7.4894,0.0571 10.2074,-0.5168 3.9945,-0.8431 6.1903,-1.834 9.4549,-3.6137 4.4215,-2.4097 13.4004,-7.1576 16.093,-10.2101 -17.4674,0.476 -24.5715,6.2029 -35.7553,14.3406 z"
         style="fill:#f5f5f5;fill-rule:evenodd"
         id="path48" />
      <path
         d="m 220.979,244.6002 c 4.9002,-1.9302 12.2636,-6.7787 15.1738,-9.7161 2.5575,-2.5828 8.6688,-10.8646 10.0831,-14.9987 -10.2382,2.834 -22.7066,14.1955 -25.2569,24.7148 z"
         style="fill:#f5f5f5;fill-rule:evenodd"
         id="path50" />
      <path
         d="m 334.058,416.462 16.2154,0.0961 c -0.3581,-5.8131 -7.9816,-14.2598 -20.363,-11.4702 0.1097,4.7179 1.834,7.9046 4.1476,11.3741 z"
         style="fill:#f5f5f5;fill-rule:evenodd"
         id="path52" />
      <path
         d="m 347.5491,228.9441 c -16.209,-8.6888 -15.1465,-9.5084 -36.5848,-8.3896 l 1.7878,1.6482 c 0.2602,0.1958 1.5176,0.9501 1.922,1.174 l 12.2046,4.6889 c 4.64,1.0308 16.1184,1.7316 20.6704,0.8785 z"
         style="fill:#f5f5f5;fill-rule:evenodd"
         id="path54" />
      <path
         d="m 349.9462,212.6634 c 9.4993,0.1696 12.482,0.049 20.7311,-3.0244 4.5312,-1.688 12.784,-4.7569 15.754,-7.309 -10.7069,-1.1269 -27.9595,2.2974 -34.8179,8.3108 -1.8069,1.5848 -0.5095,0.005 -1.6672,2.0226 z"
         style="fill:#f5f5f5;fill-rule:evenodd"
         id="path56" />
      <path
         d="m 137.2248,315.6556 c 9.0769,-3.4251 14.6824,-23.2007 16.3143,-31.8932 -9.483,8.1331 -15.142,18.8555 -16.3143,31.8932 z"
         style="fill:#f3f4f3;fill-rule:evenodd"
         id="path58" />
      <path
         d="m 177.1432,380.6469 -0.2738,7.4495 20.7693,-0.3572 0.0897,-7.8257 c -3.2682,-0.8568 -16.4429,0.3118 -20.5852,0.7334 z"
         style="fill:#f4f4ec;fill-rule:evenodd"
         id="path60" />
      <path
         d="m 344.8248,217.4403 c 6.241,8.0724 25.5098,9.1204 34.2748,9.4894 l -1.7715,-1.6328 c -9.0442,-7.0397 -20.9823,-8.3688 -32.5033,-7.8566 z"
         style="fill:#f5f5f5;fill-rule:evenodd"
         id="path62" />
      <path
         d="m 142.3952,284.1532 c 9.0052,-5.3798 10.8266,-20.2969 10.3878,-33.4879 -6.0942,7.551 -10.0152,21.5308 -10.3878,33.4879 z"
         style="fill:#f5f5f5;fill-rule:evenodd"
         id="path64" />
      <path
         d="m 176.9991,368.1504 -0.049,7.3552 20.3568,-1.641 0.5684,-8.3316 z"
         style="fill:#f9f5ea;fill-rule:evenodd"
         id="path66" />
      <path
         d="m 138.0662,282.68 c 1.6055,-6.3462 0.0127,-12.6616 -1.8595,-18.3768 L 130.5505,252.27 c -1.3599,-1.8159 -0.4134,-0.7443 -1.7362,-1.8132 -0.3653,13.0142 1.476,26.2224 9.2519,32.2232 z"
         style="fill:#f5f5f5;fill-rule:evenodd"
         id="path68" />
      <path
         d="m 177.2484,355.4725 -0.4216,7.2927 20.6886,-2.3073 0.3381,-8.2256 z"
         style="fill:#f9f5ea;fill-rule:evenodd"
         id="path70" />
      <path
         d="m 132.1561,315.7001 c 2.4686,-3.7316 2.9863,-14.4902 2.0217,-19.5309 -1.1523,-6.0161 -3.4596,-11.7739 -6.3507,-16.0449 -0.8151,8.3561 0.0852,29.4825 4.329,35.5758 z"
         style="fill:#f5f5f5;fill-rule:evenodd"
         id="path72" />
      <path
         d="m 176.9411,343.3857 -0.0653,7.1422 20.6523,-3.7034 0.3209,-8.0488 z"
         style="fill:#f9f5ea;fill-rule:evenodd"
         id="path74" />
      <path
         d="m 139.1495,249.8883 c -0.1423,-11.2916 -5.3217,-24.5406 -11.5962,-30.5641 -0.5177,11.1158 3.2166,26.6839 11.5962,30.5641 z"
         style="fill:#f5f5f5;fill-rule:evenodd"
         id="path76" />
      <path
         d="m 143.3407,251.7396 c 7.8539,-2.3952 6.193,-25.7193 4.4206,-31.3166 -0.9039,-2.853 -0.4995,-1.3581 -1.0571,-2.2094 -2.7832,13.6579 -5.2247,13.4848 -3.3635,33.526 z"
         style="fill:#f5f9f2;fill-rule:evenodd"
         id="path78" />
      <path
         d="m 200.3177,433.4154 c 5.1585,0.5848 6.6453,-2.1414 7.1394,-7.1068 1.1995,-12.0559 -8.1004,-15.8555 -9.7459,-4.2728 -0.718,5.0588 0.6564,8.571 2.6065,11.3796 z"
         style="fill:#f9f5ea;fill-rule:evenodd"
         id="path80" />
      <path
         d="m 385.725,212.9182 c 18.2136,1.961 21.1636,-0.8232 36.1941,-4.1432 l -4.2021,-1.4804 c -9.6643,-1.4714 -24.4835,-0.0381 -31.992,5.6236 z"
         style="fill:#f5f5f5;fill-rule:evenodd"
         id="path82" />
      <path
         d="m 137.9936,225.8617 c 2.1822,-2.2611 2.0888,-4.2964 1.9148,-8.1594 -0.1396,-3.0951 -0.6501,-5.5411 -1.7081,-8.3144 -1.3626,-3.5729 -4.4885,-10.5002 -7.745,-12.6099 -0.602,19.1818 4.4876,20.6777 7.5383,29.0837 z"
         style="fill:#f5f5f5;fill-rule:evenodd"
         id="path84" />
      <path
         d="m 379.3671,216.9861 c 3.7043,5.5565 23.0484,9.1213 31.4589,6.0942 -9.4205,-5.6137 -19.354,-5.4152 -31.4589,-6.0942 z"
         style="fill:#f3f4f3;fill-rule:evenodd"
         id="path86" />
      <path
         d="m 400.5388,363.4741 c 1.8314,6.8222 4.5666,4.6808 9.6644,2.8603 l 4.2066,2.1958 c -1.7325,-5.9663 -8.6154,-11.4639 -13.871,-5.0561 z"
         style="fill:#f4f4ec;fill-rule:evenodd"
         id="path88" />
      <path
         d="m 441.1363,397.2304 c -3.116,4.9953 1.1078,7.9635 3.5919,9.7658 l -0.126,-5.0107 5.717,-0.6854 c -1.1586,-1.3418 0.7715,-0.0562 -1.8159,-1.6219 -1.6428,-0.9945 -5.6681,-2.9555 -7.367,-2.4478 z"
         style="fill:#ecedeb;fill-rule:evenodd"
         id="path90" />
    </g>
    <g
       id="Layer1002">
      <g
         id="Layer1003">
        <path
           d="m 90.9867,602.6389 c 0,0.2503 -0.0136,0.4665 -0.0405,0.6494 -0.0272,0.1825 -0.0677,0.3311 -0.1287,0.4462 -0.0606,0.1082 -0.1284,0.1961 -0.2163,0.2435 -0.0878,0.0541 -0.1825,0.081 -0.284,0.081 h -7.202 v 22.2483 c 0,0.1083 -0.0269,0.1962 -0.0811,0.2772 -0.0541,0.0811 -0.142,0.1421 -0.2772,0.1894 -0.1284,0.0473 -0.3044,0.0879 -0.5207,0.1216 -0.2231,0.034 -0.4938,0.0473 -0.8252,0.0473 -0.3177,0 -0.5882,-0.0133 -0.8113,-0.0473 -0.2233,-0.0337 -0.4059,-0.0743 -0.5343,-0.1216 -0.1352,-0.0473 -0.2231,-0.1083 -0.2772,-0.1894 -0.0542,-0.081 -0.0811,-0.1689 -0.0811,-0.2772 V 604.059 h -7.202 c -0.1014,0 -0.1961,-0.0269 -0.284,-0.081 -0.0879,-0.0474 -0.1556,-0.1353 -0.2098,-0.2435 -0.0473,-0.1151 -0.0946,-0.2637 -0.1284,-0.4462 -0.0337,-0.1829 -0.0473,-0.3991 -0.0473,-0.6494 0,-0.25 0.0136,-0.4734 0.0473,-0.6628 0.0338,-0.1893 0.0811,-0.3447 0.1284,-0.4598 0.0542,-0.1216 0.1219,-0.2094 0.2098,-0.2568 0.0879,-0.0541 0.1826,-0.0813 0.284,-0.0813 h 17.8121 c 0.1015,0 0.1962,0.0272 0.284,0.0813 0.0879,0.0474 0.1557,0.1352 0.2163,0.2568 0.061,0.1151 0.1015,0.2705 0.1287,0.4598 0.0269,0.1894 0.0405,0.4128 0.0405,0.6628 z m 11.2524,7.0058 c 0,0.2908 -0.006,0.5343 -0.0201,0.7305 -0.0136,0.1961 -0.0405,0.3515 -0.081,0.4666 -0.0341,0.1148 -0.0879,0.1961 -0.1489,0.2568 -0.0541,0.0609 -0.1352,0.0881 -0.2435,0.0881 -0.1082,0 -0.2367,-0.0272 -0.3855,-0.0881 -0.1556,-0.0607 -0.3245,-0.1216 -0.5139,-0.1758 -0.1893,-0.0609 -0.4056,-0.1148 -0.6423,-0.1689 -0.2367,-0.0542 -0.4938,-0.0814 -0.771,-0.0814 -0.3314,0 -0.656,0.0678 -0.9738,0.1962 -0.3109,0.1352 -0.6491,0.3518 -0.9941,0.6627 -0.3515,0.3045 -0.7168,0.7101 -1.1024,1.2104 -0.3784,0.5074 -0.8044,1.1228 -1.2645,1.853 v 11.7326 c 0,0.1083 -0.0269,0.1962 -0.0811,0.2707 -0.0541,0.0675 -0.1352,0.1353 -0.2568,0.1894 -0.1219,0.0473 -0.284,0.0879 -0.5006,0.1148 -0.2095,0.0272 -0.4802,0.0405 -0.8115,0.0405 -0.3246,0 -0.5882,-0.0133 -0.798,-0.0405 -0.2163,-0.0269 -0.3852,-0.0675 -0.5071,-0.1148 -0.1284,-0.0541 -0.2163,-0.1219 -0.2636,-0.1894 -0.0474,-0.0745 -0.0678,-0.1624 -0.0678,-0.2707 v -17.839 c 0,-0.1082 0.0204,-0.1961 0.061,-0.2704 0.0405,-0.0677 0.1151,-0.1352 0.2367,-0.1961 0.1216,-0.061 0.2704,-0.1015 0.4597,-0.1219 0.1826,-0.0202 0.4329,-0.027 0.737,-0.027 0.2909,0 0.5344,0.007 0.7237,0.027 0.1962,0.0204 0.345,0.0609 0.453,0.1219 0.1015,0.0609 0.1828,0.1284 0.2302,0.1961 0.0405,0.0743 0.0674,0.1622 0.0674,0.2704 v 2.5969 c 0.487,-0.7169 0.9468,-1.2986 1.3729,-1.7516 0.4328,-0.4464 0.8385,-0.8047 1.2172,-1.0615 0.3855,-0.2571 0.7642,-0.4329 1.1361,-0.5344 0.3787,-0.1015 0.7574,-0.1488 1.1429,-0.1488 0.169,0 0.3651,0.007 0.5814,0.0269 0.2166,0.0204 0.4465,0.061 0.6832,0.1083 0.2366,0.0542 0.4529,0.1151 0.6423,0.1826 0.1893,0.0677 0.3246,0.1287 0.4056,0.1961 0.0814,0.0678 0.1355,0.1284 0.1556,0.1894 0.027,0.0609 0.0542,0.1352 0.0743,0.2231 0.0204,0.0946 0.034,0.2299 0.0408,0.4059 0.006,0.1825 0.006,0.4192 0.006,0.7234 z m 16.318,16.7031 c 0,0.1557 -0.0542,0.2773 -0.1557,0.3583 -0.1082,0.0814 -0.2503,0.1355 -0.4396,0.1761 -0.1826,0.0405 -0.453,0.0606 -0.8113,0.0606 -0.3382,0 -0.6154,-0.0201 -0.8183,-0.0606 -0.203,-0.0406 -0.3518,-0.0947 -0.4465,-0.1761 -0.0947,-0.081 -0.142,-0.1958 -0.142,-0.3583 v -1.7852 c -0.7776,0.8317 -1.6433,1.4811 -2.6034,1.9409 -0.9603,0.4529 -1.9746,0.6828 -3.0429,0.6828 -0.94,0 -1.7921,-0.1216 -2.5495,-0.3651 -0.7574,-0.2435 -1.4066,-0.6018 -1.9409,-1.0615 -0.5343,-0.4601 -0.9536,-1.0347 -1.2509,-1.7042 -0.2977,-0.6764 -0.4465,-1.4406 -0.4465,-2.2992 0,-1.0077 0.203,-1.88 0.6154,-2.6172 0.4056,-0.7439 0.9941,-1.3593 1.7651,-1.846 0.764,-0.487 1.7039,-0.8589 2.8131,-1.1024 1.109,-0.2435 2.3602,-0.3651 3.7463,-0.3651 h 2.4616 v -1.3929 c 0,-0.6832 -0.0745,-1.2918 -0.2165,-1.8261 -0.1489,-0.5272 -0.3788,-0.9669 -0.7033,-1.3187 -0.3246,-0.3515 -0.7438,-0.6154 -1.2578,-0.7911 -0.5139,-0.1826 -1.1497,-0.2704 -1.9003,-0.2704 -0.8045,0 -1.5282,0.0946 -2.164,0.2908 -0.6423,0.1962 -1.2036,0.4056 -1.6838,0.6423 -0.4801,0.2367 -0.8858,0.4465 -1.2103,0.6424 -0.3178,0.1961 -0.5613,0.2908 -0.7169,0.2908 -0.108,0 -0.2027,-0.0269 -0.2773,-0.0811 -0.081,-0.0473 -0.1488,-0.1284 -0.2094,-0.2367 -0.061,-0.1015 -0.1015,-0.2367 -0.1287,-0.3988 -0.027,-0.1692 -0.0406,-0.345 -0.0406,-0.5479 0,-0.3246 0.0204,-0.5882 0.0678,-0.7776 0.0473,-0.1893 0.1621,-0.3719 0.3382,-0.5411 0.1757,-0.169 0.4867,-0.3719 0.9195,-0.6086 0.4329,-0.2299 0.94,-0.4462 1.508,-0.6423 0.5613,-0.1894 1.1835,-0.3518 1.8596,-0.4802 0.6695,-0.1284 1.3527,-0.1894 2.0355,-0.1894 1.2782,0 2.367,0.142 3.2664,0.4329 0.8991,0.2908 1.6228,0.7234 2.1773,1.2849 0.5544,0.5613 0.9536,1.2577 1.2039,2.0894 0.25,0.8317 0.3787,1.8057 0.3787,2.9146 z m -3.246,-8.1688 h -2.793 c -0.8926,0 -1.6701,0.0742 -2.3329,0.2299 -0.6559,0.1488 -1.2038,0.3787 -1.6432,0.6763 -0.4329,0.2974 -0.7506,0.6491 -0.9604,1.0684 -0.203,0.4192 -0.3042,0.8994 -0.3042,1.4403 0,0.9263 0.2906,1.6636 0.8791,2.2113 0.5882,0.5476 1.4065,0.8251 2.4681,0.8251 0.8521,0 1.65,-0.2165 2.3805,-0.6559 0.7302,-0.4329 1.5013,-1.1024 2.306,-2.0018 z m 24.588,8.1484 c 0,0.1083 -0.0269,0.1962 -0.0811,0.2707 -0.0541,0.0675 -0.1352,0.1353 -0.2571,0.1894 -0.1216,0.0473 -0.284,0.0879 -0.5003,0.1148 -0.2097,0.0272 -0.4734,0.0405 -0.7911,0.0405 -0.3382,0 -0.6086,-0.0133 -0.8184,-0.0405 -0.2163,-0.0269 -0.3787,-0.0675 -0.5003,-0.1148 -0.1219,-0.0541 -0.203,-0.1219 -0.2571,-0.1894 -0.0541,-0.0745 -0.0811,-0.1624 -0.0811,-0.2707 v -10.4476 c 0,-1.0145 -0.081,-1.8394 -0.2367,-2.4548 -0.1556,-0.6222 -0.3855,-1.1563 -0.6896,-1.6095 -0.3045,-0.4462 -0.69,-0.7912 -1.1699,-1.0279 -0.4802,-0.2367 -1.0346,-0.3583 -1.6636,-0.3583 -0.8184,0 -1.6297,0.2906 -2.4412,0.8722 -0.8184,0.5817 -1.6705,1.4338 -2.5631,2.5563 v 12.4696 c 0,0.1083 -0.027,0.1962 -0.0811,0.2707 -0.0541,0.0675 -0.1352,0.1353 -0.2568,0.1894 -0.1219,0.0473 -0.284,0.0879 -0.5006,0.1148 -0.2095,0.0272 -0.4802,0.0405 -0.8116,0.0405 -0.3245,0 -0.5882,-0.0133 -0.7979,-0.0405 -0.2163,-0.0269 -0.3853,-0.0675 -0.5071,-0.1148 -0.1285,-0.0541 -0.2163,-0.1219 -0.2637,-0.1894 -0.0473,-0.0745 -0.0677,-0.1624 -0.0677,-0.2707 v -17.839 c 0,-0.1082 0.0204,-0.1961 0.0609,-0.2704 0.0406,-0.0677 0.1151,-0.1352 0.2367,-0.1961 0.1216,-0.061 0.2704,-0.1015 0.4598,-0.1219 0.1826,-0.0202 0.4329,-0.027 0.737,-0.027 0.2908,0 0.5343,0.007 0.7237,0.027 0.1962,0.0204 0.345,0.0609 0.453,0.1219 0.1015,0.0609 0.1828,0.1284 0.2301,0.1961 0.0406,0.0743 0.0675,0.1622 0.0675,0.2704 v 2.3602 c 1.0009,-1.1294 1.995,-1.9545 2.9957,-2.4752 0.9941,-0.5208 1.995,-0.7844 3.0092,-0.7844 1.1835,0 2.1844,0.203 2.996,0.6018 0.8112,0.4059 1.4672,0.9468 1.9678,1.6163 0.5003,0.6764 0.8589,1.4675 1.0752,2.3735 0.2162,0.9062 0.3245,1.995 0.3245,3.2595 z m 17.1766,-4.8688 c 0,0.9131 -0.169,1.7244 -0.5072,2.4412 -0.3381,0.7101 -0.8115,1.3119 -1.4337,1.7989 -0.6219,0.487 -1.3592,0.8589 -2.2179,1.1089 -0.8589,0.2503 -1.8056,0.3787 -2.8335,0.3787 -0.6358,0 -1.2376,-0.0473 -1.8124,-0.1488 -0.5746,-0.0947 -1.0885,-0.2163 -1.5486,-0.3719 -0.453,-0.1488 -0.8385,-0.3042 -1.1563,-0.4666 -0.3177,-0.1621 -0.5476,-0.3109 -0.6896,-0.4393 -0.1488,-0.1287 -0.2571,-0.3181 -0.3181,-0.5548 -0.0674,-0.2367 -0.1015,-0.5612 -0.1015,-0.9737 0,-0.2503 0.0137,-0.4598 0.0409,-0.629 0.0269,-0.1757 0.0606,-0.311 0.0946,-0.4192 0.0406,-0.108 0.1012,-0.1826 0.169,-0.2299 0.0743,-0.0474 0.1556,-0.0675 0.2503,-0.0675 0.142,0 0.3583,0.0879 0.6423,0.2704 0.284,0.1758 0.6358,0.3719 1.0483,0.5817 0.4124,0.2095 0.9059,0.4056 1.474,0.5814 0.568,0.1825 1.2172,0.2704 1.9545,0.2704 0.5544,0 1.0547,-0.0606 1.5012,-0.1825 0.453,-0.1148 0.8385,-0.2906 1.1699,-0.5273 0.3313,-0.2302 0.5816,-0.5275 0.7642,-0.8861 0.1757,-0.3583 0.2636,-0.7843 0.2636,-1.2779 0,-0.5006 -0.1284,-0.9266 -0.3855,-1.2648 -0.2568,-0.3447 -0.595,-0.6491 -1.0142,-0.9127 -0.4261,-0.2636 -0.8995,-0.5003 -1.427,-0.7033 -0.5275,-0.203 -1.0684,-0.4192 -1.6296,-0.6423 -0.5545,-0.2302 -1.1024,-0.4802 -1.6365,-0.7643 -0.5343,-0.284 -1.0077,-0.629 -1.4338,-1.0414 -0.4192,-0.4124 -0.7574,-0.8994 -1.0142,-1.4675 -0.2571,-0.5681 -0.3855,-1.2441 -0.3855,-2.0421 0,-0.6967 0.1352,-1.366 0.4056,-2.0086 0.2707,-0.6423 0.6764,-1.2036 1.2172,-1.6838 0.548,-0.4802 1.224,-0.8722 2.0356,-1.163 0.8116,-0.2909 1.7583,-0.4329 2.8471,-0.4329 0.4734,0 0.9465,0.0405 1.4267,0.1216 0.4734,0.0814 0.8994,0.1894 1.2849,0.3113 0.3855,0.1216 0.7101,0.2568 0.9805,0.3988 0.2705,0.1488 0.4802,0.2707 0.6154,0.3855 0.1421,0.1083 0.2299,0.203 0.2773,0.2772 0.0473,0.0814 0.081,0.1693 0.1014,0.2707 0.0205,0.0947 0.0406,0.2163 0.061,0.3583 0.0201,0.1489 0.0269,0.3246 0.0269,0.5344 0,0.2231 -0.007,0.4192 -0.0269,0.5814 -0.0204,0.1624 -0.0541,0.2976 -0.1015,0.3991 -0.0473,0.108 -0.1015,0.1825 -0.1692,0.2299 -0.0675,0.0473 -0.142,0.0674 -0.2163,0.0674 -0.1216,0 -0.2908,-0.0742 -0.5207,-0.2231 -0.2231,-0.142 -0.5139,-0.2976 -0.8722,-0.4665 -0.3586,-0.169 -0.7779,-0.3246 -1.2581,-0.4666 -0.4799,-0.1488 -1.0346,-0.2231 -1.6565,-0.2231 -0.5548,0 -1.0483,0.0607 -1.4675,0.1893 -0.4261,0.1217 -0.771,0.2974 -1.0415,0.5273 -0.2704,0.2302 -0.4802,0.5006 -0.6154,0.8184 -0.142,0.3109 -0.2095,0.6559 -0.2095,1.021 0,0.5139 0.1353,0.9468 0.3989,1.2985 0.2636,0.3515 0.6018,0.656 1.0278,0.9196 0.4193,0.2639 0.9063,0.5006 1.4471,0.7169 0.5411,0.2095 1.0888,0.426 1.6501,0.6491 0.5612,0.2299 1.116,0.4802 1.6636,0.7574 0.5477,0.2773 1.0347,0.6154 1.4539,1.0078 0.426,0.3988 0.7642,0.8722 1.021,1.4266 0.2571,0.5545 0.3856,1.2172 0.3856,1.9814 z m 21.0648,-4.3415 c 0,1.5622 -0.1693,2.9619 -0.5074,4.2063 -0.3314,1.2376 -0.8249,2.2924 -1.4808,3.1581 -0.6492,0.8654 -1.4607,1.535 -2.4211,2.0016 -0.9601,0.4665 -2.0625,0.7032 -3.2998,0.7032 -0.5276,0 -1.0145,-0.0541 -1.4607,-0.1553 -0.4533,-0.1083 -0.8858,-0.2707 -1.3187,-0.5006 -0.426,-0.2231 -0.8521,-0.5071 -1.2713,-0.8521 -0.4261,-0.3382 -0.8725,-0.7438 -1.3459,-1.2036 v 8.9331 c 0,0.1083 -0.027,0.1962 -0.0811,0.2772 -0.0541,0.0811 -0.1352,0.1489 -0.2568,0.203 -0.1219,0.0473 -0.284,0.0879 -0.5006,0.1148 -0.2095,0.0272 -0.4802,0.0405 -0.8116,0.0405 -0.3245,0 -0.5882,-0.0133 -0.7979,-0.0405 -0.2163,-0.0269 -0.3853,-0.0675 -0.5071,-0.1148 -0.1285,-0.0541 -0.2163,-0.1219 -0.2637,-0.203 -0.0473,-0.081 -0.0677,-0.1689 -0.0677,-0.2772 v -24.9194 c 0,-0.1216 0.0204,-0.2162 0.0609,-0.2908 0.0406,-0.0675 0.1216,-0.1352 0.2367,-0.1825 0.1216,-0.0542 0.2704,-0.0947 0.4598,-0.1151 0.1826,-0.0202 0.4124,-0.027 0.6763,-0.027 0.2773,0 0.5072,0.007 0.6897,0.027 0.1758,0.0204 0.3246,0.0609 0.4465,0.1083 0.1216,0.0541 0.2027,0.1218 0.25,0.1893 0.0473,0.0746 0.0677,0.1692 0.0677,0.2908 v 2.3871 c 0.5409,-0.5545 1.0616,-1.0346 1.5622,-1.4471 0.5003,-0.4056 1.0074,-0.7438 1.5146,-1.0142 0.5074,-0.2707 1.0281,-0.4802 1.5621,-0.6154 0.5344,-0.142 1.0956,-0.2098 1.6906,-0.2098 1.2918,0 2.3871,0.2503 3.3001,0.7506 0.9062,0.5071 1.6501,1.1903 2.2249,2.0625 0.5746,0.8725 0.9941,1.8868 1.2578,3.0433 0.2636,1.1562 0.3923,2.3802 0.3923,3.6717 z m -3.4084,0.3787 c 0,-0.9127 -0.0675,-1.7986 -0.2095,-2.6507 -0.1355,-0.8521 -0.3787,-1.6095 -0.7101,-2.2722 -0.3381,-0.6628 -0.7911,-1.1903 -1.3592,-1.5891 -0.568,-0.3991 -1.2781,-0.595 -2.1234,-0.595 -0.4261,0 -0.8385,0.0606 -1.2512,0.1891 -0.4057,0.1287 -0.8249,0.3248 -1.251,0.5952 -0.4192,0.2705 -0.8657,0.6288 -1.3254,1.0752 -0.4598,0.4462 -0.9536,0.9941 -1.4675,1.6433 v 7.0937 c 0.8994,1.1024 1.7515,1.9408 2.5563,2.529 0.8115,0.5817 1.6568,0.8725 2.5426,0.8725 0.8184,0 1.5217,-0.1961 2.1099,-0.5952 0.5884,-0.3989 1.0615,-0.9264 1.4269,-1.5891 0.3651,-0.6628 0.6287,-1.3998 0.8048,-2.2247 0.1689,-0.8183 0.2568,-1.65 0.2568,-2.482 z m 24.8856,-0.2973 c 0,1.4538 -0.1893,2.7926 -0.5748,4.0166 -0.3787,1.2172 -0.9533,2.2723 -1.7107,3.1581 -0.7575,0.8859 -1.711,1.5758 -2.8472,2.0693 -1.1426,0.4938 -2.4681,0.7438 -3.9693,0.7438 -1.4675,0 -2.7457,-0.2163 -3.8344,-0.6559 -1.0888,-0.4329 -1.9948,-1.0684 -2.7185,-1.9001 -0.7234,-0.8319 -1.2645,-1.8462 -1.6228,-3.0296 -0.3586,-1.1903 -0.5343,-2.5359 -0.5343,-4.0439 0,-1.4539 0.1893,-2.793 0.5612,-4.0102 0.3787,-1.224 0.9468,-2.2788 1.7042,-3.1646 0.7574,-0.8858 1.7042,-1.569 2.84,-2.0625 1.1362,-0.487 2.4617,-0.7305 3.9765,-0.7305 1.4675,0 2.7453,0.2163 3.8341,0.6559 1.0888,0.4329 1.9951,1.0684 2.7185,1.9004 0.7236,0.8317 1.2713,1.8394 1.6367,3.0294 0.3583,1.1902 0.5408,2.529 0.5408,4.0238 z m -3.4081,0.2094 c 0,-0.9669 -0.0878,-1.8799 -0.2707,-2.7388 -0.1757,-0.8586 -0.4734,-1.6092 -0.8858,-2.2584 -0.4056,-0.6494 -0.9669,-1.1633 -1.6702,-1.5352 -0.6964,-0.3787 -1.5758,-0.5681 -2.6237,-0.5681 -0.9672,0 -1.7989,0.1693 -2.4954,0.514 -0.6967,0.3449 -1.2645,0.8319 -1.7178,1.4606 -0.4529,0.6291 -0.7843,1.3729 -1.0009,2.2318 -0.2231,0.8589 -0.3311,1.7988 -0.3311,2.8131 0,0.9805 0.0879,1.9003 0.2705,2.7589 0.1757,0.8589 0.4734,1.6095 0.8926,2.2519 0.4192,0.6358 0.9805,1.1497 1.677,1.5216 0.7033,0.3787 1.5823,0.5681 2.6305,0.5681 0.9536,0 1.7785,-0.169 2.4818,-0.514 0.7032,-0.3449 1.2781,-0.8251 1.7314,-1.447 0.4529,-0.6222 0.7843,-1.3661 0.9938,-2.225 0.2098,-0.8588 0.318,-1.8056 0.318,-2.8335 z m 18.6775,-7.7632 c 0,0.2908 -0.007,0.5343 -0.0201,0.7305 -0.0136,0.1961 -0.0405,0.3515 -0.0811,0.4666 -0.034,0.1148 -0.0879,0.1961 -0.1488,0.2568 -0.0541,0.0609 -0.1352,0.0881 -0.2435,0.0881 -0.1083,0 -0.2367,-0.0272 -0.3855,-0.0881 -0.1556,-0.0607 -0.3246,-0.1216 -0.5139,-0.1758 -0.1894,-0.0609 -0.4057,-0.1148 -0.6424,-0.1689 -0.2367,-0.0542 -0.4938,-0.0814 -0.771,-0.0814 -0.3314,0 -0.6559,0.0678 -0.9737,0.1962 -0.3109,0.1352 -0.6491,0.3518 -0.9941,0.6627 -0.3515,0.3045 -0.7169,0.7101 -1.1024,1.2104 -0.3784,0.5074 -0.8045,1.1228 -1.2645,1.853 v 11.7326 c 0,0.1083 -0.027,0.1962 -0.0811,0.2707 -0.0541,0.0675 -0.1352,0.1353 -0.2568,0.1894 -0.1219,0.0473 -0.284,0.0879 -0.5006,0.1148 -0.2095,0.0272 -0.4802,0.0405 -0.8116,0.0405 -0.3245,0 -0.5882,-0.0133 -0.7979,-0.0405 -0.2163,-0.0269 -0.3852,-0.0675 -0.5071,-0.1148 -0.1284,-0.0541 -0.2163,-0.1219 -0.2637,-0.1894 -0.0473,-0.0745 -0.0677,-0.1624 -0.0677,-0.2707 v -17.839 c 0,-0.1082 0.0204,-0.1961 0.0609,-0.2704 0.0406,-0.0677 0.1151,-0.1352 0.2367,-0.1961 0.1216,-0.061 0.2705,-0.1015 0.4598,-0.1219 0.1826,-0.0202 0.4329,-0.027 0.737,-0.027 0.2909,0 0.5343,0.007 0.7237,0.027 0.1962,0.0204 0.345,0.0609 0.453,0.1219 0.1015,0.0609 0.1828,0.1284 0.2302,0.1961 0.0405,0.0743 0.0674,0.1622 0.0674,0.2704 v 2.5969 c 0.487,-0.7169 0.9468,-1.2986 1.3728,-1.7516 0.4329,-0.4464 0.8385,-0.8047 1.2172,-1.0615 0.3855,-0.2571 0.7643,-0.4329 1.1362,-0.5344 0.3787,-0.1015 0.7574,-0.1488 1.1429,-0.1488 0.1689,0 0.3651,0.007 0.5814,0.0269 0.2165,0.0204 0.4464,0.061 0.6831,0.1083 0.2367,0.0542 0.453,0.1151 0.6424,0.1826 0.1893,0.0677 0.3245,0.1287 0.4056,0.1961 0.0813,0.0678 0.1355,0.1284 0.1556,0.1894 0.0269,0.0609 0.0542,0.1352 0.0743,0.2231 0.0204,0.0946 0.034,0.2299 0.0408,0.4059 0.007,0.1825 0.007,0.4192 0.007,0.7234 z m 12.9705,15.3575 c 0,0.3853 -0.0272,0.6897 -0.0813,0.9128 -0.0474,0.2234 -0.1285,0.3923 -0.2367,0.4938 -0.1015,0.108 -0.2637,0.2095 -0.4734,0.2973 -0.2095,0.0947 -0.453,0.1693 -0.7234,0.2302 -0.2707,0.0607 -0.5545,0.108 -0.8589,0.1486 -0.3045,0.0408 -0.6018,0.0609 -0.9063,0.0609 -0.9263,0 -1.7175,-0.1216 -2.3734,-0.3651 -0.6559,-0.2435 -1.1971,-0.6154 -1.6231,-1.1092 -0.4193,-0.4935 -0.7234,-1.1225 -0.9196,-1.8799 -0.1893,-0.7572 -0.284,-1.6498 -0.284,-2.6779 v -10.4003 h -2.509 c -0.1961,0 -0.3583,-0.1083 -0.4802,-0.3181 -0.1148,-0.2095 -0.1757,-0.5544 -0.1757,-1.0346 0,-0.2501 0.0136,-0.4598 0.0473,-0.6288 0.0338,-0.176 0.0811,-0.3177 0.1284,-0.4328 0.0542,-0.1083 0.1287,-0.1894 0.2098,-0.2367 0.0879,-0.0473 0.1826,-0.0678 0.2908,-0.0678 h 2.4886 v -4.2332 c 0,-0.0947 0.0201,-0.1826 0.0674,-0.2568 0.0474,-0.0811 0.1355,-0.1489 0.264,-0.2098 0.1216,-0.0607 0.2908,-0.1012 0.5071,-0.1284 0.2097,-0.0269 0.4734,-0.0405 0.7979,-0.0405 0.3314,0 0.6018,0.0136 0.8116,0.0405 0.2163,0.0272 0.3787,0.0677 0.5003,0.1284 0.1219,0.0609 0.203,0.1287 0.2571,0.2098 0.0541,0.0742 0.0811,0.1621 0.0811,0.2568 v 4.2332 h 4.5442 c 0.1083,0 0.1961,0.0205 0.2772,0.0678 0.0746,0.0473 0.1488,0.1284 0.203,0.2367 0.0609,0.1151 0.1015,0.2568 0.1284,0.4328 0.0272,0.169 0.0408,0.3787 0.0408,0.6288 0,0.4802 -0.0609,0.8251 -0.176,1.0346 -0.1216,0.2098 -0.2773,0.3181 -0.4734,0.3181 h -4.5442 v 9.9204 c 0,1.224 0.1825,2.1503 0.5408,2.7725 0.3586,0.6288 1.0077,0.94 1.9409,0.94 0.2976,0 0.5681,-0.0272 0.8048,-0.0879 0.2366,-0.0609 0.4464,-0.1219 0.629,-0.1893 0.1825,-0.0678 0.3381,-0.1287 0.4734,-0.1894 0.1284,-0.0609 0.25,-0.0881 0.3514,-0.0881 0.0678,0 0.1285,0.0136 0.1894,0.0473 0.0541,0.034 0.1015,0.0947 0.1352,0.1894 0.034,0.0946 0.061,0.2165 0.0879,0.3787 0.0272,0.1556 0.0408,0.3585 0.0408,0.5952 z m 19.0766,-8.3718 c 0,0.5139 -0.1287,0.879 -0.3855,1.1021 -0.2571,0.2166 -0.5545,0.3246 -0.8858,0.3246 h -11.7125 c 0,0.9941 0.1015,1.8867 0.2973,2.6779 0.1962,0.7979 0.5276,1.4811 0.9942,2.0491 0.4597,0.5681 1.0618,1.0009 1.7988,1.3051 0.7438,0.3044 1.6501,0.4598 2.7184,0.4598 0.8453,0 1.6028,-0.0675 2.2587,-0.2095 0.6627,-0.1352 1.2376,-0.2908 1.7178,-0.4598 0.4799,-0.1692 0.879,-0.3248 1.19,-0.46 0.3112,-0.1421 0.5411,-0.2095 0.7033,-0.2095 0.0946,0 0.176,0.0201 0.2502,0.0674 0.0678,0.0474 0.1285,0.1151 0.1622,0.2098 0.0408,0.0879 0.0745,0.2163 0.0947,0.3787 0.0204,0.169 0.0272,0.3651 0.0272,0.6018 0,0.169 -0.007,0.3178 -0.0204,0.4465 -0.0134,0.1216 -0.027,0.2367 -0.0474,0.3313 -0.0201,0.1012 -0.0541,0.1891 -0.1012,0.2705 -0.0473,0.0742 -0.1014,0.1488 -0.176,0.223 -0.0743,0.0743 -0.2908,0.1894 -0.6423,0.3518 -0.3583,0.169 -0.8184,0.3246 -1.3865,0.4867 -0.568,0.1557 -1.224,0.2977 -1.9678,0.4193 -0.7438,0.1287 -1.5349,0.1893 -2.3802,0.1893 -1.4675,0 -2.7457,-0.2026 -3.8478,-0.6154 -1.1024,-0.4056 -2.0287,-1.0142 -2.7793,-1.819 -0.7506,-0.8115 -1.3187,-1.819 -1.6974,-3.0362 -0.3855,-1.2106 -0.5749,-2.624 -0.5749,-4.24 0,-1.5285 0.1962,-2.9078 0.5953,-4.1318 0.392,-1.2172 0.9669,-2.2586 1.7107,-3.1107 0.7438,-0.8521 1.65,-1.5013 2.7051,-1.961 1.0548,-0.4533 2.2382,-0.6832 3.5433,-0.6832 1.3998,0 2.59,0.2231 3.5705,0.6764 0.9873,0.4461 1.7921,1.0547 2.4279,1.8121 0.6287,0.7575 1.0953,1.6501 1.3929,2.6779 0.2977,1.0211 0.4465,2.1167 0.4465,3.2797 z m -3.2868,-0.9672 c 0.0409,-1.7175 -0.3379,-3.0699 -1.1426,-4.0507 -0.8048,-0.9805 -1.9882,-1.4672 -3.5637,-1.4672 -0.8116,0 -1.5217,0.1488 -2.1303,0.453 -0.6086,0.3044 -1.1157,0.71 -1.5284,1.2172 -0.4124,0.5006 -0.7302,1.0888 -0.9533,1.7515 -0.2234,0.6695 -0.3518,1.366 -0.3787,2.0962 z m 25.5756,11.158 -2.3737,6.5662 c -0.0811,0.2098 -0.284,0.3719 -0.6086,0.487 -0.3178,0.1151 -0.8113,0.1689 -1.474,0.1689 -0.345,0 -0.6222,-0.0133 -0.832,-0.0473 -0.2095,-0.0337 -0.3719,-0.0947 -0.4867,-0.1689 -0.1083,-0.0811 -0.1692,-0.1894 -0.1826,-0.3178 -0.0136,-0.1352 0.0202,-0.2908 0.0947,-0.4802 l 2.4613,-6.2079 c -0.1216,-0.0541 -0.2366,-0.142 -0.3381,-0.2571 -0.108,-0.1216 -0.1826,-0.2432 -0.2163,-0.3784 l -6.3635,-17.0413 c -0.108,-0.2773 -0.1553,-0.5003 -0.1553,-0.656 0,-0.1624 0.0473,-0.284 0.1553,-0.3787 0.1083,-0.0946 0.2772,-0.1556 0.5139,-0.1893 0.2367,-0.0338 0.5548,-0.0474 0.9536,-0.0474 0.3923,0 0.7033,0.007 0.9332,0.027 0.2233,0.0204 0.3991,0.0609 0.5343,0.1151 0.1284,0.0473 0.2231,0.1284 0.284,0.223 0.061,0.1015 0.1216,0.2367 0.1894,0.406 l 5.0921,14.309 h 0.0607 l 4.9096,-14.3836 c 0.0811,-0.2568 0.1757,-0.4192 0.2908,-0.4867 0.108,-0.0745 0.2773,-0.1287 0.5003,-0.1624 0.2299,-0.0338 0.5545,-0.0474 0.9737,-0.0474 0.372,0 0.6764,0.0136 0.9131,0.0474 0.2367,0.0337 0.4124,0.0947 0.5207,0.1893 0.1148,0.0947 0.169,0.2163 0.169,0.3787 0,0.1557 -0.0406,0.3583 -0.1148,0.595 z m 38.9917,-1.2036 c 0.1015,0.2906 0.1624,0.5208 0.1692,0.7033 0.007,0.1758 -0.0473,0.311 -0.1488,0.4057 -0.1083,0.0878 -0.284,0.1488 -0.5275,0.1757 -0.2435,0.0272 -0.5681,0.0405 -0.9805,0.0405 -0.4059,0 -0.7373,-0.007 -0.9805,-0.0269 -0.2435,-0.0204 -0.4261,-0.0541 -0.5548,-0.1015 -0.1284,-0.0473 -0.2162,-0.1083 -0.2772,-0.1893 -0.0606,-0.0811 -0.1148,-0.1758 -0.1689,-0.2977 l -2.1977,-6.2416 h -10.6577 l -2.1031,6.1606 c -0.0405,0.1219 -0.0878,0.223 -0.1556,0.3112 -0.0674,0.0879 -0.1621,0.1553 -0.2905,0.2163 -0.1219,0.0609 -0.3045,0.1015 -0.5344,0.1284 -0.2298,0.0272 -0.5275,0.0405 -0.8994,0.0405 -0.3855,0 -0.6965,-0.0133 -0.94,-0.0473 -0.2435,-0.0337 -0.4192,-0.0947 -0.5139,-0.1894 -0.1015,-0.0946 -0.1488,-0.2298 -0.142,-0.4056 0.007,-0.1825 0.0609,-0.4124 0.1689,-0.7033 l 8.5953,-23.8238 c 0.0538,-0.1488 0.1284,-0.2704 0.2094,-0.3585 0.0879,-0.0947 0.2098,-0.169 0.3787,-0.2163 0.1625,-0.0542 0.372,-0.0947 0.6359,-0.1151 0.2568,-0.0201 0.5813,-0.0269 0.9805,-0.0269 0.4192,0 0.7707,0.007 1.0479,0.0269 0.2775,0.0204 0.5006,0.0609 0.6696,0.1151 0.1757,0.0473 0.3044,0.1284 0.3991,0.2231 0.0947,0.1014 0.1689,0.2231 0.2163,0.3651 z m -11.0361,-21.031 h -0.0204 l -4.4158,12.7808 h 8.9129 z"
           style="fill:#0d670d;fill-rule:evenodd;stroke:#0d670d;stroke-width:0.216;stroke-linecap:butt;stroke-linejoin:miter;stroke-dasharray:none"
           id="path93" />
        <path
           d="m 327.0212,609.3201 c 0,0.4666 -0.061,0.798 -0.1894,1.0077 -0.1219,0.2027 -0.284,0.3042 -0.487,0.3042 h -2.5631 c 0.4669,0.4734 0.7915,0.9941 0.974,1.5622 0.1826,0.568 0.2772,1.163 0.2772,1.7784 0,1.0279 -0.1624,1.9409 -0.4938,2.7321 -0.3313,0.7911 -0.8047,1.4607 -1.4198,2.0083 -0.6154,0.5547 -1.3459,0.974 -2.1912,1.2648 -0.8453,0.2906 -1.7853,0.4326 -2.8131,0.4326 -0.7237,0 -1.4202,-0.0947 -2.0693,-0.284 -0.6559,-0.1959 -1.1631,-0.4326 -1.5216,-0.7234 -0.2231,0.2367 -0.4057,0.5071 -0.5545,0.8115 -0.142,0.311 -0.2163,0.6625 -0.2163,1.0548 0,0.4666 0.2163,0.8521 0.6424,1.1562 0.426,0.3113 1.0009,0.4734 1.7109,0.5006 l 4.6457,0.1962 c 0.8791,0.0269 1.6906,0.1488 2.4276,0.3651 0.7373,0.2231 1.3797,0.5275 1.9205,0.9332 0.5411,0.3991 0.9604,0.8994 1.2648,1.4811 0.3042,0.5882 0.453,1.2713 0.453,2.0489 0,0.8183 -0.1692,1.5959 -0.5139,2.3329 -0.345,0.7373 -0.8657,1.3864 -1.5758,1.9476 -0.7033,0.5613 -1.6092,1.0078 -2.7048,1.3255 -1.0956,0.3246 -2.3871,0.4867 -3.8818,0.4867 -1.4403,0 -2.6643,-0.1216 -3.6717,-0.3651 -1.0077,-0.2435 -1.8394,-0.5813 -2.4888,-1.0009 -0.6423,-0.4257 -1.1157,-0.9263 -1.4066,-1.5145 -0.2905,-0.5885 -0.4325,-1.2308 -0.4325,-1.914 0,-0.4394 0.0538,-0.8586 0.1553,-1.2713 0.1083,-0.4057 0.2707,-0.798 0.487,-1.1699 0.2163,-0.3651 0.487,-0.7234 0.8116,-1.0547 0.3245,-0.3382 0.6964,-0.6696 1.1225,-1.001 -0.6426,-0.3313 -1.116,-0.7506 -1.427,-1.2509 -0.3041,-0.5006 -0.4598,-1.0414 -0.4598,-1.6231 0,-0.8048 0.1622,-1.5282 0.487,-2.164 0.3246,-0.6287 0.7234,-1.1968 1.2036,-1.7042 -0.4056,-0.4867 -0.7305,-1.0346 -0.9669,-1.6497 -0.2367,-0.6154 -0.3586,-1.3595 -0.3586,-2.2317 0,-1.0143 0.1693,-1.9273 0.514,-2.7321 0.3449,-0.8047 0.8183,-1.4876 1.4269,-2.0421 0.6086,-0.5547 1.3388,-0.9807 2.1909,-1.2781 0.8521,-0.2976 1.7853,-0.4465 2.7862,-0.4465 0.5476,0 1.0482,0.0338 1.5216,0.0947 0.4666,0.0678 0.906,0.1556 1.3187,0.2704 h 5.3895 c 0.2299,0 0.3923,0.1083 0.5071,0.3249 0.1151,0.2231 0.1693,0.5545 0.1693,1.0006 z m -5.1126,4.6797 c 0,-1.2106 -0.3314,-2.1571 -1.0006,-2.8335 -0.6696,-0.6828 -1.6163,-1.021 -2.8403,-1.021 -0.6356,0 -1.1903,0.108 -1.6569,0.3178 -0.4666,0.2094 -0.8589,0.5003 -1.1699,0.8657 -0.3109,0.3719 -0.5408,0.7979 -0.6896,1.2778 -0.1556,0.4802 -0.2299,0.9873 -0.2299,1.5148 0,1.1699 0.3314,2.0897 1.0006,2.7658 0.6696,0.6696 1.6027,1.0077 2.8066,1.0077 0.6423,0 1.2036,-0.1015 1.6838,-0.3044 0.4734,-0.2095 0.8654,-0.4867 1.1766,-0.8521 0.311,-0.3651 0.5409,-0.7844 0.6897,-1.2577 0.1556,-0.4734 0.2299,-0.9669 0.2299,-1.4809 z m 1.6231,14.1132 c 0,-0.7642 -0.3112,-1.3527 -0.94,-1.772 -0.6222,-0.4124 -1.4743,-0.6355 -2.5426,-0.6627 l -4.6052,-0.1553 c -0.4192,0.3313 -0.771,0.6423 -1.0414,0.9399 -0.2705,0.2974 -0.4802,0.5746 -0.6424,0.8453 -0.1556,0.2704 -0.2639,0.5409 -0.3245,0.8048 -0.061,0.2636 -0.0882,0.534 -0.0882,0.8044 0,0.8589 0.4329,1.5081 1.3054,1.9477 0.8722,0.4397 2.0826,0.6628 3.6379,0.6628 0.9873,0 1.8193,-0.0947 2.4818,-0.2841 0.6695,-0.1961 1.2038,-0.4464 1.6095,-0.7642 0.4124,-0.3177 0.7033,-0.676 0.8858,-1.082 0.176,-0.4124 0.2639,-0.8385 0.2639,-1.2846 z m 18.123,-18.4683 c 0,0.2908 -0.007,0.5343 -0.0201,0.7305 -0.0136,0.1961 -0.0405,0.3515 -0.0811,0.4666 -0.034,0.1148 -0.0878,0.1961 -0.1488,0.2568 -0.0541,0.0609 -0.1352,0.0881 -0.2435,0.0881 -0.1083,0 -0.2367,-0.0272 -0.3855,-0.0881 -0.1556,-0.0607 -0.3246,-0.1216 -0.5139,-0.1758 -0.1894,-0.0609 -0.4056,-0.1148 -0.6423,-0.1689 -0.2367,-0.0542 -0.4938,-0.0814 -0.7711,-0.0814 -0.3313,0 -0.6559,0.0678 -0.9737,0.1962 -0.3109,0.1352 -0.6491,0.3518 -0.9941,0.6627 -0.3515,0.3045 -0.7169,0.7101 -1.1024,1.2104 -0.3784,0.5074 -0.8044,1.1228 -1.2645,1.853 v 11.7326 c 0,0.1083 -0.0269,0.1962 -0.0811,0.2707 -0.0541,0.0675 -0.1352,0.1353 -0.2568,0.1894 -0.1219,0.0473 -0.284,0.0879 -0.5006,0.1148 -0.2095,0.0272 -0.4802,0.0405 -0.8115,0.0405 -0.3246,0 -0.5882,-0.0133 -0.798,-0.0405 -0.2163,-0.0269 -0.3852,-0.0675 -0.5071,-0.1148 -0.1284,-0.0541 -0.2163,-0.1219 -0.2636,-0.1894 -0.0474,-0.0745 -0.0678,-0.1624 -0.0678,-0.2707 v -17.839 c 0,-0.1082 0.0204,-0.1961 0.061,-0.2704 0.0405,-0.0677 0.115,-0.1352 0.2367,-0.1961 0.1216,-0.061 0.2704,-0.1015 0.4597,-0.1219 0.1826,-0.0202 0.4329,-0.027 0.737,-0.027 0.2909,0 0.5344,0.007 0.7237,0.027 0.1962,0.0204 0.345,0.0609 0.453,0.1219 0.1015,0.0609 0.1828,0.1284 0.2302,0.1961 0.0405,0.0743 0.0674,0.1622 0.0674,0.2704 v 2.5969 c 0.487,-0.7169 0.9468,-1.2986 1.3729,-1.7516 0.4328,-0.4464 0.8384,-0.8047 1.2172,-1.0615 0.3855,-0.2571 0.7642,-0.4329 1.1361,-0.5344 0.3787,-0.1015 0.7574,-0.1488 1.1429,-0.1488 0.169,0 0.3651,0.007 0.5814,0.0269 0.2166,0.0204 0.4465,0.061 0.6831,0.1083 0.2367,0.0542 0.453,0.1151 0.6424,0.1826 0.1893,0.0677 0.3245,0.1287 0.4056,0.1961 0.0814,0.0678 0.1355,0.1284 0.1556,0.1894 0.027,0.0609 0.0542,0.1352 0.0743,0.2231 0.0204,0.0946 0.034,0.2299 0.0408,0.4059 0.007,0.1825 0.007,0.4192 0.007,0.7234 z m 19.6178,7.5538 c 0,1.4538 -0.1894,2.7926 -0.5749,4.0166 -0.3787,1.2172 -0.9533,2.2723 -1.7107,3.1581 -0.7574,0.8859 -1.711,1.5758 -2.8471,2.0693 -1.1427,0.4938 -2.4681,0.7438 -3.9694,0.7438 -1.4675,0 -2.7456,-0.2163 -3.8344,-0.6559 -1.0888,-0.4329 -1.9947,-1.0684 -2.7184,-1.9001 -0.7234,-0.8319 -1.2646,-1.8462 -1.6229,-3.0296 -0.3585,-1.1903 -0.5343,-2.5359 -0.5343,-4.0439 0,-1.4539 0.1894,-2.793 0.5613,-4.0102 0.3787,-1.224 0.9467,-2.2788 1.7042,-3.1646 0.7574,-0.8858 1.7041,-1.569 2.84,-2.0625 1.1361,-0.487 2.4616,-0.7305 3.9764,-0.7305 1.4675,0 2.7454,0.2163 3.8342,0.6559 1.0888,0.4329 1.995,1.0684 2.7184,1.9004 0.7237,0.8317 1.2713,1.8394 1.6367,3.0294 0.3583,1.1902 0.5409,2.529 0.5409,4.0238 z m -3.4081,0.2094 c 0,-0.9669 -0.0879,-1.8799 -0.2707,-2.7388 -0.1758,-0.8586 -0.4734,-1.6092 -0.8859,-2.2584 -0.4056,-0.6494 -0.9669,-1.1633 -1.6701,-1.5352 -0.6965,-0.3787 -1.5758,-0.5681 -2.6238,-0.5681 -0.9672,0 -1.7988,0.1693 -2.4953,0.514 -0.6968,0.3449 -1.2646,0.8319 -1.7178,1.4606 -0.453,0.6291 -0.7844,1.3729 -1.0009,2.2318 -0.2231,0.8589 -0.3311,1.7988 -0.3311,2.8131 0,0.9805 0.0879,1.9003 0.2704,2.7589 0.1758,0.8589 0.4734,1.6095 0.8926,2.2519 0.4193,0.6358 0.9805,1.1497 1.677,1.5216 0.7033,0.3787 1.5823,0.5681 2.6306,0.5681 0.9535,0 1.7784,-0.169 2.4817,-0.514 0.7033,-0.3449 1.2781,-0.8251 1.7314,-1.447 0.453,-0.6222 0.7844,-1.3661 0.9938,-2.225 0.2098,-0.8588 0.3181,-1.8056 0.3181,-2.8335 z m 23.1409,-8.0878 c 0,0.4666 -0.061,0.798 -0.1894,1.0077 -0.1219,0.2027 -0.284,0.3042 -0.487,0.3042 h -2.563 c 0.4668,0.4734 0.7914,0.9941 0.9739,1.5622 0.1826,0.568 0.2773,1.163 0.2773,1.7784 0,1.0279 -0.1625,1.9409 -0.4938,2.7321 -0.3314,0.7911 -0.8048,1.4607 -1.4199,2.0083 -0.6154,0.5547 -1.3459,0.974 -2.1912,1.2648 -0.8453,0.2906 -1.7852,0.4326 -2.8131,0.4326 -0.7237,0 -1.4201,-0.0947 -2.0693,-0.284 -0.6559,-0.1959 -1.163,-0.4326 -1.5216,-0.7234 -0.2231,0.2367 -0.4056,0.5071 -0.5545,0.8115 -0.142,0.311 -0.2163,0.6625 -0.2163,1.0548 0,0.4666 0.2163,0.8521 0.6424,1.1562 0.426,0.3113 1.0009,0.4734 1.711,0.5006 l 4.6457,0.1962 c 0.879,0.0269 1.6906,0.1488 2.4276,0.3651 0.7373,0.2231 1.3796,0.5275 1.9204,0.9332 0.5412,0.3991 0.9604,0.8994 1.2649,1.4811 0.3041,0.5882 0.4529,1.2713 0.4529,2.0489 0,0.8183 -0.1692,1.5959 -0.5139,2.3329 -0.345,0.7373 -0.8657,1.3864 -1.5758,1.9476 -0.7032,0.5613 -1.6092,1.0078 -2.7048,1.3255 -1.0956,0.3246 -2.387,0.4867 -3.8818,0.4867 -1.4402,0 -2.6642,-0.1216 -3.6717,-0.3651 -1.0077,-0.2435 -1.8394,-0.5813 -2.4888,-1.0009 -0.6423,-0.4257 -1.1157,-0.9263 -1.4065,-1.5145 -0.2906,-0.5885 -0.4326,-1.2308 -0.4326,-1.914 0,-0.4394 0.0539,-0.8586 0.1553,-1.2713 0.1083,-0.4057 0.2707,-0.798 0.487,-1.1699 0.2163,-0.3651 0.487,-0.7234 0.8116,-1.0547 0.3246,-0.3382 0.6965,-0.6696 1.1225,-1.001 -0.6426,-0.3313 -1.116,-0.7506 -1.427,-1.2509 -0.3041,-0.5006 -0.4597,-1.0414 -0.4597,-1.6231 0,-0.8048 0.1621,-1.5282 0.487,-2.164 0.3245,-0.6287 0.7234,-1.1968 1.2035,-1.7042 -0.4056,-0.4867 -0.7304,-1.0346 -0.9669,-1.6497 -0.2366,-0.6154 -0.3585,-1.3595 -0.3585,-2.2317 0,-1.0143 0.1692,-1.9273 0.5139,-2.7321 0.345,-0.8047 0.8183,-1.4876 1.4269,-2.0421 0.6086,-0.5547 1.3389,-0.9807 2.1909,-1.2781 0.8521,-0.2976 1.7853,-0.4465 2.7862,-0.4465 0.5477,0 1.0483,0.0338 1.5217,0.0947 0.4665,0.0678 0.9059,0.1556 1.3186,0.2704 h 5.3895 c 0.2299,0 0.3924,0.1083 0.5072,0.3249 0.115,0.2231 0.1692,0.5545 0.1692,1.0006 z m -5.1126,4.6797 c 0,-1.2106 -0.3313,-2.1571 -1.0006,-2.8335 -0.6695,-0.6828 -1.6163,-1.021 -2.8403,-1.021 -0.6355,0 -1.1903,0.108 -1.6569,0.3178 -0.4666,0.2094 -0.8589,0.5003 -1.1698,0.8657 -0.311,0.3719 -0.5409,0.7979 -0.6897,1.2778 -0.1556,0.4802 -0.2299,0.9873 -0.2299,1.5148 0,1.1699 0.3314,2.0897 1.0006,2.7658 0.6696,0.6696 1.6028,1.0077 2.8066,1.0077 0.6424,0 1.2036,-0.1015 1.6838,-0.3044 0.4734,-0.2095 0.8654,-0.4867 1.1767,-0.8521 0.3109,-0.3651 0.5408,-0.7844 0.6896,-1.2577 0.1557,-0.4734 0.2299,-0.9669 0.2299,-1.4809 z m 1.6231,14.1132 c 0,-0.7642 -0.3112,-1.3527 -0.9399,-1.772 -0.6222,-0.4124 -1.4743,-0.6355 -2.5427,-0.6627 l -4.6052,-0.1553 c -0.4192,0.3313 -0.771,0.6423 -1.0414,0.9399 -0.2704,0.2974 -0.4802,0.5746 -0.6423,0.8453 -0.1557,0.2704 -0.264,0.5409 -0.3246,0.8048 -0.061,0.2636 -0.0882,0.534 -0.0882,0.8044 0,0.8589 0.4329,1.5081 1.3054,1.9477 0.8722,0.4397 2.0826,0.6628 3.638,0.6628 0.9873,0 1.8192,-0.0947 2.4817,-0.2841 0.6695,-0.1961 1.2039,-0.4464 1.6095,-0.7642 0.4125,-0.3177 0.7033,-0.676 0.8858,-1.082 0.1761,-0.4124 0.2639,-0.8385 0.2639,-1.2846 z m 20.3752,-1.7652 c 0,0.1557 -0.0541,0.2773 -0.1556,0.3583 -0.1083,0.0814 -0.2503,0.1355 -0.4397,0.1761 -0.1825,0.0405 -0.453,0.0606 -0.8113,0.0606 -0.3381,0 -0.6154,-0.0201 -0.8183,-0.0606 -0.203,-0.0406 -0.3518,-0.0947 -0.4465,-0.1761 -0.0947,-0.081 -0.142,-0.1958 -0.142,-0.3583 v -1.7852 c -0.7775,0.8317 -1.6432,1.4811 -2.6033,1.9409 -0.9604,0.4529 -1.9746,0.6828 -3.043,0.6828 -0.94,0 -1.7921,-0.1216 -2.5495,-0.3651 -0.7574,-0.2435 -1.4066,-0.6018 -1.9409,-1.0615 -0.5343,-0.4601 -0.9536,-1.0347 -1.2509,-1.7042 -0.2977,-0.6764 -0.4465,-1.4406 -0.4465,-2.2992 0,-1.0077 0.203,-1.88 0.6154,-2.6172 0.4057,-0.7439 0.9941,-1.3593 1.7652,-1.846 0.7639,-0.487 1.7039,-0.8589 2.8131,-1.1024 1.1089,-0.2435 2.3601,-0.3651 3.7462,-0.3651 h 2.4616 v -1.3929 c 0,-0.6832 -0.0745,-1.2918 -0.2165,-1.8261 -0.1488,-0.5272 -0.3787,-0.9669 -0.7033,-1.3187 -0.3246,-0.3515 -0.7438,-0.6154 -1.2577,-0.7911 -0.514,-0.1826 -1.1498,-0.2704 -1.9004,-0.2704 -0.8045,0 -1.5281,0.0946 -2.164,0.2908 -0.6423,0.1962 -1.2035,0.4056 -1.6837,0.6423 -0.4802,0.2367 -0.8859,0.4465 -1.2104,0.6424 -0.3178,0.1961 -0.5613,0.2908 -0.7169,0.2908 -0.108,0 -0.2027,-0.0269 -0.2772,-0.0811 -0.0811,-0.0473 -0.1489,-0.1284 -0.2095,-0.2367 -0.061,-0.1015 -0.1015,-0.2367 -0.1287,-0.3988 -0.0269,-0.1692 -0.0405,-0.345 -0.0405,-0.5479 0,-0.3246 0.0204,-0.5882 0.0677,-0.7776 0.0473,-0.1893 0.1621,-0.3719 0.3382,-0.5411 0.1757,-0.169 0.4867,-0.3719 0.9195,-0.6086 0.4329,-0.2299 0.94,-0.4462 1.5081,-0.6423 0.5612,-0.1894 1.1834,-0.3518 1.8595,-0.4802 0.6695,-0.1284 1.3527,-0.1894 2.0356,-0.1894 1.2781,0 2.3669,0.142 3.2663,0.4329 0.8992,0.2908 1.6229,0.7234 2.1773,1.2849 0.5545,0.5613 0.9536,1.2577 1.2039,2.0894 0.25,0.8317 0.3787,1.8057 0.3787,2.9146 z m -3.246,-8.1688 h -2.7929 c -0.8927,0 -1.6702,0.0742 -2.333,0.2299 -0.6559,0.1488 -1.2038,0.3787 -1.6432,0.6763 -0.4328,0.2974 -0.7506,0.6491 -0.9604,1.0684 -0.2029,0.4192 -0.3041,0.8994 -0.3041,1.4403 0,0.9263 0.2905,1.6636 0.879,2.2113 0.5882,0.5476 1.4065,0.8251 2.4681,0.8251 0.8521,0 1.6501,-0.2165 2.3806,-0.6559 0.7302,-0.4329 1.5012,-1.1024 2.3059,-2.0018 z m 24.588,8.1484 c 0,0.1083 -0.0269,0.1962 -0.081,0.2707 -0.0542,0.0675 -0.1352,0.1353 -0.2571,0.1894 -0.1216,0.0473 -0.2841,0.0879 -0.5003,0.1148 -0.2098,0.0272 -0.4734,0.0405 -0.7912,0.0405 -0.3382,0 -0.6086,-0.0133 -0.8184,-0.0405 -0.2162,-0.0269 -0.3787,-0.0675 -0.5003,-0.1148 -0.1219,-0.0541 -0.2029,-0.1219 -0.2571,-0.1894 -0.0541,-0.0745 -0.081,-0.1624 -0.081,-0.2707 v -10.4476 c 0,-1.0145 -0.0811,-1.8394 -0.2367,-2.4548 -0.1557,-0.6222 -0.3856,-1.1563 -0.6897,-1.6095 -0.3045,-0.4462 -0.69,-0.7912 -1.1699,-1.0279 -0.4802,-0.2367 -1.0346,-0.3583 -1.6636,-0.3583 -0.8184,0 -1.6297,0.2906 -2.4412,0.8722 -0.8184,0.5817 -1.6705,1.4338 -2.5631,2.5563 v 12.4696 c 0,0.1083 -0.0269,0.1962 -0.0811,0.2707 -0.0541,0.0675 -0.1352,0.1353 -0.2568,0.1894 -0.1219,0.0473 -0.284,0.0879 -0.5006,0.1148 -0.2095,0.0272 -0.4802,0.0405 -0.8116,0.0405 -0.3245,0 -0.5881,-0.0133 -0.7979,-0.0405 -0.2163,-0.0269 -0.3852,-0.0675 -0.5071,-0.1148 -0.1284,-0.0541 -0.2163,-0.1219 -0.2636,-0.1894 -0.0474,-0.0745 -0.0678,-0.1624 -0.0678,-0.2707 v -17.839 c 0,-0.1082 0.0204,-0.1961 0.061,-0.2704 0.0405,-0.0677 0.115,-0.1352 0.2366,-0.1961 0.1216,-0.061 0.2705,-0.1015 0.4598,-0.1219 0.1826,-0.0202 0.4329,-0.027 0.737,-0.027 0.2909,0 0.5344,0.007 0.7237,0.027 0.1962,0.0204 0.345,0.0609 0.453,0.1219 0.1015,0.0609 0.1828,0.1284 0.2302,0.1961 0.0405,0.0743 0.0674,0.1622 0.0674,0.2704 v 2.3602 c 1.0009,-1.1294 1.9951,-1.9545 2.9957,-2.4752 0.9941,-0.5208 1.995,-0.7844 3.0092,-0.7844 1.1835,0 2.1844,0.203 2.996,0.6018 0.8113,0.4059 1.4672,0.9468 1.9678,1.6163 0.5003,0.6764 0.8589,1.4675 1.0752,2.3735 0.2163,0.9062 0.3245,1.995 0.3245,3.2595 z m 19.4083,0.0204 c 0,0.1557 -0.0542,0.2773 -0.1556,0.3583 -0.1083,0.0814 -0.2503,0.1355 -0.4397,0.1761 -0.1825,0.0405 -0.453,0.0606 -0.8113,0.0606 -0.3381,0 -0.6154,-0.0201 -0.8183,-0.0606 -0.203,-0.0406 -0.3518,-0.0947 -0.4465,-0.1761 -0.0947,-0.081 -0.142,-0.1958 -0.142,-0.3583 v -1.7852 c -0.7775,0.8317 -1.6432,1.4811 -2.6033,1.9409 -0.9604,0.4529 -1.9746,0.6828 -3.043,0.6828 -0.94,0 -1.7921,-0.1216 -2.5495,-0.3651 -0.7574,-0.2435 -1.4066,-0.6018 -1.9409,-1.0615 -0.5343,-0.4601 -0.9536,-1.0347 -1.2509,-1.7042 -0.2977,-0.6764 -0.4465,-1.4406 -0.4465,-2.2992 0,-1.0077 0.203,-1.88 0.6154,-2.6172 0.4057,-0.7439 0.9941,-1.3593 1.7652,-1.846 0.7639,-0.487 1.7039,-0.8589 2.8131,-1.1024 1.1089,-0.2435 2.3601,-0.3651 3.7462,-0.3651 h 2.4616 v -1.3929 c 0,-0.6832 -0.0745,-1.2918 -0.2165,-1.8261 -0.1488,-0.5272 -0.3787,-0.9669 -0.7033,-1.3187 -0.3246,-0.3515 -0.7438,-0.6154 -1.2577,-0.7911 -0.514,-0.1826 -1.1498,-0.2704 -1.9004,-0.2704 -0.8045,0 -1.5281,0.0946 -2.164,0.2908 -0.6423,0.1962 -1.2035,0.4056 -1.6837,0.6423 -0.4802,0.2367 -0.8859,0.4465 -1.2104,0.6424 -0.3178,0.1961 -0.5613,0.2908 -0.7169,0.2908 -0.108,0 -0.2027,-0.0269 -0.2772,-0.0811 -0.0811,-0.0473 -0.1489,-0.1284 -0.2095,-0.2367 -0.061,-0.1015 -0.1015,-0.2367 -0.1287,-0.3988 -0.0269,-0.1692 -0.0405,-0.345 -0.0405,-0.5479 0,-0.3246 0.0204,-0.5882 0.0677,-0.7776 0.0473,-0.1893 0.1621,-0.3719 0.3382,-0.5411 0.1757,-0.169 0.4867,-0.3719 0.9195,-0.6086 0.4329,-0.2299 0.94,-0.4462 1.5081,-0.6423 0.5612,-0.1894 1.1834,-0.3518 1.8595,-0.4802 0.6695,-0.1284 1.3527,-0.1894 2.0356,-0.1894 1.2781,0 2.3669,0.142 3.2663,0.4329 0.8992,0.2908 1.6229,0.7234 2.1773,1.2849 0.5545,0.5613 0.9536,1.2577 1.2039,2.0894 0.25,0.8317 0.3787,1.8057 0.3787,2.9146 z m -3.246,-8.1688 h -2.7929 c -0.8927,0 -1.6702,0.0742 -2.333,0.2299 -0.6559,0.1488 -1.2038,0.3787 -1.6432,0.6763 -0.4328,0.2974 -0.7506,0.6491 -0.9604,1.0684 -0.2029,0.4192 -0.3041,0.8994 -0.3041,1.4403 0,0.9263 0.2905,1.6636 0.879,2.2113 0.5882,0.5476 1.4065,0.8251 2.4681,0.8251 0.8521,0 1.6501,-0.2165 2.3806,-0.6559 0.7302,-0.4329 1.5012,-1.1024 2.3059,-2.0018 z m 24.507,8.1484 c 0,0.1083 -0.0204,0.1962 -0.0678,0.2775 -0.0473,0.0811 -0.1284,0.1421 -0.2367,0.1894 -0.1148,0.0473 -0.2636,0.0811 -0.4461,0.108 -0.1894,0.0272 -0.4125,0.0405 -0.6764,0.0405 -0.2772,0 -0.5071,-0.0133 -0.6897,-0.0405 -0.1893,-0.0269 -0.3381,-0.0607 -0.4597,-0.108 -0.1151,-0.0473 -0.203,-0.1083 -0.2571,-0.1894 -0.0474,-0.0813 -0.0743,-0.176 -0.0743,-0.2775 v -2.3734 c -0.94,1.021 -1.914,1.8122 -2.9214,2.3802 -1.0145,0.5681 -2.1166,0.8521 -3.3205,0.8521 -1.3051,0 -2.4208,-0.2568 -3.3406,-0.7642 -0.9264,-0.5071 -1.677,-1.1968 -2.2519,-2.0625 -0.568,-0.8654 -0.9873,-1.8799 -1.2509,-3.0498 -0.2636,-1.1698 -0.3991,-2.4006 -0.3991,-3.6921 0,-1.5352 0.1624,-2.9214 0.4938,-4.1522 0.3313,-1.2376 0.8183,-2.2924 1.4675,-3.1649 0.6423,-0.8722 1.4471,-1.5417 2.4074,-2.0083 0.9533,-0.4666 2.0557,-0.7033 3.3135,-0.7033 1.0414,0 1.995,0.2299 2.8604,0.6832 0.8657,0.4597 1.7178,1.1293 2.5631,2.0151 v -10.3396 c 0,-0.0947 0.0201,-0.1829 0.0674,-0.2708 0.0474,-0.0878 0.1353,-0.1485 0.2705,-0.1958 0.1287,-0.0474 0.2976,-0.0882 0.5006,-0.1219 0.2094,-0.0338 0.4666,-0.0474 0.7843,-0.0474 0.3314,0 0.6018,0.0136 0.8116,0.0474 0.2095,0.0337 0.3787,0.0745 0.4935,0.1219 0.1219,0.0473 0.2097,0.108 0.2707,0.1958 0.0607,0.0879 0.0879,0.1761 0.0879,0.2708 z M 456.6158,613.77 c -0.8793,-1.1024 -1.7311,-1.9409 -2.5563,-2.5158 -0.8249,-0.5749 -1.6838,-0.8654 -2.5764,-0.8654 -0.8317,0 -1.535,0.1959 -2.1166,0.595 -0.5817,0.3988 -1.0483,0.9195 -1.4134,1.5687 -0.3583,0.6426 -0.6222,1.3796 -0.7843,2.198 -0.1693,0.818 -0.2503,1.65 -0.2503,2.4953 0,0.8994 0.0677,1.7785 0.2094,2.6373 0.1355,0.8587 0.3787,1.6229 0.7169,2.2924 0.345,0.6696 0.798,1.2036 1.366,1.6095 0.5613,0.3989 1.2782,0.6018 2.1303,0.6018 0.4328,0 0.8521,-0.0609 1.2577,-0.1757 0.3991,-0.1219 0.8116,-0.3181 1.2308,-0.5953 0.4193,-0.2772 0.8657,-0.6355 1.3255,-1.082 0.4598,-0.4393 0.9468,-0.9805 1.4607,-1.6296 z m 24.5205,2.8604 c 0,0.5139 -0.1287,0.879 -0.3855,1.1021 -0.2571,0.2166 -0.5545,0.3246 -0.8858,0.3246 h -11.7125 c 0,0.9941 0.1015,1.8867 0.2974,2.6779 0.1961,0.7979 0.5275,1.4811 0.9941,2.0491 0.4597,0.5681 1.0618,1.0009 1.7988,1.3051 0.7438,0.3044 1.6501,0.4598 2.7185,0.4598 0.8453,0 1.6027,-0.0675 2.2586,-0.2095 0.6627,-0.1352 1.2376,-0.2908 1.7178,-0.4598 0.4799,-0.1692 0.879,-0.3248 1.19,-0.46 0.3112,-0.1421 0.5411,-0.2095 0.7033,-0.2095 0.0946,0 0.176,0.0201 0.2503,0.0674 0.0677,0.0474 0.1284,0.1151 0.1621,0.2098 0.0408,0.0879 0.0746,0.2163 0.0947,0.3787 0.0204,0.169 0.0272,0.3651 0.0272,0.6018 0,0.169 -0.007,0.3178 -0.0204,0.4465 -0.0133,0.1216 -0.0269,0.2367 -0.0474,0.3313 -0.0201,0.1012 -0.0541,0.1891 -0.1012,0.2705 -0.0473,0.0742 -0.1014,0.1488 -0.176,0.223 -0.0743,0.0743 -0.2908,0.1894 -0.6423,0.3518 -0.3583,0.169 -0.8184,0.3246 -1.3864,0.4867 -0.5681,0.1557 -1.224,0.2977 -1.9679,0.4193 -0.7438,0.1287 -1.5349,0.1893 -2.3802,0.1893 -1.4675,0 -2.7456,-0.2026 -3.8478,-0.6154 -1.1023,-0.4056 -2.0287,-1.0142 -2.7793,-1.819 -0.7506,-0.8115 -1.3187,-1.819 -1.6974,-3.0362 -0.3855,-1.2106 -0.5749,-2.624 -0.5749,-4.24 0,-1.5285 0.1962,-2.9078 0.5953,-4.1318 0.392,-1.2172 0.9669,-2.2586 1.7107,-3.1107 0.7438,-0.8521 1.6501,-1.5013 2.7051,-1.961 1.0548,-0.4533 2.2382,-0.6832 3.5433,-0.6832 1.3998,0 2.59,0.2231 3.5705,0.6764 0.9873,0.4461 1.7921,1.0547 2.4279,1.8121 0.6287,0.7575 1.0953,1.6501 1.393,2.6779 0.2976,1.0211 0.4464,2.1167 0.4464,3.2797 z m -3.2868,-0.9672 c 0.0409,-1.7175 -0.3378,-3.0699 -1.1426,-4.0507 -0.8048,-0.9805 -1.9882,-1.4672 -3.5637,-1.4672 -0.8116,0 -1.5217,0.1488 -2.1303,0.453 -0.6086,0.3044 -1.1157,0.71 -1.5284,1.2172 -0.4124,0.5006 -0.7302,1.0888 -0.9533,1.7515 -0.2234,0.6695 -0.3518,1.366 -0.3787,2.0962 z m 18.7251,-6.0185 c 0,0.2908 -0.006,0.5343 -0.0201,0.7305 -0.0136,0.1961 -0.0405,0.3515 -0.0811,0.4666 -0.034,0.1148 -0.0878,0.1961 -0.1488,0.2568 -0.0541,0.0609 -0.1352,0.0881 -0.2435,0.0881 -0.1082,0 -0.2367,-0.0272 -0.3855,-0.0881 -0.1556,-0.0607 -0.3245,-0.1216 -0.5139,-0.1758 -0.1894,-0.0609 -0.4056,-0.1148 -0.6423,-0.1689 -0.2367,-0.0542 -0.4938,-0.0814 -0.7711,-0.0814 -0.3313,0 -0.6559,0.0678 -0.9737,0.1962 -0.3109,0.1352 -0.6491,0.3518 -0.9941,0.6627 -0.3515,0.3045 -0.7168,0.7101 -1.1024,1.2104 -0.3784,0.5074 -0.8044,1.1228 -1.2645,1.853 v 11.7326 c 0,0.1083 -0.0269,0.1962 -0.0811,0.2707 -0.0541,0.0675 -0.1352,0.1353 -0.2568,0.1894 -0.1219,0.0473 -0.284,0.0879 -0.5006,0.1148 -0.2095,0.0272 -0.4802,0.0405 -0.8115,0.0405 -0.3246,0 -0.5882,-0.0133 -0.798,-0.0405 -0.2163,-0.0269 -0.3852,-0.0675 -0.5071,-0.1148 -0.1284,-0.0541 -0.2163,-0.1219 -0.2636,-0.1894 -0.0474,-0.0745 -0.0678,-0.1624 -0.0678,-0.2707 v -17.839 c 0,-0.1082 0.0204,-0.1961 0.061,-0.2704 0.0405,-0.0677 0.115,-0.1352 0.2367,-0.1961 0.1216,-0.061 0.2704,-0.1015 0.4597,-0.1219 0.1826,-0.0202 0.4329,-0.027 0.737,-0.027 0.2909,0 0.5344,0.007 0.7237,0.027 0.1962,0.0204 0.345,0.0609 0.453,0.1219 0.1015,0.0609 0.1828,0.1284 0.2302,0.1961 0.0405,0.0743 0.0674,0.1622 0.0674,0.2704 v 2.5969 c 0.487,-0.7169 0.9468,-1.2986 1.3729,-1.7516 0.4328,-0.4464 0.8384,-0.8047 1.2172,-1.0615 0.3855,-0.2571 0.7642,-0.4329 1.1361,-0.5344 0.3787,-0.1015 0.7574,-0.1488 1.1429,-0.1488 0.169,0 0.3651,0.007 0.5814,0.0269 0.2166,0.0204 0.4465,0.061 0.6831,0.1083 0.2367,0.0542 0.453,0.1151 0.6424,0.1826 0.1893,0.0677 0.3245,0.1287 0.4056,0.1961 0.0814,0.0678 0.1355,0.1284 0.1556,0.1894 0.027,0.0609 0.0542,0.1352 0.0743,0.2231 0.0204,0.0946 0.034,0.2299 0.0408,0.4059 0.006,0.1825 0.006,0.4192 0.006,0.7234 z m 7.0059,16.6827 c 0,0.1083 -0.027,0.1962 -0.0811,0.2707 -0.0541,0.0675 -0.1352,0.1353 -0.2568,0.1894 -0.1219,0.0473 -0.284,0.0879 -0.5006,0.1148 -0.2095,0.0272 -0.4802,0.0405 -0.8116,0.0405 -0.3245,0 -0.5882,-0.0133 -0.7979,-0.0405 -0.2163,-0.0269 -0.3853,-0.0675 -0.5071,-0.1148 -0.1285,-0.0541 -0.2163,-0.1219 -0.2637,-0.1894 -0.0473,-0.0745 -0.0677,-0.1624 -0.0677,-0.2707 v -17.839 c 0,-0.1082 0.0204,-0.1961 0.0677,-0.2704 0.0474,-0.0677 0.1352,-0.1352 0.2637,-0.1961 0.1218,-0.061 0.2908,-0.1015 0.5071,-0.1219 0.2097,-0.0202 0.4734,-0.027 0.7979,-0.027 0.3314,0 0.6021,0.007 0.8116,0.027 0.2166,0.0204 0.3787,0.0609 0.5006,0.1219 0.1216,0.0609 0.2027,0.1284 0.2568,0.1961 0.0541,0.0743 0.0811,0.1622 0.0811,0.2704 z m -0.3719,-26.5286 c 0.0813,-0.142 0.176,-0.2639 0.2772,-0.3517 0.1083,-0.0947 0.2367,-0.169 0.3923,-0.2231 0.1488,-0.0474 0.3382,-0.0879 0.5613,-0.1151 0.2231,-0.0269 0.5003,-0.0406 0.8183,-0.0406 0.3651,0 0.6693,0.0205 0.8995,0.0678 0.2299,0.0473 0.392,0.1148 0.4867,0.203 0.0947,0.081 0.1284,0.1825 0.1151,0.2973 -0.0136,0.1083 -0.0678,0.2231 -0.1758,0.345 l -3.5909,4.6188 c -0.1083,0.1352 -0.203,0.2367 -0.284,0.3177 -0.0879,0.0811 -0.1894,0.142 -0.2977,0.1894 -0.1148,0.0473 -0.2636,0.081 -0.4394,0.1015 -0.176,0.0201 -0.3991,0.0269 -0.6627,0.0269 -0.2908,0 -0.5207,-0.0201 -0.6965,-0.061 -0.1692,-0.0405 -0.2908,-0.0946 -0.3654,-0.1553 -0.0742,-0.0677 -0.1014,-0.1556 -0.081,-0.2571 0.0204,-0.1083 0.0742,-0.2367 0.1689,-0.3787 z"
           style="fill:#0d670d;fill-rule:evenodd;stroke:#0d670d;stroke-width:0.216;stroke-linecap:butt;stroke-linejoin:miter;stroke-dasharray:none"
           id="path95" />
        <path
           d="m 523.0361,626.3478 c 0,0.1557 -0.0542,0.2773 -0.1557,0.3583 -0.1082,0.0814 -0.2503,0.1355 -0.4396,0.1761 -0.1826,0.0405 -0.453,0.0606 -0.8113,0.0606 -0.3382,0 -0.6154,-0.0201 -0.8184,-0.0606 -0.2029,-0.0406 -0.3517,-0.0947 -0.4464,-0.1761 -0.0947,-0.081 -0.142,-0.1958 -0.142,-0.3583 v -1.7852 c -0.7776,0.8317 -1.6433,1.4811 -2.6034,1.9409 -0.9603,0.4529 -1.9746,0.6828 -3.043,0.6828 -0.9399,0 -1.792,-0.1216 -2.5494,-0.3651 -0.7575,-0.2435 -1.4066,-0.6018 -1.9409,-1.0615 -0.5343,-0.4601 -0.9536,-1.0347 -1.2509,-1.7042 -0.2977,-0.6764 -0.4465,-1.4406 -0.4465,-2.2992 0,-1.0077 0.203,-1.88 0.6154,-2.6172 0.4056,-0.7439 0.9941,-1.3593 1.7651,-1.846 0.764,-0.487 1.7039,-0.8589 2.8131,-1.1024 1.1089,-0.2435 2.3602,-0.3651 3.7463,-0.3651 h 2.4616 v -1.3929 c 0,-0.6832 -0.0745,-1.2918 -0.2166,-1.8261 -0.1488,-0.5272 -0.3787,-0.9669 -0.7032,-1.3187 -0.3246,-0.3515 -0.7438,-0.6154 -1.2578,-0.7911 -0.5139,-0.1826 -1.1497,-0.2704 -1.9003,-0.2704 -0.8045,0 -1.5282,0.0946 -2.164,0.2908 -0.6423,0.1962 -1.2036,0.4056 -1.6838,0.6423 -0.4801,0.2367 -0.8858,0.4465 -1.2104,0.6424 -0.3177,0.1961 -0.5612,0.2908 -0.7168,0.2908 -0.108,0 -0.2027,-0.0269 -0.2773,-0.0811 -0.081,-0.0473 -0.1488,-0.1284 -0.2094,-0.2367 -0.061,-0.1015 -0.1015,-0.2367 -0.1287,-0.3988 -0.027,-0.1692 -0.0406,-0.345 -0.0406,-0.5479 0,-0.3246 0.0204,-0.5882 0.0678,-0.7776 0.0473,-0.1893 0.1621,-0.3719 0.3381,-0.5411 0.1758,-0.169 0.4868,-0.3719 0.9196,-0.6086 0.4329,-0.2299 0.94,-0.4462 1.508,-0.6423 0.5613,-0.1894 1.1835,-0.3518 1.8596,-0.4802 0.6695,-0.1284 1.3527,-0.1894 2.0355,-0.1894 1.2782,0 2.367,0.142 3.2664,0.4329 0.8991,0.2908 1.6228,0.7234 2.1773,1.2849 0.5544,0.5613 0.9536,1.2577 1.2039,2.0894 0.25,0.8317 0.3787,1.8057 0.3787,2.9146 z m -3.246,-8.1688 h -2.793 c -0.8926,0 -1.6701,0.0742 -2.3329,0.2299 -0.6559,0.1488 -1.2039,0.3787 -1.6432,0.6763 -0.4329,0.2974 -0.7506,0.6491 -0.9604,1.0684 -0.203,0.4192 -0.3042,0.8994 -0.3042,1.4403 0,0.9263 0.2906,1.6636 0.8791,2.2113 0.5882,0.5476 1.4065,0.8251 2.4681,0.8251 0.8521,0 1.65,-0.2165 2.3805,-0.6559 0.7302,-0.4329 1.5013,-1.1024 2.306,-2.0018 z"
           style="fill:#0d670d;fill-rule:evenodd;stroke:#0d670d;stroke-width:0.216;stroke-linecap:butt;stroke-linejoin:miter;stroke-dasharray:none"
           id="path97" />
      </g>
      <path
         d="m 130.7358,664.6011 0.4791,-1.9256 h 0.2616 c 0.6665,0 1.1603,-0.1284 1.4911,-0.3852 0.3259,-0.2517 0.5728,-0.7109 0.7358,-1.3626 l 3.3971,-13.0354 c 0.0592,-0.2319 0.1034,-0.4692 0.138,-0.7158 0.0346,-0.2469 0.0496,-0.4938 0.0496,-0.7307 0,-0.4544 -0.178,-0.7804 -0.5335,-0.9678 -0.3554,-0.1876 -0.9677,-0.2815 -1.8317,-0.2815 h -0.2764 l 0.4788,-1.9258 h 17.0595 l -1.0123,6.9029 h -1.9505 c 0.01,-0.2322 0.0198,-0.5284 0.0297,-0.8989 0.0199,-0.5578 0.0298,-0.9133 0.0298,-1.0712 0,-1.1259 -0.2174,-1.9108 -0.642,-2.3505 -0.4295,-0.4393 -1.1849,-0.6565 -2.2663,-0.6565 H 143.86 c -1.2099,0 -1.9999,0.1185 -2.3701,0.3603 -0.3705,0.2421 -0.6468,0.7013 -0.8345,1.3777 l -1.3876,5.4314 h 1.3332 c 1.2444,0 2.1036,-0.2075 2.5823,-0.6273 0.4791,-0.4195 0.8346,-1.2195 1.0667,-2.3947 h 2.0095 l -2.3454,9.1247 h -2.0095 c 0.1086,-0.5283 0.1877,-1.0023 0.2469,-1.4221 0.0593,-0.4195 0.0839,-0.7849 0.0839,-1.0911 0,-0.6171 -0.1479,-1.0516 -0.4493,-1.2937 -0.2962,-0.2469 -0.864,-0.3702 -1.6937,-0.3702 h -1.328 l -1.4468,5.6931 c -0.0938,0.3404 -0.1678,0.6171 -0.2075,0.8393 -0.0442,0.2223 -0.0641,0.4048 -0.0641,0.548 0,0.4838 0.163,0.8198 0.489,1.0122 0.3257,0.1925 0.9233,0.2914 1.7921,0.2914 h 0.5037 l -0.563,1.9256 z m 28.3465,-2.2269 c -0.8493,0.9431 -1.7084,1.6492 -2.5872,2.1183 -0.879,0.4692 -1.7725,0.701 -2.6909,0.701 -1.3677,0 -2.4837,-0.5677 -3.3477,-1.6985 -0.864,-1.1355 -1.2938,-2.6217 -1.2938,-4.4634 0,-1.3677 0.2322,-2.7255 0.6962,-4.0638 0.4592,-1.343 1.116,-2.5577 1.9653,-3.6439 0.8592,-1.0811 1.8023,-1.9156 2.8341,-2.4985 1.0321,-0.5825 2.0837,-0.8739 3.1552,-0.8739 1.0123,0 1.8615,0.2716 2.5526,0.8099 0.6863,0.5431 1.2592,1.3875 1.7133,2.5378 l 0.7951,-3.0809 h 2.8193 l -3.3823,12.2057 -0.0147,0.0445 c -0.1678,0.6171 -0.2469,1.0465 -0.2469,1.2835 0,0.3212 0.074,0.5729 0.2222,0.7605 0.148,0.1877 0.3507,0.2815 0.6024,0.2815 0.4147,0 0.8541,-0.2469 1.3232,-0.7359 0.4691,-0.4935 0.9578,-1.2146 1.4664,-2.1673 h 1.6591 c -0.7801,1.7331 -1.6393,3.0364 -2.5725,3.9055 -0.9283,0.874 -1.9207,1.3085 -2.9724,1.3085 -0.7653,0 -1.3629,-0.2174 -1.7971,-0.6568 -0.4346,-0.4393 -0.7359,-1.1307 -0.8989,-2.0738 z m -0.7356,-12.4081 c -0.7554,0 -1.4862,0.2421 -2.1923,0.7209 -0.7109,0.4838 -1.3629,1.18 -1.9602,2.0984 -0.6369,0.9729 -1.1406,2.0739 -1.5108,3.3033 -0.3705,1.2293 -0.5582,2.4145 -0.5582,3.5648 0,1.1061 0.252,1.9752 0.7506,2.6073 0.5038,0.6319 1.19,0.9479 2.054,0.9479 0.6767,0 1.3283,-0.1976 1.9602,-0.5876 0.6321,-0.39 1.2345,-0.9629 1.8023,-1.7232 0.7259,-0.9677 1.3135,-2.1379 1.7727,-3.5155 0.459,-1.3776 0.6863,-2.6564 0.6863,-3.8316 0,-1.0962 -0.252,-1.9701 -0.7605,-2.6169 -0.5035,-0.6469 -1.1849,-0.9678 -2.0441,-0.9678 z m 15.1583,1.0616 c 0.7359,-0.9777 1.5012,-1.7085 2.296,-2.1824 0.7949,-0.4791 1.6541,-0.716 2.5677,-0.716 1.5454,0 2.7601,0.5383 3.6487,1.6146 0.8887,1.0715 1.3332,2.5478 1.3332,4.4291 0,1.2838 -0.1925,2.533 -0.5726,3.7573 -0.3805,1.2246 -0.9284,2.3454 -1.6444,3.3577 -0.8592,1.2146 -1.9109,2.1478 -3.155,2.8046 -1.2444,0.6568 -2.5974,0.9825 -4.0538,0.9825 -1.6886,0 -2.9872,-0.4295 -3.9008,-1.2935 -0.9133,-0.8643 -1.3677,-2.0888 -1.3677,-3.6836 0,-0.538 0.0544,-1.1257 0.1582,-1.7626 0.1086,-0.6369 0.2812,-1.353 0.5233,-2.1529 l 2.6662,-9.4703 c 0.0839,-0.3209 0.1432,-0.5777 0.1778,-0.7753 0.0345,-0.1972 0.0544,-0.3554 0.0544,-0.4688 0,-0.3705 -0.1777,-0.6421 -0.5335,-0.8246 -0.3504,-0.1828 -0.8836,-0.2767 -1.5996,-0.2767 h -1.1012 l 0.4495,-1.6293 c 1.1503,-0.0199 2.2763,-0.0641 3.382,-0.1284 1.1013,-0.0692 2.1875,-0.163 3.259,-0.2863 z m 0.8691,12.3588 c 0.8294,0 1.58,-0.2075 2.2564,-0.6222 0.6715,-0.4148 1.2789,-1.037 1.8221,-1.8664 0.5777,-0.8886 1.0417,-1.9454 1.4023,-3.1748 0.3554,-1.2294 0.5332,-2.4245 0.5332,-3.5847 0,-1.279 -0.2421,-2.2467 -0.7209,-2.8984 -0.4839,-0.6517 -1.1999,-0.9777 -2.1577,-0.9777 -0.627,0 -1.2393,0.1729 -1.8369,0.5236 -0.5975,0.3455 -1.18,0.8688 -1.7478,1.5749 -0.7702,0.953 -1.3975,2.1331 -1.8814,3.5303 -0.4787,1.3975 -0.7208,2.7207 -0.7208,3.9651 0,1.1109 0.2715,1.9749 0.8098,2.5971 0.5383,0.6222 1.2887,0.9332 2.2417,0.9332 z m 18.5998,-11.1096 c 0.8098,-1.5109 1.5899,-2.6169 2.3306,-3.3131 0.7455,-0.6962 1.5208,-1.0418 2.3355,-1.0418 0.6763,0 1.2095,0.2124 1.5996,0.637 0.39,0.4246 0.5876,1.0023 0.5876,1.7379 0,0.6075 -0.1825,1.1061 -0.5431,1.4913 -0.3654,0.385 -0.8345,0.5777 -1.417,0.5777 -0.4938,0 -0.8887,-0.1188 -1.1801,-0.3557 -0.2962,-0.2319 -0.4445,-0.548 -0.4445,-0.9431 0,-0.01 0.005,-0.0394 0.0148,-0.0788 0.01,-0.0445 0.015,-0.089 0.015,-0.1236 -0.01,-0.1284 -0.0247,-0.2072 -0.0445,-0.2418 -0.0199,-0.0298 -0.0692,-0.0544 -0.1432,-0.0643 -0.8492,0 -1.8666,1.3135 -3.0563,3.9353 -1.19,2.6218 -2.2416,5.9893 -3.16,10.1072 h -2.9577 l 2.2218,-7.2632 c 0.5482,-1.7924 0.9283,-3.1056 1.1358,-3.9402 0.2072,-0.8294 0.311,-1.4317 0.311,-1.7971 0,-0.2815 -0.0644,-0.5137 -0.1829,-0.7013 -0.1184,-0.1877 -0.2664,-0.2815 -0.4393,-0.2815 -0.474,0 -0.9431,0.2123 -1.4171,0.642 -0.4691,0.4295 -1.0221,1.1503 -1.6591,2.1725 h -1.6293 c 0.8297,-1.6293 1.743,-2.9032 2.7405,-3.8168 0.9972,-0.9134 1.9602,-1.3678 2.8834,-1.3678 0.726,0 1.2787,0.2274 1.669,0.6815 0.3901,0.4544 0.5874,1.1061 0.5874,1.9602 0,0.1235 -0.01,0.2814 -0.0346,0.4742 -0.0247,0.1973 -0.0641,0.4986 -0.1233,0.9133 z m 20.9503,7.2581 c -0.9729,1.842 -2.0886,3.2244 -3.3477,4.1528 -1.2541,0.9232 -2.6465,1.3873 -4.1672,1.3873 -1.8321,0 -3.3035,-0.5925 -4.4093,-1.7725 -1.1112,-1.1801 -1.664,-2.7553 -1.664,-4.7203 0,-1.6098 0.311,-3.1158 0.9332,-4.523 0.6219,-1.4023 1.5256,-2.6464 2.7108,-3.7377 0.8589,-0.7801 1.7872,-1.3825 2.7895,-1.8023 1.0024,-0.4195 2.0098,-0.627 3.0218,-0.627 1.3184,0 2.3751,0.326 3.1651,0.9777 0.7901,0.6516 1.1849,1.5207 1.1849,2.6121 0,1.6489 -0.9133,2.9919 -2.7402,4.0289 -1.827,1.042 -4.4045,1.669 -7.7423,1.8912 -0.1134,0.4343 -0.1973,0.8147 -0.2517,1.1503 -0.0544,0.3308 -0.0791,0.6222 -0.0791,0.874 0,1.1653 0.3112,2.0936 0.9383,2.7946 0.627,0.6962 1.4615,1.0469 2.5032,1.0469 0.9925,0 1.9506,-0.3209 2.8786,-0.9678 0.9236,-0.6468 1.7825,-1.5899 2.5725,-2.8244 z m -10.0035,-3.5847 c 2.2762,-0.1431 4.0536,-0.5972 5.3374,-1.3626 1.279,-0.7605 1.9207,-1.7331 1.9207,-2.9083 0,-0.6565 -0.1825,-1.175 -0.5431,-1.5554 -0.3606,-0.3801 -0.8492,-0.5726 -1.4663,-0.5726 -1.0715,0 -2.064,0.5579 -2.9776,1.6739 -0.9184,1.1109 -1.6738,2.6909 -2.2711,4.725 z m 39.9053,-4.9473 c -0.2319,-1.9947 -0.8739,-3.5302 -1.9256,-4.6068 -1.0468,-1.0764 -2.4241,-1.6147 -4.1227,-1.6147 -1.0666,0 -2.0591,0.2373 -2.9724,0.7113 -0.9088,0.4691 -1.7283,1.1701 -2.4491,2.0984 -0.8493,1.0863 -1.5109,2.3996 -1.98,3.9255 -0.474,1.5304 -0.7109,3.1501 -0.7109,4.8585 0,2.1674 0.4887,3.8217 1.4615,4.9573 0.9726,1.1307 2.3896,1.6985 4.2511,1.6985 1.7972,0 3.3279,-0.5383 4.5919,-1.6194 1.269,-1.0815 1.906,-2.3653 1.906,-3.8563 0,-0.5777 -0.1877,-0.9777 -0.5579,-1.1999 -0.3705,-0.2222 -1.1554,-0.3654 -2.3505,-0.4345 l 0.4791,-1.8961 h 9.3271 l -0.5233,1.8961 c -1.0023,0.0198 -1.7628,0.2962 -2.2912,0.8245 -0.5233,0.5332 -0.9726,1.5308 -1.338,2.9971 l -1.3283,5.4216 h -1.7526 v -0.0298 c -0.0743,-0.9034 -0.2716,-1.3527 -0.5928,-1.3527 -0.0294,0 -0.7307,0.2271 -2.1132,0.6911 -1.3776,0.4592 -2.7848,0.6914 -4.2216,0.6914 -2.6416,0 -4.7597,-0.8643 -6.3547,-2.5923 -1.5897,-1.7232 -2.3848,-4.0093 -2.3848,-6.8584 0,-1.5897 0.2715,-3.1303 0.8098,-4.6265 0.538,-1.4961 1.3281,-2.8686 2.3602,-4.1227 1.1355,-1.3926 2.4046,-2.4443 3.8018,-3.1552 1.3975,-0.7161 2.8837,-1.0715 4.4586,-1.0715 0.652,0 1.2985,0.0592 1.9355,0.1729 0.6372,0.1185 1.2642,0.2962 1.8813,0.538 0.3456,0.1137 0.8246,0.3212 1.4318,0.6174 0.6075,0.2911 1.042,0.4394 1.3037,0.4394 0.3061,0 0.5729,-0.1432 0.7948,-0.4247 0.2223,-0.2863 0.4,-0.716 0.5335,-1.2838 h 1.6639 l -0.9827,8.2063 z m 5.2438,2.4293 c 0.8493,-1.7626 1.7331,-3.071 2.6564,-3.9302 0.9184,-0.8544 1.9009,-1.2838 2.9429,-1.2838 0.79,0 1.4071,0.2418 1.8516,0.7208 0.4442,0.4839 0.6664,1.1506 0.6664,2.0095 0,0.5876 -0.1137,1.3283 -0.3356,2.217 -0.2222,0.8937 -0.553,1.9307 -0.9975,3.1158 -0.1086,0.2911 -0.2568,0.6962 -0.4493,1.2147 -0.8444,2.2663 -1.2691,3.7031 -1.2691,4.3103 0,0.4445 0.1335,0.79 0.4051,1.0321 0.2716,0.2466 0.6517,0.3702 1.1404,0.3702 1.4862,0 2.9182,-1.2886 4.3007,-3.871 1.3825,-2.5775 2.5872,-6.2163 3.6093,-10.9122 h 2.9872 l -2.3403,7.5546 c -0.5578,1.8023 -0.9383,3.1156 -1.1455,3.9453 -0.2075,0.8294 -0.3112,1.4269 -0.3112,1.7971 0,0.2962 0.0592,0.5332 0.1876,0.701 0.1236,0.1681 0.3014,0.252 0.5335,0.252 0.5185,0 1.0517,-0.2815 1.5897,-0.8492 0.5383,-0.563 1.0321,-1.3578 1.4862,-2.38 h 1.6591 c -0.7061,1.6886 -1.5899,3.0464 -2.6563,4.0785 -1.0616,1.0318 -2.0937,1.5503 -3.0861,1.5503 -0.7308,0 -1.2937,-0.237 -1.6787,-0.711 -0.3852,-0.4691 -0.5777,-1.1554 -0.5777,-2.054 0,-0.1927 0.01,-0.4098 0.0346,-0.6468 0.0247,-0.2421 0.0641,-0.5185 0.1086,-0.8246 -0.9825,1.4714 -1.9355,2.5526 -2.8588,3.2391 -0.9184,0.6863 -1.8813,1.027 -2.8837,1.027 -0.9479,0 -1.7132,-0.2962 -2.296,-0.8838 -0.5825,-0.5876 -0.8739,-1.3578 -0.8739,-2.3108 0,-1.042 0.4643,-2.8245 1.3875,-5.3524 l 0.1579,-0.4346 c 0.5284,-1.4811 0.8889,-2.5378 1.0766,-3.1699 0.1874,-0.6319 0.2812,-1.0911 0.2812,-1.3825 0,-0.3161 -0.0788,-0.5678 -0.237,-0.7455 -0.1579,-0.1777 -0.3801,-0.2667 -0.6565,-0.2667 -0.3951,0 -0.8246,0.242 -1.2889,0.7208 -0.4592,0.4839 -0.9479,1.1999 -1.4564,2.1529 z m 30.208,6.4585 c -0.79,1.7427 -1.6441,3.0464 -2.5625,3.9155 -0.9233,0.864 -1.9109,1.2985 -2.9724,1.2985 -0.79,0 -1.4072,-0.2421 -1.8468,-0.7208 -0.4442,-0.4839 -0.6664,-1.1554 -0.6664,-2.0098 0,-0.553 0.0938,-1.2393 0.2863,-2.0588 0.1924,-0.8246 0.4739,-1.7235 0.8393,-2.696 0.2322,-0.637 0.553,-1.4763 0.9578,-2.5183 0.7458,-1.9452 1.116,-3.1255 1.116,-3.5303 0,-0.3061 -0.0592,-0.538 -0.1825,-0.6911 -0.1185,-0.1531 -0.3062,-0.2321 -0.5582,-0.2321 -0.4393,0 -0.8934,0.2171 -1.3578,0.6468 -0.464,0.4346 -1.0023,1.1455 -1.6095,2.1379 h -1.6492 c 0.8394,-1.6492 1.7527,-2.9279 2.7454,-3.8316 0.9924,-0.9037 1.965,-1.353 2.9081,-1.353 0.7506,0 1.3382,0.2421 1.7628,0.7308 0.4247,0.489 0.637,1.1704 0.637,2.0492 0,0.4938 -0.1038,1.1307 -0.3113,1.9207 -0.2072,0.7852 -0.6715,2.2023 -1.4023,4.2463 -0.5431,1.4862 -0.9085,2.543 -1.091,3.1748 -0.1829,0.6322 -0.2767,1.0914 -0.2767,1.3825 0,0.326 0.0743,0.5777 0.2222,0.7506 0.1531,0.1729 0.3606,0.2617 0.6322,0.2617 0.4147,0 0.8441,-0.237 1.2937,-0.7062 0.4493,-0.4739 0.938,-1.1948 1.4664,-2.1673 z m -4.9079,-15.7017 c 0,-0.5479 0.1876,-1.0122 0.5578,-1.3924 0.3705,-0.3753 0.8246,-0.5629 1.3629,-0.5629 0.548,0 1.0123,0.1876 1.3924,0.5629 0.3801,0.3802 0.5678,0.8445 0.5678,1.3924 0,0.5332 -0.1925,0.9876 -0.5777,1.3776 -0.3852,0.3853 -0.8442,0.5777 -1.3825,0.5777 -0.5332,0 -0.9824,-0.1924 -1.3577,-0.5728 -0.3754,-0.3802 -0.563,-0.8442 -0.563,-1.3825 z m 15.6424,15.5239 c -0.9927,1.8959 -1.9406,3.2735 -2.8491,4.1179 -0.9037,0.8493 -1.8714,1.2739 -2.9032,1.2739 -0.79,0 -1.4123,-0.2421 -1.8615,-0.7208 -0.4542,-0.4839 -0.6815,-1.1554 -0.6815,-2.0098 0,-0.7455 0.4297,-2.6416 1.2838,-5.6979 l 0.1284,-0.4791 2.4293,-8.6357 c 0.1531,-0.538 0.2668,-0.9825 0.3407,-1.338 0.074,-0.3506 0.1086,-0.6023 0.1086,-0.7554 0,-0.3705 -0.1777,-0.6421 -0.5284,-0.8246 -0.3503,-0.1828 -0.8838,-0.2767 -1.5996,-0.2767 h -1.0961 l 0.4493,-1.6293 c 1.1455,-0.0199 2.2762,-0.0641 3.397,-0.1284 1.1157,-0.0692 2.2023,-0.163 3.2539,-0.2863 l -4.3254,15.2325 c -0.3654,1.3133 -0.6222,2.2958 -0.7753,2.9526 -0.1479,0.6568 -0.2222,1.1061 -0.2222,1.3478 0,0.2866 0.0743,0.5185 0.2222,0.6863 0.1531,0.1681 0.3507,0.252 0.6024,0.252 0.4051,0 0.8396,-0.2469 1.3085,-0.7455 0.4691,-0.4938 0.9975,-1.2739 1.5999,-2.3355 z m 10.1566,0 c -0.9927,1.8959 -1.9406,3.2735 -2.8492,4.1179 -0.9036,0.8493 -1.8714,1.2739 -2.9032,1.2739 -0.79,0 -1.4122,-0.2421 -1.8615,-0.7208 -0.4541,-0.4839 -0.6815,-1.1554 -0.6815,-2.0098 0,-0.7455 0.4298,-2.6416 1.2839,-5.6979 l 0.1284,-0.4791 2.4293,-8.6357 c 0.153,-0.538 0.2667,-0.9825 0.3407,-1.338 0.074,-0.3506 0.1085,-0.6023 0.1085,-0.7554 0,-0.3705 -0.1777,-0.6421 -0.5283,-0.8246 -0.3504,-0.1828 -0.8839,-0.2767 -1.5996,-0.2767 h -1.0962 l 0.4493,-1.6293 c 1.1455,-0.0199 2.2762,-0.0641 3.3971,-0.1284 1.1157,-0.0692 2.2022,-0.163 3.2538,-0.2863 l -4.3253,15.2325 c -0.3654,1.3133 -0.6222,2.2958 -0.7753,2.9526 -0.148,0.6568 -0.2223,1.1061 -0.2223,1.3478 0,0.2866 0.0743,0.5185 0.2223,0.6863 0.1531,0.1681 0.3506,0.252 0.6023,0.252 0.4051,0 0.8397,-0.2469 1.3085,-0.7455 0.4691,-0.4938 0.9975,-1.2739 1.5999,-2.3355 z m 15.0051,-0.178 c -0.9728,1.842 -2.0885,3.2244 -3.3477,4.1528 -1.254,0.9232 -2.6464,1.3873 -4.1672,1.3873 -1.832,0 -3.3035,-0.5925 -4.4093,-1.7725 -1.1112,-1.1801 -1.6639,-2.7553 -1.6639,-4.7203 0,-1.6098 0.311,-3.1158 0.9332,-4.523 0.6219,-1.4023 1.5256,-2.6464 2.7107,-3.7377 0.8589,-0.7801 1.7873,-1.3825 2.7896,-1.8023 1.0023,-0.4195 2.0098,-0.627 3.0217,-0.627 1.3184,0 2.3752,0.326 3.1652,0.9777 0.79,0.6516 1.1849,1.5207 1.1849,2.6121 0,1.6489 -0.9133,2.9919 -2.7403,4.0289 -1.8269,1.042 -4.4044,1.669 -7.7422,1.8912 -0.1134,0.4343 -0.1973,0.8147 -0.2518,1.1503 -0.0544,0.3308 -0.079,0.6222 -0.079,0.874 0,1.1653 0.3112,2.0936 0.9382,2.7946 0.627,0.6962 1.4616,1.0469 2.5033,1.0469 0.9924,0 1.9505,-0.3209 2.8786,-0.9678 0.9235,-0.6468 1.7824,-1.5899 2.5724,-2.8244 z m -10.0034,-3.5847 c 2.2762,-0.1431 4.0535,-0.5972 5.3373,-1.3626 1.279,-0.7605 1.9208,-1.7331 1.9208,-2.9083 0,-0.6565 -0.1826,-1.175 -0.5431,-1.5554 -0.3606,-0.3801 -0.8493,-0.5726 -1.4664,-0.5726 -1.0715,0 -2.0639,0.5579 -2.9775,1.6739 -0.9184,1.1109 -1.6739,2.6909 -2.2711,4.725 z m 19.2467,-3.6734 c 0.8098,-1.5109 1.5899,-2.6169 2.3306,-3.3131 0.7455,-0.6962 1.5208,-1.0418 2.3355,-1.0418 0.6763,0 1.2095,0.2124 1.5996,0.637 0.39,0.4246 0.5876,1.0023 0.5876,1.7379 0,0.6075 -0.1826,1.1061 -0.5431,1.4913 -0.3654,0.385 -0.8346,0.5777 -1.4171,0.5777 -0.4938,0 -0.8886,-0.1188 -1.18,-0.3557 -0.2963,-0.2319 -0.4445,-0.548 -0.4445,-0.9431 0,-0.01 0.005,-0.0394 0.0147,-0.0788 0.01,-0.0445 0.0151,-0.089 0.0151,-0.1236 -0.01,-0.1284 -0.0247,-0.2072 -0.0446,-0.2418 -0.0198,-0.0298 -0.0691,-0.0544 -0.1431,-0.0643 -0.8493,0 -1.8666,1.3135 -3.0563,3.9353 -1.19,2.6218 -2.2417,5.9893 -3.1601,10.1072 h -2.9576 l 2.2217,-7.2632 c 0.5483,-1.7924 0.9284,-3.1056 1.1359,-3.9402 0.2072,-0.8294 0.311,-1.4317 0.311,-1.7971 0,-0.2815 -0.0644,-0.5137 -0.1829,-0.7013 -0.1185,-0.1877 -0.2664,-0.2815 -0.4394,-0.2815 -0.4739,0 -0.943,0.2123 -1.417,0.642 -0.4691,0.4295 -1.0222,1.1503 -1.6591,2.1725 h -1.6294 c 0.8297,-1.6293 1.7431,-2.9032 2.7406,-3.8168 0.9972,-0.9134 1.9601,-1.3678 2.8834,-1.3678 0.7259,0 1.2787,0.2274 1.669,0.6815 0.3901,0.4544 0.5873,1.1061 0.5873,1.9602 0,0.1235 -0.01,0.2814 -0.0345,0.4742 -0.0247,0.1973 -0.0641,0.4986 -0.1233,0.9133 z m 8.0138,12.3242 2.2269,-7.268 c 0.6171,-2.0197 1.0122,-3.3971 1.1849,-4.123 0.1729,-0.7257 0.2616,-1.264 0.2616,-1.6095 0,-0.3062 -0.0541,-0.5483 -0.1627,-0.7209 -0.1038,-0.1729 -0.252,-0.2619 -0.4346,-0.2619 -0.4889,0 -0.9827,0.2222 -1.4762,0.6715 -0.489,0.4493 -1.037,1.1605 -1.6345,2.143 h -1.6194 c 0.8294,-1.6293 1.7427,-2.9032 2.7402,-3.8168 0.9975,-0.9134 1.9602,-1.3678 2.8885,-1.3678 0.7308,0 1.2887,0.2322 1.6739,0.7013 0.39,0.4692 0.5825,1.1554 0.5825,2.054 0,0.1925 -0.0147,0.4147 -0.0445,0.6667 -0.0295,0.2517 -0.0689,0.5182 -0.1134,0.8096 0.9431,-1.4715 1.8516,-2.5526 2.7207,-3.234 0.8739,-0.6863 1.7824,-1.027 2.7255,-1.027 0.9281,0 1.6393,0.2814 2.1478,0.8393 0.5035,0.5579 0.7603,1.3479 0.7603,2.3652 0,0.1579 -0.01,0.3209 -0.0247,0.4986 -0.0147,0.1826 -0.0346,0.3654 -0.064,0.5579 1.0715,-1.5403 2.0341,-2.6365 2.8885,-3.2885 0.854,-0.6468 1.7379,-0.9725 2.6563,-0.9725 0.9627,0 1.7479,0.2914 2.3502,0.8739 0.6024,0.5825 0.9037,1.343 0.9037,2.2762 0,0.5383 -0.0938,1.1653 -0.2767,1.8862 -0.1825,0.716 -0.553,1.8122 -1.1109,3.2885 -0.6715,1.8119 -1.116,3.0563 -1.3232,3.7326 -0.2075,0.6766 -0.3109,1.1653 -0.3109,1.4763 0,0.3161 0.0788,0.5729 0.2369,0.7605 0.1628,0.1877 0.3802,0.2815 0.6616,0.2815 0.4394,0 0.9185,-0.2866 1.4318,-0.8543 0.5086,-0.5726 1.0222,-1.4023 1.5455,-2.4934 h 1.6639 c -0.938,1.9701 -1.8711,3.4019 -2.8094,4.3055 -0.9383,0.9037 -1.9553,1.353 -3.0563,1.353 -0.7801,0 -1.3876,-0.237 -1.817,-0.716 -0.4298,-0.4791 -0.6421,-1.1506 -0.6421,-2.0194 0,-0.6075 0.1089,-1.3331 0.3212,-2.1776 0.2123,-0.8441 0.627,-2.0985 1.2441,-3.7672 0.5137,-1.3578 0.8839,-2.4194 1.101,-3.1848 0.2174,-0.7605 0.326,-1.3331 0.326,-1.7084 0,-0.4643 -0.1233,-0.8147 -0.3654,-1.0568 -0.2418,-0.2417 -0.5924,-0.3602 -1.0616,-0.3602 -1.4663,0 -2.8933,1.2739 -4.2857,3.8265 -1.3975,2.5528 -2.5823,6.1078 -3.5651,10.6602 h -2.9228 l 2.1824,-7.268 c 0.1726,-0.5678 0.4195,-1.3383 0.7404,-2.3108 0.5975,-1.8071 0.8937,-2.9775 0.8937,-3.5207 0,-0.4688 -0.1133,-0.8195 -0.3407,-1.0465 -0.227,-0.2274 -0.5726,-0.3407 -1.0465,-0.3407 -1.3777,0 -2.7306,1.2639 -4.0638,3.7919 -1.3283,2.5282 -2.5033,6.093 -3.5254,10.6948 z m 42.5718,-9.8357 c 0,1.3085 -0.2123,2.5872 -0.6369,3.8316 -0.4246,1.2442 -1.0123,2.3355 -1.7629,3.2834 -0.8492,1.0321 -1.8417,1.8269 -2.982,2.3851 -1.1359,0.5578 -2.3355,0.8393 -3.5997,0.8393 -1.8811,0 -3.4019,-0.6321 -4.5624,-1.9009 -1.1602,-1.2691 -1.7427,-2.933 -1.7427,-4.9969 0,-1.5752 0.2715,-3.0368 0.8146,-4.3895 0.548,-1.358 1.338,-2.5282 2.38,-3.5254 0.8096,-0.79 1.7082,-1.3827 2.7008,-1.7776 0.9874,-0.3952 2.0441,-0.5925 3.1697,-0.5925 1.8814,0 3.3875,0.622 4.523,1.8664 1.1307,1.2444 1.6985,2.9032 1.6985,4.977 z m -8.6703,8.7395 c 0.7554,0 1.4564,-0.2369 2.1081,-0.7109 0.6469,-0.4691 1.2396,-1.18 1.7728,-2.1282 0.5085,-0.9134 0.9085,-1.9602 1.1948,-3.1403 0.2815,-1.1752 0.4246,-2.3649 0.4246,-3.56 0,-1.4862 -0.2715,-2.5971 -0.8195,-3.3378 -0.5431,-0.7356 -1.358,-1.1061 -2.4392,-1.1061 -1.5406,0 -2.859,0.874 -3.9551,2.6221 -1.0962,1.7427 -1.6441,3.9203 -1.6441,6.5273 0,1.5506 0.2914,2.7454 0.8739,3.5799 0.5876,0.8342 1.4122,1.254 2.4837,1.254 z m 21.6017,1.6592 h -1.7331 l 1.7084,-8.6803 h 1.8366 v 0.0593 c 0,1.9749 0.5236,3.5795 1.5704,4.814 1.0465,1.2345 2.3896,1.8516 4.034,1.8516 1.0417,0 1.9009,-0.326 2.5772,-0.9825 0.6767,-0.6568 1.0123,-1.4862 1.0123,-2.4885 0,-0.7211 -0.2171,-1.4023 -0.6517,-2.0392 -0.4345,-0.637 -1.2098,-1.3578 -2.3207,-2.1677 -0.3456,-0.2616 -0.8592,-0.6222 -1.5307,-1.0862 -1.4961,-1.0321 -2.5081,-1.8417 -3.0266,-2.4293 -0.5235,-0.6075 -0.9085,-1.2147 -1.1605,-1.817 -0.2517,-0.6024 -0.3753,-1.2345 -0.3753,-1.8913 0,-1.5897 0.5582,-2.9132 1.679,-3.9648 1.1208,-1.0517 2.5427,-1.575 4.2709,-1.575 0.9777,0 2.0588,0.2319 3.2488,0.6962 1.1951,0.4641 1.9109,0.6911 2.1529,0.6911 0.2124,0 0.4147,-0.1085 0.6024,-0.3257 0.1877,-0.2123 0.3702,-0.5581 0.5579,-1.0321 h 1.7676 l -1.5108,7.7324 h -1.7479 c 0,-0.0593 0.005,-0.1531 0.0148,-0.2815 0.01,-0.1332 0.0147,-0.2271 0.0147,-0.2815 0,-1.6441 -0.4096,-2.9378 -1.2342,-3.8857 -0.8198,-0.9431 -1.9406,-1.4173 -3.3576,-1.4173 -0.9678,0 -1.7725,0.2667 -2.4146,0.7951 -0.6417,0.5332 -0.9626,1.1948 -0.9626,1.9848 0,1.353 1.18,2.7998 3.5351,4.3452 l 0.1729,0.0987 c 2.0591,1.3529 3.486,2.5676 4.2809,3.6439 0.7948,1.0814 1.1948,2.2663 1.1948,3.56 0,1.7527 -0.6271,3.2043 -1.8763,4.3501 -1.2492,1.1503 -2.8539,1.7232 -4.8141,1.7232 -0.6568,0 -1.2937,-0.0791 -1.9108,-0.2322 -0.6171,-0.1531 -1.3431,-0.4345 -2.1872,-0.8393 -0.1236,-0.0593 -0.3013,-0.1432 -0.5335,-0.2617 -0.5973,-0.3013 -1.0318,-0.4493 -1.3034,-0.4493 -0.3359,0 -0.627,0.1333 -0.8691,0.4 -0.2418,0.2665 -0.4787,0.7257 -0.7109,1.3825 z m 18.3183,-2.0098 c 0,-0.5678 0.1976,-1.0466 0.5877,-1.4369 0.39,-0.39 0.864,-0.5825 1.4269,-0.5825 0.5579,0 1.0321,0.1925 1.4122,0.5825 0.3802,0.3903 0.5726,0.8691 0.5726,1.4369 0,0.563 -0.1924,1.0369 -0.5777,1.427 -0.39,0.39 -0.8592,0.5828 -1.4071,0.5828 -0.553,0 -1.0222,-0.1976 -1.4221,-0.5928 -0.3949,-0.3948 -0.5925,-0.864 -0.5925,-1.417 z m 17.5037,-16.2099 -1.3924,5.4808 h 2.4392 c 2.2317,0 3.8957,-0.3705 4.9918,-1.116 1.0914,-0.7407 1.6393,-1.8664 1.6393,-3.3823 0,-0.9825 -0.3209,-1.6935 -0.9677,-2.1331 -0.6469,-0.4394 -1.7085,-0.6565 -3.1799,-0.6565 -1.3428,0 -2.2218,0.1281 -2.6417,0.3849 -0.4195,0.252 -0.7157,0.7308 -0.8886,1.4222 z m -3.3378,13.045 c -0.0987,0.3407 -0.1678,0.6171 -0.2123,0.8394 -0.0394,0.2222 -0.0641,0.4047 -0.0641,0.5482 0,0.4688 0.1678,0.8047 0.4986,1.0023 0.3308,0.1973 0.9085,0.2962 1.7232,0.2962 h 0.4493 l -0.474,1.9256 h -8.5025 l 0.4791,-1.9256 h 0.2616 c 0.6664,0 1.1602,-0.1284 1.491,-0.3804 0.326,-0.2565 0.5729,-0.7109 0.7359,-1.3674 l 3.3971,-13.0303 c 0.0592,-0.2322 0.1034,-0.4691 0.138,-0.716 0.0346,-0.2421 0.0496,-0.489 0.0496,-0.7308 0,-0.4493 -0.178,-0.7702 -0.5335,-0.9578 -0.3554,-0.1877 -0.9677,-0.2815 -1.8317,-0.2815 h -0.2764 l 0.474,-1.9406 h 7.9988 c 1.817,0 3.1354,0.0544 3.9648,0.1582 0.8345,0.1085 1.5454,0.2862 2.143,0.538 0.8886,0.3654 1.5701,0.8838 2.0392,1.5604 0.474,0.6764 0.7109,1.4664 0.7109,2.3701 0,1.6588 -0.7256,3.007 -2.1775,4.0487 -1.4517,1.0417 -3.4413,1.6245 -5.9695,1.753 1.343,0.538 2.2861,1.1602 2.844,1.8612 0.553,0.7061 0.8297,1.6245 0.8297,2.7601 0,0.2123 -0.005,0.5184 -0.0148,0.9184 -0.01,0.4 -0.015,0.6962 -0.015,0.8889 0,0.8592 0.0939,1.4812 0.2767,1.8712 0.1825,0.39 0.4739,0.5876 0.8787,0.5876 0.5037,0 0.9332,-0.2815 1.2986,-0.8441 0.3605,-0.563 0.6174,-1.3678 0.7704,-2.4146 h 1.7825 c -0.2322,1.8564 -0.7654,3.2984 -1.6047,4.3104 -0.8394,1.0173 -1.9061,1.5259 -3.1947,1.5259 -1.2345,0 -2.1676,-0.3507 -2.7947,-1.0469 -0.627,-0.701 -0.9382,-1.7331 -0.9382,-3.1008 0,-0.4739 0.0198,-1.101 0.0643,-1.891 0.0445,-0.7852 0.0641,-1.3331 0.0641,-1.6393 0,-1.2245 -0.2911,-2.069 -0.8839,-2.5282 -0.5876,-0.464 -1.6886,-0.6962 -3.3032,-0.6962 -0.1134,0 -0.2962,0.005 -0.538,0.0151 -0.2372,0.01 -0.4297,0.0147 -0.5629,0.0147 z m 16.8469,3.1649 c 0,-0.5678 0.1975,-1.0466 0.5876,-1.4369 0.39,-0.39 0.864,-0.5825 1.4269,-0.5825 0.5579,0 1.0321,0.1925 1.4123,0.5825 0.3801,0.3903 0.5726,0.8691 0.5726,1.4369 0,0.563 -0.1925,1.0369 -0.5777,1.427 -0.3901,0.39 -0.8592,0.5828 -1.4072,0.5828 -0.553,0 -1.0221,-0.1976 -1.4221,-0.5928 -0.3949,-0.3948 -0.5924,-0.864 -0.5924,-1.417 z m 14.1709,-3.1697 c -0.0938,0.3404 -0.1681,0.6171 -0.2075,0.8393 -0.0445,0.2223 -0.0691,0.4048 -0.0691,0.548 0,0.4938 0.1678,0.8345 0.4937,1.0221 0.326,0.1877 1.0568,0.2815 2.1824,0.2815 h 1.4468 c 1.812,0 3.2143,-0.4544 4.2018,-1.3677 0.9876,-0.9085 1.7825,-2.4885 2.38,-4.7353 h 2.2711 l -2.2118,8.0286 h -17.0743 l 0.4791,-1.9256 h 0.2616 c 0.6665,0 1.1603,-0.1284 1.4911,-0.3852 0.3259,-0.2517 0.5728,-0.7109 0.7358,-1.3626 l 3.4019,-13.0402 c 0.0592,-0.2322 0.1037,-0.4692 0.1383,-0.7161 0.0346,-0.2469 0.0494,-0.4887 0.0494,-0.7307 0,-0.4541 -0.1778,-0.7753 -0.5332,-0.9627 -0.3555,-0.1876 -0.9678,-0.2815 -1.8369,-0.2815 h -0.2764 l 0.4788,-1.9258 h 9.4161 l -0.4938,1.9258 c -0.0938,0 -0.2222,-0.005 -0.3804,-0.015 -0.1627,-0.01 -0.2715,-0.0147 -0.3404,-0.0147 -0.8493,0 -1.4616,0.1284 -1.8468,0.3852 -0.3801,0.2568 -0.6517,0.7157 -0.8147,1.3825 z"
         style="fill:#0d670d;fill-rule:evenodd"
         id="path100" />
    </g>
  </g>
</svg>
