<?xml version="1.0" encoding="UTF-8" standalone="no"?>
<svg
   version="1.1"
   width="441.70416"
   height="441.24066"
   id="svg21"
   viewBox="0 0 441.70416 441.24066"
   sodipodi:docname="ea2a995f63ab9beae9f8ab3cc5c93913.cdr"
   xmlns:inkscape="http://www.inkscape.org/namespaces/inkscape"
   xmlns:sodipodi="http://sodipodi.sourceforge.net/DTD/sodipodi-0.dtd"
   xmlns="http://www.w3.org/2000/svg"
   xmlns:svg="http://www.w3.org/2000/svg">
  <defs
     id="defs25" />
  <sodipodi:namedview
     id="namedview23"
     pagecolor="#ffffff"
     bordercolor="#666666"
     borderopacity="1.0"
     inkscape:pageshadow="2"
     inkscape:pageopacity="0.0"
     inkscape:pagecheckerboard="0" />
  <g
     id="Layer1000"
     transform="translate(-106.55215,-176.92804)">
    <path
       d="m 365.3546,251.0133 25.2845,0.1224 -0.1752,175.8192 c -19.2393,0.1406 -25.1093,-4.8044 -25.1093,-24.3366 z m 66.7083,175.585 c -20.48,2.6629 -25.1438,-6.8522 -25.1711,-25.2482 -0.0377,-26.7262 -1.7441,-140.1126 0.6923,-150.3383 l 24.5287,0.1724 z M 303.3876,251.2672 c -0.0301,16.7531 -0.0105,33.509 -0.0105,50.2634 0,10.6807 -5.1582,41.002 8.7763,40.5791 16.9782,-0.5156 3.8237,-61.2933 8.5601,-91.0721 l 25.2615,0.1421 c 2.6147,15.222 0.4567,55.5032 0.4745,73.3909 0.0244,24.6799 -9.1054,38.9906 -34.2011,39.246 -25.6907,0.2616 -35.0263,-14.1897 -35.0186,-39.2534 0.006,-24.491 0.0272,-48.9818 -0.006,-73.5545 z m -87.1878,69.3122 c 0.4366,-11.9046 -1.3904,-50.4192 1.5611,-58.4535 5.3592,-14.5871 31.564,-12.1765 48.2233,-10.8346 l -0.005,19.7652 -23.0085,0.1102 0.1105,49.4853 22.9343,0.2237 -0.4232,19.8206 -22.6593,0.156 -0.1162,86.083 -26.4816,-0.1406 0.0213,-85.9198 -16.0472,-0.5139 -0.021,-19.44 z m -91.2852,90.995 c 2.2323,29.2122 10.2708,56.9344 22.3509,79.2505 16.2814,30.0798 22.9221,35.0535 44.0941,56.9554 6.1769,6.3898 19.6988,16.0698 29.2002,22.041 61.7633,38.8182 135.0062,39.3321 200.626,7.0277 13.6474,-6.7179 27.6344,-16.9736 38.2184,-25.8404 42.9925,-36.0224 75.3012,-99.1593 69.8273,-168.8218 C 520.7862,274.7409 430.2629,188.0821 313.2459,194.9525 206.7191,201.2063 116.0779,296.0039 124.9146,411.5744 Z"
       style="fill:#000000;fill-rule:evenodd"
       id="path2" />
    <path
       d="m 304.9383,192.3545 c 87.2892,-9.9898 160.8315,34.6213 201.8411,104.0362 12.4729,21.1101 21.5831,49.1526 24.8824,77.1362 C 545.7775,493.2807 455.0545,591.3275 350.4592,601.9626 228.9386,614.3177 134.2364,526.365 122.4481,419.61 109.0714,298.4566 198.9133,204.4889 304.9383,192.3545 Z m 9.4986,-11.8457 c -45.5375,3.4579 -85.0071,17.9439 -118.9226,43.9794 -56.0291,43.0106 -89.73,112.56 -85.06,186.6901 7.2196,114.6366 106.6008,211.8627 230.801,203.2285 42.7401,-2.9727 86.4081,-19.2451 118.0974,-44.2287 32.6626,-25.7498 54.3259,-54.1385 70.4169,-93.3254 10.9767,-26.7307 16.5988,-60.1006 14.3847,-92.1104 -2.9652,-42.8806 -18.5741,-87.8212 -43.8887,-118.9876 -25.0939,-30.8943 -52.5742,-55.0966 -93.0473,-70.6813 -26.965,-10.3828 -60.5419,-17.0144 -92.7814,-14.5646 z"
       style="fill:#000000;fill-rule:evenodd"
       id="path4" />
    <path
       d="m 303.3877,251.2672 -26.164,-0.2584 c 0.0333,24.5725 0.0121,49.0634 0.006,73.5544 -0.008,25.0637 9.3278,39.5149 35.0187,39.2534 25.0955,-0.2554 34.2254,-14.5661 34.2012,-39.2459 -0.0182,-17.8879 2.14,-58.1691 -0.4746,-73.3911 l -25.2617,-0.1421 c -4.7364,29.779 8.4181,90.5567 -8.5601,91.0721 -13.9343,0.4231 -8.7762,-29.8984 -8.7762,-40.5789 0,-16.7545 -0.0196,-33.5105 0.0106,-50.2635 z"
       style="fill:#fefefe;fill-rule:evenodd"
       id="path6" />
    <path
       d="m 216.1997,320.5793 -15.9111,0.3416 0.0211,19.4401 16.0472,0.5138 -0.0212,85.92 26.4814,0.1405 0.1163,-86.0832 22.6592,-0.1556 0.4232,-19.821 -22.9343,-0.2236 -0.1103,-49.4851 23.0083,-0.1104 0.005,-19.765 c -16.6593,-1.342 -42.864,-3.7526 -48.2232,10.8347 -2.9516,8.0341 -1.1244,46.5486 -1.5612,58.4532 z"
       style="fill:#fefefe;fill-rule:evenodd"
       id="path8" />
    <path
       d="m 314.4369,180.5088 c 32.2395,-2.4498 65.8164,4.1818 92.7814,14.5646 40.4731,15.5847 67.9534,39.787 93.0473,70.6813 25.3146,31.1664 40.9235,76.107 43.8887,118.9876 2.2141,32.0098 -3.408,65.3797 -14.3847,92.1104 -16.091,39.1869 -37.7543,67.5756 -70.4169,93.3254 -31.6893,24.9836 -75.3573,41.256 -118.0974,44.2287 -124.2002,8.6342 -223.5814,-88.5919 -230.801,-203.2285 -4.67,-74.1301 29.0309,-143.6795 85.06,-186.6901 33.9155,-26.0355 73.3851,-40.5215 118.9226,-43.9794 z M 546.9608,420.5319 C 560.07,301.7725 472.1929,190.7767 351.3086,178.1814 222.9251,164.8047 118.8043,260.4183 107.7022,373.4044 94.9708,502.9728 189.7169,605.0941 304.0088,616.9171 433.4593,630.3089 534.4003,534.3236 546.9608,420.5319 Z"
       style="fill:#f7f7f7;fill-rule:evenodd"
       id="path10" />
    <path
       d="m 432.0628,426.5983 0.0499,-175.4142 -24.5287,-0.1723 c -2.4362,10.2256 -0.7299,123.6123 -0.6922,150.3384 0.0272,18.3958 4.6912,27.9111 25.171,25.2481 z"
       style="fill:#fefefe;fill-rule:evenodd"
       id="path12" />
    <path
       d="m 365.3548,402.6182 c 0,19.5323 5.8699,24.4773 25.109,24.3368 l 0.1753,-175.8192 -25.2843,-0.1225 z"
       style="fill:#fefefe;fill-rule:evenodd"
       id="path14" />
    <path
       d="m 124.9146,411.5743 c -8.8367,-115.5705 81.8046,-210.368 188.3314,-216.6218 117.0169,-6.8705 207.5403,79.7885 215.9856,187.2342 5.474,69.6627 -26.835,132.7996 -69.8275,168.8218 -10.5838,8.8669 -24.571,19.1227 -38.2182,25.8406 -65.6199,32.3044 -138.863,31.7905 -200.626,-7.0277 -9.5017,-5.9712 -23.0234,-15.6512 -29.2002,-22.041 -21.1721,-21.9021 -27.8128,-26.8758 -44.0942,-56.9556 -12.08,-22.3161 -20.1187,-50.0382 -22.3509,-79.2505 z M 304.9383,192.3545 C 198.9133,204.4889 109.0714,298.4566 122.4481,419.61 134.2364,526.365 228.9386,614.3177 350.4592,601.9626 455.0545,591.3275 545.7775,493.2807 531.6618,373.5269 528.3625,345.5433 519.2523,317.5008 506.7794,296.3907 465.7698,226.9758 392.2275,182.3647 304.9383,192.3545 Z"
       style="fill:#f7f7f7;fill-rule:evenodd"
       id="path16" />
  </g>
  <path
     d="m 72.484955,293.86296 c 0.3906,3.8149 2.4032,6.8184 6.6084,6.8184 1.5919,0 6.9987,-0.21 6.9987,-2.4029 0,-0.9913 -0.3906,-1.4116 -1.5919,-1.4116 -1.5922,0 -3.3942,0.6006 -5.1965,0.6006 -4.0252,0 -3.8149,-3.7848 -3.8149,-7.209 0,-3.3942 0.2104,-6.7885 0.2104,-10.0027 0,-0.9909 -0.601,-1.5919 -1.412,-1.5919 -0.811,0 -1.5919,0.601 -1.5919,1.3819 -0.2103,3.8146 -0.2103,5.8272 -0.2103,9.4317 z m 15.3793,-3.3942 c 0,5.4068 3.3942,9.612 9.0114,9.612 5.406795,0 9.822295,-4.2052 9.822295,-9.612 0,-5.1965 -3.0039,-7.8097 -7.028795,-10.0026 -0.9913,-0.6007 -0.7812,-1.622 -2.1929,-1.622 -6.0074,0 -9.612,6.2178 -9.612,11.6246 z m 3.0039,0 c 0,-3.0039 1.592,-8.0201 5.1965,-8.0201 0.811,0 1.0213,0.6007 1.8023,0.811 3.424195,1.2016 5.827095,3.2139 5.827095,7.2091 0,3.6045 -3.0038,6.6081 -6.818395,6.6081 -3.8149,0 -6.0075,-3.0036 -6.0075,-6.6081 z m 19.404295,5.1965 c 0,2.8236 5.6171,4.8061 7.8097,4.8061 3.8149,0 8.4107,-1.8023 8.4107,-6.1877 0,-7.2091 -12.6159,-3.8149 -12.6159,-8.6211 0,-2.0123 2.0126,-3.6045 3.8149,-3.6045 3.6043,0 4.2052,3.8149 6.1877,3.8149 0.811,0 1.4117,-0.6007 1.4117,-1.4117 0,-3.6045 -4.8061,-5.4068 -7.5994,-5.4068 -3.6045,0 -6.8187,2.7936 -6.8187,6.6081 0,8.0201 12.6158,4.5959 12.6158,8.8011 0,2.2229 -3.6045,3.0038 -5.4068,3.0038 -2.6132,0 -4.2052,-3.1838 -6.6081,-3.1838 -0.9913,0 -1.2016,0.6006 -1.2016,1.3816 z m 40.8512,4.8061 2.4029,2.4029 c 0.1803,0.2104 0.3907,0.2104 0.781,0.2104 0.811,0 1.4119,-0.601 1.4119,-1.412 0,-0.9913 -1.2016,-1.5919 -1.2016,-2.7935 v -0.2101 c 2.4029,-2.1928 4.2052,-4.2054 4.2052,-7.5997 0,-5.4068 -3.8149,-8.02 -7.5994,-10.8136 -0.6009,-0.3903 -0.811,-1.2013 -1.622,-1.5919 h -1.3819 c -6.0074,0 -10.6333,5.4068 -10.6333,11.2042 0,4.4156 3.2142,10.6033 8.2304,10.6033 z m -10.423,-10.6033 c 0,-3.2142 2.1926,-7.81 6.0075,-7.81 0.6006,0 0.9913,0.601 1.8023,0.811 3.6045,0.9913 7.209,3.9952 7.209,8.2003 0,1.8023 -1.4119,5.0165 -3.3945,5.0165 -1.622,0 -2.0123,-2.8236 -3.6045,-2.8236 -1.021,0 -1.4117,0.6007 -1.4117,1.4117 0,0.9913 0.811,1.4119 0.811,2.4029 0,0 0,0.3906 -0.2103,0.3906 h -0.811 c -4.2052,0 -6.3978,-3.7848 -6.3978,-7.5994 z m 21.7471,-8.02 c 0,5.0162 -0.6009,18.443 7.5994,18.443 6.3981,0 9.0114,-8.4107 9.0114,-13.4268 0,-1.4117 0.3903,-6.9988 -2.1929,-6.9988 -0.811,0 -1.2013,0.6007 -1.4117,1.3816 0.3907,1.8023 0.6007,3.6046 0.6007,5.4068 0,3.4243 -1.4117,10.423 -6.0075,10.423 -4.4155,0 -4.2052,-7.4191 -4.4155,-10.2126 0,-0.9913 -0.1803,-6.0075 -0.1803,-6.9988 -0.21,-0.6006 -0.811,-1.0213 -1.2013,-1.0213 -1.8023,0 -1.8023,1.8023 -1.8023,3.0039 z m 21.0864,16.4304 c 0.2103,0.811 0.811,1.2016 1.4119,1.2016 1.592,0 1.592,-2.0126 1.592,-3.0038 0,-0.9913 0.2103,-6.0075 0.2103,-6.9988 v -9.8223 c -0.2103,-0.6007 -0.811,-0.9913 -1.2016,-0.9913 -1.0213,0 -1.2016,0.3906 -1.622,1.2016 0,2.4029 -0.3906,13.3968 -0.3906,15.7998 z m 15.2592,-5.6171 c 2.6132,0 3.3942,7.6297 6.6084,7.6297 0.811,0 1.4116,-0.6009 1.4116,-1.2016 0,-3.0036 -4.2052,-5.0162 -4.2052,-8.0201 v -0.2103 c 1.8023,-1.9822 3.3943,-3.3942 3.3943,-6.1877 v -1.2014 c -2.0126,-4.4155 -6.3981,-4.6258 -10.6033,-4.6258 h -2.223 c -0.6006,0 -1.2013,0.6007 -1.2013,1.2016 0,5.6168 -0.3906,11.234 -0.3906,16.6408 v 1.9825 c 0.2103,0.6007 0.811,1.2014 1.5919,1.2014 0.4207,0 0.8113,-0.3904 1.2017,-0.781 0.2103,-4.4155 -0.6007,-6.4281 4.4155,-6.4281 z m -3.8149,-3.1839 v -7.0288 l 0.4207,-0.3906 h 1.3816 c 1.8022,0 6.2178,0 6.2178,2.7936 0,3.0038 -4.8059,5.0164 -7.2088,5.0164 h -0.601 z m 28.4159,10.9939 2.4029,2.4029 c 0.1803,0.2104 0.3907,0.2104 0.781,0.2104 0.811,0 1.4119,-0.601 1.4119,-1.412 0,-0.9913 -1.2016,-1.5919 -1.2016,-2.7935 v -0.2101 c 2.403,-2.1928 4.2052,-4.2054 4.2052,-7.5997 0,-5.4068 -3.8148,-8.02 -7.5994,-10.8136 -0.6009,-0.3903 -0.811,-1.2013 -1.622,-1.5919 h -1.3819 c -6.0074,0 -10.6333,5.4068 -10.6333,11.2042 0,4.4156 3.2142,10.6033 8.2304,10.6033 z m -10.423,-10.6033 c 0,-3.2142 2.1926,-7.81 6.0075,-7.81 0.6007,0 0.9913,0.601 1.8023,0.811 3.6045,0.9913 7.209,3.9952 7.209,8.2003 0,1.8023 -1.4119,5.0165 -3.3945,5.0165 -1.6219,0 -2.0123,-2.8236 -3.6045,-2.8236 -1.021,0 -1.4116,0.6007 -1.4116,1.4117 0,0.9913 0.8109,1.4119 0.8109,2.4029 0,0 0,0.3906 -0.2103,0.3906 h -0.811 c -4.2052,0 -6.3978,-3.7848 -6.3978,-7.5994 z m 21.7471,-8.02 c 0,5.0162 -0.6009,18.443 7.5994,18.443 6.3981,0 9.0114,-8.4107 9.0114,-13.4268 0,-1.4117 0.3903,-6.9988 -2.1929,-6.9988 -0.811,0 -1.2013,0.6007 -1.4116,1.3816 0.3906,1.8023 0.6006,3.6046 0.6006,5.4068 0,3.4243 -1.4116,10.423 -6.0075,10.423 -4.4155,0 -4.2051,-7.4191 -4.4155,-10.2126 0,-0.9913 -0.1803,-6.0075 -0.1803,-6.9988 -0.21,-0.6006 -0.811,-1.0213 -1.2013,-1.0213 -1.8023,0 -1.8023,1.8023 -1.8023,3.0039 z m 21.0864,16.4304 c 0.2103,0.811 0.811,1.2016 1.4119,1.2016 1.592,0 1.592,-2.0126 1.592,-3.0038 0,-0.9913 0.2103,-6.0075 0.2103,-6.9988 v -9.8223 c -0.2103,-0.6007 -0.811,-0.9913 -1.2016,-0.9913 -1.0213,0 -1.2016,0.3906 -1.622,1.2016 0,2.4029 -0.3906,13.3968 -0.3906,15.7998 z m 8.0802,2.0126 c 0.3906,0.6007 0.811,0.781 1.4119,0.781 0.7809,0 1.2013,-0.3907 1.3816,-1.2016 0,-1.592 0.4207,-8.5907 0.4207,-10.0024 0,-0.3906 0.18,-2.1929 0.18,-2.6132 0,-0.1803 0.2103,-0.1803 0.4206,-0.1803 1.9826,0 7.5994,13.2165 11.204,13.2165 0.9912,0 1.5919,-1.0213 1.8022,-2.0126 0,-0.6006 0.3907,-3.8148 0.3907,-4.5958 0,-1.4116 0.6006,-8.6207 0.6006,-10.2127 v -0.8109 c 0,-1.2017 -0.1803,-3.2142 -1.8023,-3.2142 -0.6006,0 -1.2013,0.6009 -1.3816,1.2016 0.1803,4.4155 0,9.2216 -0.6009,13.6372 l -0.4204,0.3903 h -0.1803 c -0.2103,0 -0.6006,-0.3903 -0.6006,-0.6007 -2.8236,-4.2052 -5.8275,-8.4107 -8.8311,-12.4055 -0.6009,-0.811 -0.9913,-1.412 -1.9825,-1.412 -0.811,0 -1.622,0.601 -1.622,1.412 0,1.8022 -0.3906,10.8136 -0.3906,12.6159 z m 21.9875,-8.02 c 0.811,4.4155 4.2052,7.5994 8.801,7.5994 1.4116,0 5.8272,-0.6007 5.8272,-2.5833 0,-0.8109 -0.4204,-1.6219 -1.2014,-1.6219 -1.8022,0 -3.2142,1.0213 -5.0164,1.0213 -3.6043,0 -5.4066,-3.0039 -5.4066,-6.4281 0,-3.7849 1.592,-8.4104 6.0075,-8.4104 3.8146,0 2.0123,3.8145 4.2052,3.8145 0.6007,0 1.2016,-0.3903 1.4117,-0.9912 v -1.2014 c 0,-3.0038 -2.8234,-4.8061 -5.4066,-4.8061 -6.4281,0 -9.2216,6.1878 -9.2216,11.5946 z m 19.3742,6.9987 c 0,0.811 0.6007,1.2016 1.4117,1.2016 0.3906,0 1.5919,-0.1803 1.5919,-0.7812 v -6.8185 c 0,-1.2013 6.8187,-0.9913 7.6297,-0.9913 h 2.5832 l 0.811,0.3907 v 6.398 c 0,0.6007 0.811,1.4117 1.592,1.4117 0.4206,0 0.811,-0.3906 1.2016,-0.811 0.4203,-6.1878 0.4203,-12.6159 0.4203,-18.8036 0,-0.6007 -0.4203,-1.622 -1.4116,-1.622 -0.811,0 -1.5919,1.0213 -1.5919,1.8023 v 7.209 c 0,0.2104 -0.811,0.811 -0.811,0.811 -2.7936,0 -6.3981,0.3904 -9.402,0.3904 -0.4204,0 -1.2013,-0.18 -1.2013,-0.991 v -8.0201 c 0,-0.6009 -1.2016,-0.9913 -1.6223,-0.9913 -1.9822,0 -1.5919,3.0036 -1.5919,4.2052 v 2.0126 c 0,2.1926 0.3906,12.0149 0.3906,13.9975 z m 21.657,-8.801 c 0,5.4068 3.3942,9.612 9.0113,9.612 5.4068,0 9.8223,-4.2052 9.8223,-9.612 0,-5.1965 -3.0038,-7.8097 -7.0287,-10.0026 -0.9913,-0.6007 -0.7813,-1.622 -2.1929,-1.622 -6.0075,0 -9.612,6.2178 -9.612,11.6246 z m 3.0038,0 c 0,-3.0039 1.592,-8.0201 5.1965,-8.0201 0.811,0 1.0213,0.6007 1.8023,0.811 3.4242,1.2016 5.8272,3.2139 5.8272,7.2091 0,3.6045 -3.0039,6.6081 -6.8185,6.6081 -3.8149,0 -6.0075,-3.0036 -6.0075,-6.6081 z m 19.4043,5.1965 c 0,2.8236 5.6172,4.8061 7.8098,4.8061 3.8148,0 8.4106,-1.8023 8.4106,-6.1877 0,-7.2091 -12.6158,-3.8149 -12.6158,-8.6211 0,-2.0123 2.0126,-3.6045 3.8148,-3.6045 3.6043,0 4.2052,3.8149 6.1878,3.8149 0.811,0 1.4116,-0.6007 1.4116,-1.4117 0,-3.6045 -4.8061,-5.4068 -7.5994,-5.4068 -3.6045,0 -6.8187,2.7936 -6.8187,6.6081 0,8.0201 12.6159,4.5959 12.6159,8.8011 0,2.2229 -3.6046,3.0038 -5.4068,3.0038 -2.6133,0 -4.2052,-3.1838 -6.6082,-3.1838 -0.9912,0 -1.2016,0.6006 -1.2016,1.3816 z m -271.825795,32.7109 c 0.811,4.4155 4.2052,7.5994 8.801,7.5994 1.4117,0 5.8272,-0.6006 5.8272,-2.5832 0,-0.811 -0.4204,-1.622 -1.2013,-1.622 -1.8023,0 -3.2142,1.0213 -5.0165,1.0213 -3.6042,0 -5.4065,-3.0038 -5.4065,-6.4281 0,-3.7848 1.5919,-8.4104 6.0075,-8.4104 3.8146,0 2.0123,3.8146 4.2052,3.8146 0.6006,0 1.2016,-0.3903 1.4116,-0.9913 v -1.2013 c 0,-3.0039 -2.8233,-4.8061 -5.4065,-4.8061 -6.4281,0 -9.2217,6.1877 -9.2217,11.5945 z m 17.9927,-1.8022 c 0,5.4068 3.3942,9.612 9.011295,9.612 5.4068,0 9.8223,-4.2052 9.8223,-9.612 0,-5.1965 -3.0038,-7.8098 -7.0288,-10.0027 -0.9912,-0.6006 -0.7812,-1.6219 -2.1928,-1.6219 -6.007495,0 -9.611995,6.2177 -9.611995,11.6246 z m 3.0038,0 c 0,-3.0039 1.591995,-8.0201 5.196495,-8.0201 0.811,0 1.0213,0.6007 1.8023,0.811 3.4242,1.2016 5.8272,3.2139 5.8272,7.2091 0,3.6045 -3.0039,6.6081 -6.8185,6.6081 -3.8149,0 -6.007495,-3.0036 -6.007495,-6.6081 z m 20.004995,9.4016 c 0.2103,0.601 0.811,1.0213 1.4119,1.0213 0.6007,0 1.3816,-0.6006 1.3816,-1.2016 l 0.4207,-11.0236 c 0,-0.3906 0.18,-0.9913 0.6007,-0.9913 1.2016,0 4.3854,7.8097 6.9987,7.8097 2.7935,0 4.2052,-9.8223 6.2178,-9.8223 0.1803,0 0.3906,0 0.3906,0.2103 0.3903,1.592 -1.2016,13.6072 2.1926,13.6072 0.6007,0 1.0213,-0.2103 1.2016,-0.811 v -2.5832 c 0,-1.2016 1.2013,-16.6411 -2.4032,-16.6411 -2.7933,0 -4.8059,5.4068 -5.7971,7.2091 -0.2104,0.6009 -1.592,3.0039 -1.8023,3.6045 0,0.2104 -0.3906,0.2104 -0.6007,0.2104 -1.2016,0 -3.8148,-5.0162 -4.4155,-6.2178 -0.3906,-0.6007 -1.8023,-3.1839 -1.9825,-3.7849 -0.4207,-0.6006 -0.811,-0.811 -1.622,-0.811 -2.403,0 -1.9826,5.6172 -1.9826,6.8185 0,1.2016 -0.2103,5.7974 -0.2103,6.6084 z m 31.8699,-21.4169 c -5.1965,0 -5.7971,0.2104 -5.7971,5.4068 v 14.8088 c 0,1.021 0.6006,2.0123 1.5919,2.0123 3.8149,0 14.6285,-0.6006 14.6285,-6.3978 0,-2.8236 -4.0252,-4.0252 -4.0252,-5.2268 0,-1.2013 2.6132,-2.7932 2.6132,-4.9861 0,-4.2052 -5.6168,-5.6172 -9.0113,-5.6172 z m 1.8023,13.4269 c 1.2016,0 5.4068,0.3906 5.4068,2.4032 0,2.4931 -6.2779,3.0036 -8.2902,3.0036 -0.7509,0 -1.7122,-0.0901 -1.7122,-0.811 v -3.6045 c 0,-0.3903 1.3817,-0.811 1.592,-0.811 0.2103,0 2.0126,-0.1803 2.6132,-0.1803 z m -4.5956,-4.4155 c 0,-1.592 0.18,-3.8146 0.18,-5.1965 0.3005,-0.7208 1.0815,-0.841 1.8023,-0.841 1.8624,0 6.6084,0.2403 6.6084,2.6433 0,2.7935 -5.4068,4.8061 -7.5994,4.8061 -0.9913,0 -0.9913,-0.6009 -0.9913,-1.4119 z m 16.761,-5.6169 c 0,5.0162 -0.6009,18.4431 7.5994,18.4431 6.3981,0 9.0114,-8.4107 9.0114,-13.4269 0,-1.4116 0.3903,-6.9987 -2.1929,-6.9987 -0.811,0 -1.2013,0.6006 -1.4117,1.3816 0.3906,1.8023 0.6007,3.6045 0.6007,5.4068 0,3.4242 -1.4117,10.423 -6.0075,10.423 -4.4155,0 -4.2052,-7.4191 -4.4155,-10.2127 0,-0.9913 -0.1803,-6.0074 -0.1803,-6.9987 -0.21,-0.6007 -0.811,-1.0213 -1.2013,-1.0213 -1.8023,0 -1.8023,1.8022 -1.8023,3.0038 z m 20.4857,13.8172 c 0,2.8236 5.6172,4.8062 7.8098,4.8062 3.8148,0 8.4106,-1.8023 8.4106,-6.1878 0,-7.2091 -12.6158,-3.8148 -12.6158,-8.621 0,-2.0123 2.0126,-3.6045 3.8148,-3.6045 3.6043,0 4.2052,3.8148 6.1878,3.8148 0.811,0 1.4116,-0.6006 1.4116,-1.4116 0,-3.6045 -4.8061,-5.4068 -7.5994,-5.4068 -3.6045,0 -6.8187,2.7935 -6.8187,6.6081 0,8.0201 12.6159,4.5958 12.6159,8.801 0,2.2229 -3.6046,3.0039 -5.4068,3.0039 -2.6133,0 -4.2052,-3.1839 -6.6082,-3.1839 -0.9912,0 -1.2016,0.6007 -1.2016,1.3816 z m 24.8111,3.4243 c 0.1803,0.6006 0.781,1.2016 1.3816,1.2016 0.601,0 1.2016,-0.4207 1.412,-1.0213 0,-0.6007 0.2103,-3.7849 0.2103,-4.3855 v -12.4356 c 0,0 0.6006,-0.781 0.7809,-0.781 h 4.4156 c 0.6006,0 1.4116,-0.8109 1.4116,-1.6219 0,-0.1803 -0.4204,-1.2016 -0.811,-1.2016 h -13.2165 c -0.2103,0 -0.9913,-0.1803 -1.2016,-0.1803 h -0.2101 c -0.9912,0 -1.3819,0.6009 -1.3819,1.3819 0,1.4116 1.2016,1.8022 2.403,1.8022 0.6009,0 3.3945,0.2101 3.9951,0.2101 0.2103,0.2103 0.6007,0.3906 0.6007,0.811 0,0.6009 0.2103,3.0038 0.2103,3.6045 z m 12.7057,-0.811 c 0.2104,0.811 0.811,1.2016 1.412,1.2016 1.5919,0 1.5919,-2.0126 1.5919,-3.0039 0,-0.9913 0.2103,-6.0074 0.2103,-6.9987 v -9.8224 c -0.2103,-0.6006 -0.8109,-0.9912 -1.2016,-0.9912 -1.0213,0 -1.2016,0.3906 -1.6219,1.2016 0,2.4029 -0.3907,13.3968 -0.3907,15.7997 z m 14.0576,-19.825 c -5.1965,0 -5.7971,0.2104 -5.7971,5.4068 v 14.8088 c 0,1.021 0.6006,2.0123 1.5919,2.0123 3.8149,0 14.6285,-0.6006 14.6285,-6.3978 0,-2.8236 -4.0252,-4.0252 -4.0252,-5.2268 0,-1.2013 2.6133,-2.7932 2.6133,-4.9861 0,-4.2052 -5.6169,-5.6172 -9.0114,-5.6172 z m 1.8023,13.4269 c 1.2016,0 5.4068,0.3906 5.4068,2.4032 0,2.4931 -6.2779,3.0036 -8.2902,3.0036 -0.7509,0 -1.7121,-0.0901 -1.7121,-0.811 v -3.6045 c 0,-0.3903 1.3816,-0.811 1.5919,-0.811 0.2103,0 2.0126,-0.1803 2.6133,-0.1803 z m -4.5955,-4.4155 c 0,-1.592 0.18,-3.8146 0.18,-5.1965 0.3004,-0.7208 1.0814,-0.841 1.8022,-0.841 1.8624,0 6.6084,0.2403 6.6084,2.6433 0,2.7935 -5.4068,4.8061 -7.5994,4.8061 -0.9912,0 -0.9912,-0.6009 -0.9912,-1.4119 z m 17.3315,6.3981 c 0.3907,3.8148 2.4033,6.8184 6.6085,6.8184 1.5919,0 6.9987,-0.21 6.9987,-2.4029 0,-0.9913 -0.3906,-1.4117 -1.5919,-1.4117 -1.5923,0 -3.3942,0.6007 -5.1965,0.6007 -4.0252,0 -3.8149,-3.7848 -3.8149,-7.2091 0,-3.3942 0.2104,-6.7884 0.2104,-10.0026 0,-0.991 -0.601,-1.5919 -1.412,-1.5919 -0.811,0 -1.5919,0.6009 -1.5919,1.3819 -0.2104,3.8145 -0.2104,5.8271 -0.2104,9.4317 z m 16.5209,0.6006 c 0.6007,3.4243 1.622,6.2178 5.4065,6.2178 1.8023,0 8.8311,-0.6006 8.8311,-3.0036 0,-0.811 -0.21,-1.4119 -1.2013,-1.4119 -2.4032,0 -4.6259,1.2016 -7.0288,1.2016 h -1.5919 c -1.412,-0.9913 -1.412,-3.1839 -1.412,-4.8061 v -0.991 c 0.2104,-0.2104 0.4207,-0.601 0.811,-0.601 0.9913,-0.2103 5.4068,-0.6006 6.3981,-0.811 1.0213,-0.1803 2.4029,-0.1803 2.4029,-1.5919 0,-0.6007 0,-0.9913 -0.7809,-1.4117 h -0.811 c -2.4029,0 -4.5958,0.6007 -6.8185,0.6007 -0.1803,0 -0.6009,0 -0.7809,-0.3906 v -0.811 c 0,-0.781 0.18,-4.9862 1.5919,-4.9862 h 8.2004 c 0.811,0 1.2013,-0.8109 1.2013,-1.4119 0,-0.6007 0,-1.2013 -0.781,-1.4116 -2.2226,-0.1803 -3.2139,-0.1803 -5.2265,-0.1803 -8.801,0 -8.4104,5.1964 -8.4104,12.7961 z m 18.0825,1.2016 c 0,2.8236 5.6172,4.8062 7.8098,4.8062 3.8148,0 8.4106,-1.8023 8.4106,-6.1878 0,-7.2091 -12.6158,-3.8148 -12.6158,-8.621 0,-2.0123 2.0126,-3.6045 3.8148,-3.6045 3.6043,0 4.2052,3.8148 6.1878,3.8148 0.811,0 1.4116,-0.6006 1.4116,-1.4116 0,-3.6045 -4.8061,-5.4068 -7.5994,-5.4068 -3.6045,0 -6.8187,2.7935 -6.8187,6.6081 0,8.0201 12.6159,4.5958 12.6159,8.801 0,2.2229 -3.6046,3.0039 -5.4068,3.0039 -2.6133,0 -4.2052,-3.1839 -6.6082,-3.1839 -0.9913,0 -1.2016,0.6007 -1.2016,1.3816 z m 27.4244,0 c 0,2.8236 5.6171,4.8062 7.8097,4.8062 3.8149,0 8.4107,-1.8023 8.4107,-6.1878 0,-7.2091 -12.6159,-3.8148 -12.6159,-8.621 0,-2.0123 2.0126,-3.6045 3.8149,-3.6045 3.6042,0 4.2052,3.8148 6.1877,3.8148 0.811,0 1.4117,-0.6006 1.4117,-1.4116 0,-3.6045 -4.8062,-5.4068 -7.5994,-5.4068 -3.6046,0 -6.8188,2.7935 -6.8188,6.6081 0,8.0201 12.6159,4.5958 12.6159,8.801 0,2.2229 -3.6045,3.0039 -5.4068,3.0039 -2.6133,0 -4.2052,-3.1839 -6.6081,-3.1839 -0.9913,0 -1.2016,0.6007 -1.2016,1.3816 z m 19.3141,3.8149 c 0,0.9913 0.3903,1.4116 1.5919,1.4116 0.811,0 1.4117,-0.4203 1.4117,-1.2016 0,-1.021 -0.6007,-1.8022 -1.5919,-1.8022 -1.0214,0 -1.4117,0.7812 -1.4117,1.5922 z m 5.3167,-0.3906 c 0,0.9913 0.4203,1.3819 1.4116,1.3819 2.4032,0 1.592,-3.9952 3.6046,-4.3855 2.7935,-0.2103 4.2052,-0.4207 6.6084,-0.4207 h 1.2013 c 1.8023,0.6007 0.9913,4.4156 3.2142,4.4156 0.9913,0 1.3816,-0.811 1.3816,-1.592 0,-1.2016 -0.7809,-2.8236 -1.2013,-4.0252 -0.601,-1.8022 -3.7848,-9.612 -4.3858,-11.4142 -0.6006,-1.592 -1.2013,-3.1839 -3.0036,-3.1839 -1.0213,0 -1.622,0.7809 -2.0126,1.8022 l -6.8184,16.8211 z m 6.0074,-7.0288 c 0,-1.3816 1.622,-6.6081 3.0039,-6.6081 1.2013,0 2.8233,5.0162 2.8233,6.4278 0,0.3906 0,0.3906 -0.4204,0.601 -1.5919,0.18 -2.1928,0.18 -3.6045,0.18 h -1.5919 c -0.2104,-0.18 -0.2104,-0.3904 -0.2104,-0.6007 z m 13.9077,7.4194 c 0,0.9913 0.3903,1.4116 1.5919,1.4116 0.811,0 1.4116,-0.4203 1.4116,-1.2016 0,-1.021 -0.6006,-1.8022 -1.5919,-1.8022 -1.0213,0 -1.4116,0.7812 -1.4116,1.5922 z"
     style="fill:#ffffff;fill-rule:evenodd"
     id="path19" />
</svg>
