<?xml version="1.0" encoding="UTF-8" standalone="no"?>
<svg
   version="1.1"
   width="650.58514"
   height="230.12781"
   id="svg15"
   viewBox="0 0 650.58514 230.12781"
   sodipodi:docname="900b2052e706044f6aaad56d238e35e4.cdr"
   xmlns:inkscape="http://www.inkscape.org/namespaces/inkscape"
   xmlns:sodipodi="http://sodipodi.sourceforge.net/DTD/sodipodi-0.dtd"
   xmlns="http://www.w3.org/2000/svg"
   xmlns:svg="http://www.w3.org/2000/svg">
  <defs
     id="defs19" />
  <sodipodi:namedview
     id="namedview17"
     pagecolor="#ffffff"
     bordercolor="#666666"
     borderopacity="1.0"
     inkscape:pageshadow="2"
     inkscape:pageopacity="0.0"
     inkscape:pagecheckerboard="0" />
  <g
     id="Layer1000"
     transform="translate(-95.49555,-182.776)">
    <g
       id="Layer1001">
      <path
         d="m 102.2995,182.776 h 19.9373 v 48.7154 h 31.2141 v 15.8775 h -51.1514 z m 110.9628,45.6481 h -35.9952 c 0.3306,2.8719 1.0975,5.0216 2.3456,6.435 1.7288,2.0301 3.9995,3.0371 6.7961,3.0371 1.774,0 3.4581,-0.4359 5.0367,-1.3079 0.9774,-0.5565 2.0301,-1.5334 3.1426,-2.9317 l 17.6817,1.6238 c -2.7062,4.6911 -5.9689,8.0739 -9.7881,10.1036 -3.8192,2.0451 -9.3069,3.0673 -16.4491,3.0673 -6.2094,0 -11.0809,-0.872 -14.6444,-2.6309 -3.5485,-1.7443 -6.4953,-4.5259 -8.8409,-8.33 -2.3305,-3.8192 -3.5032,-8.2994 -3.5032,-13.4416 0,-7.3224 2.3455,-13.2617 7.0362,-17.7875 4.6765,-4.5254 11.1567,-6.7961 19.4114,-6.7961 6.7057,0 11.9834,1.0226 15.8624,3.0522 3.879,2.0301 6.8413,4.9619 8.871,8.8262 2.0296,3.8489 3.0372,8.871 3.0372,15.0508 z m -18.2231,-8.5706 c -0.3461,-3.4882 -1.2933,-5.984 -2.8117,-7.4877 -1.5188,-1.5033 -3.5033,-2.2552 -5.9844,-2.2552 -2.8564,0 -5.1422,1.1426 -6.8559,3.4129 -1.0829,1.4133 -1.7745,3.5183 -2.0749,6.33 z m 42.8515,-4.1497 -17.1407,-1.8042 c 0.6464,-3.007 1.5786,-5.3676 2.7966,-7.0818 1.218,-1.7293 2.9618,-3.2175 5.2627,-4.4807 1.6388,-0.9171 3.894,-1.6238 6.7659,-2.1201 2.8715,-0.4962 5.984,-0.7518 9.3371,-0.7518 5.3677,0 9.668,0.3008 12.9307,0.9025 3.2476,0.6012 5.9689,1.8644 8.1342,3.7735 1.5334,1.3235 2.7363,3.2029 3.6087,5.6234 0.887,2.4208 1.323,4.7363 1.323,6.9467 v 20.6892 c 0,2.2099 0.1351,3.9392 0.4209,5.1869 0.2707,1.2481 0.887,2.8418 1.8192,4.7815 h -16.7947 c -0.6765,-1.2029 -1.1125,-2.105 -1.3229,-2.7364 -0.1954,-0.6318 -0.4063,-1.6087 -0.6168,-2.9472 -2.3455,2.2556 -4.676,3.8644 -7.0065,4.8267 -3.1724,1.2929 -6.8564,1.9393 -11.0513,1.9393 -5.5781,0 -9.8182,-1.2929 -12.7048,-3.8941 -2.902,-2.5861 -4.3455,-5.7886 -4.3455,-9.5776 0,-3.5636 1.0376,-6.4953 3.1276,-8.7961 2.0899,-2.3004 5.9387,-4.0141 11.5474,-5.1271 6.7208,-1.3531 11.081,-2.3004 13.081,-2.8569 1.9995,-0.5409 4.1195,-1.2476 6.345,-2.1346 0,-2.2104 -0.451,-3.7439 -1.3686,-4.6313 -0.902,-0.887 -2.4957,-1.323 -4.781,-1.323 -2.9322,0 -5.1271,0.4661 -6.6008,1.4134 -1.1426,0.7518 -2.0597,2.1351 -2.7664,4.1798 z m 15.5168,9.3822 c -2.466,0.887 -5.0371,1.669 -7.7283,2.3607 -3.6388,0.9774 -5.9543,1.9397 -6.9166,2.8869 -1.0075,0.9774 -1.5033,2.09 -1.5033,3.3376 0,1.4284 0.4958,2.6012 1.4732,3.5037 0.9924,0.9021 2.4359,1.3532 4.3455,1.3532 1.9996,0 3.864,-0.4963 5.5932,-1.4737 1.7142,-0.9774 2.9318,-2.1652 3.6535,-3.5786 0.7217,-1.4133 1.0828,-3.2476 1.0828,-5.5028 z m 28.2367,-24.538 h 16.7198 v 7.6229 c 2.4958,-3.1272 5.0066,-5.3526 7.5626,-6.6907 2.556,-1.338 5.6535,-2.015 9.322,-2.015 4.9618,0 8.8262,1.4736 11.6379,4.4359 2.7966,2.9468 4.1949,7.5174 4.1949,13.6972 v 29.7706 h -18.0428 v -25.756 c 0,-2.9473 -0.5414,-5.0221 -1.6238,-6.2396 -1.0828,-1.218 -2.6012,-1.8348 -4.556,-1.8348 -2.1502,0 -3.9091,0.8272 -5.2472,2.4661 -1.3384,1.654 -2.015,4.6008 -2.015,8.871 v 22.4933 h -17.9524 z m 109.4293,-17.772 v 64.5929 h -16.8101 v -6.9313 c -2.3456,2.9468 -4.4953,4.9464 -6.435,5.984 -2.5711,1.3531 -5.4581,2.0297 -8.6304,2.0297 -6.3601,0 -11.2316,-2.4205 -14.5997,-7.2773 -3.3531,-4.8564 -5.0368,-10.7655 -5.0368,-17.6967 0,-7.7735 1.8644,-13.7127 5.5782,-17.8323 3.7137,-4.1196 8.4199,-6.1798 14.1482,-6.1798 2.7966,0 5.323,0.4661 7.5932,1.3983 2.2853,0.9472 4.3004,2.3455 6.0593,4.225 V 182.776 Z m -17.998,41.0021 c 0,-3.684 -0.7815,-6.4354 -2.3305,-8.2396 -1.5485,-1.8192 -3.5183,-2.7217 -5.8936,-2.7217 -2.0752,0 -3.8191,0.8724 -5.2325,2.6163 -1.3983,1.7292 -2.105,4.6459 -2.105,8.7509 0,3.8342 0.7218,6.6308 2.1803,8.4199 1.4431,1.7891 3.2477,2.6765 5.3828,2.6765 2.2853,0 4.1798,-0.9025 5.7132,-2.6916 1.5188,-1.8041 2.2853,-4.7363 2.2853,-8.8107 z m 29.0941,-23.2301 h 16.8097 v 7.6379 c 1.6238,-3.3229 3.2928,-5.6082 5.007,-6.8563 1.7293,-1.2477 3.8493,-1.8644 6.3752,-1.8644 2.661,0 5.5631,0.8272 8.7057,2.4811 l -5.5635,12.7349 c -2.1201,-0.887 -3.8037,-1.323 -5.0367,-1.323 -2.3456,0 -4.1799,0.9774 -5.4732,2.9171 -1.8493,2.7364 -2.7815,7.8635 -2.7815,15.3663 v 15.7273 h -18.0427 z m 39.1528,23.5456 c 0,-7.1568 2.4058,-13.0508 7.217,-17.6817 4.8116,-4.6308 11.3069,-6.9467 19.4862,-6.9467 9.3672,0 16.434,2.7217 21.2155,8.1647 3.8338,4.3903 5.7585,9.7881 5.7585,16.193 0,7.2174 -2.3757,13.1115 -7.1417,17.7273 -4.7664,4.6007 -11.3672,6.9011 -19.7871,6.9011 -7.5028,0 -13.5771,-1.9092 -18.208,-5.7434 -5.6986,-4.7363 -8.5404,-10.9458 -8.5404,-18.6143 z m 17.9528,-0.0301 c 0,4.1953 0.8418,7.2923 2.5259,9.2923 1.684,1.9995 3.789,3.007 6.345,3.007 2.5711,0 4.6761,-0.9924 6.3301,-2.9618 1.6539,-1.9699 2.4806,-5.1422 2.4806,-9.5028 0,-4.0744 -0.8267,-7.097 -2.4957,-9.0965 -1.669,-1.9849 -3.7288,-2.9769 -6.1949,-2.9769 -2.6012,0 -4.7514,1.0071 -6.4501,3.0221 -1.6991,2.0297 -2.5409,5.097 -2.5409,9.2166 z"
         style="fill:#726e6d;fill-rule:evenodd"
         id="path2" />
      <path
         d="m 102.7218,252.9164 h 37.3934 c 6.2245,0 11.006,1.5485 14.3441,4.6309 3.3375,3.0824 5.0065,6.9011 5.0065,11.4571 0,3.8192 -1.1878,7.097 -3.5781,9.8182 -1.5791,1.8343 -3.9096,3.2627 -6.9618,4.3305 4.6459,1.1125 8.0442,3.0221 10.2396,5.7434 2.1798,2.7213 3.2777,6.1346 3.2777,10.2391 0,3.3531 -0.782,6.3602 -2.3305,9.0367 -1.564,2.6761 -3.6991,4.7811 -6.3902,6.3451 -1.6841,0.9623 -4.21,1.669 -7.5932,2.105 -4.4958,0.5861 -7.4727,0.887 -8.9463,0.887 h -34.4612 z m 20.1176,25.3498 h 8.7057 c 3.112,0 5.2923,-0.541 6.5103,-1.6088 1.218,-1.0824 1.8343,-2.6309 1.8343,-4.661 0,-1.8795 -0.6163,-3.3526 -1.8343,-4.4053 -1.218,-1.0674 -3.3531,-1.5937 -6.3752,-1.5937 h -8.8408 z m 0,25.3501 h 10.1788 c 3.4435,0 5.8639,-0.6163 7.2773,-1.8343 1.4134,-1.2179 2.12,-2.8418 2.12,-4.9015 0,-1.9096 -0.6916,-3.4431 -2.0899,-4.6008 -1.3983,-1.1577 -3.8493,-1.7443 -7.3526,-1.7443 h -10.1336 z m 65.2096,-17.772 -17.1407,-1.8042 c 0.6465,-3.007 1.5787,-5.3677 2.7966,-7.0819 1.218,-1.7292 2.9619,-3.2175 5.2627,-4.4806 1.6389,-0.9172 3.8941,-1.6238 6.766,-2.1201 2.8715,-0.4962 5.984,-0.7519 9.337,-0.7519 5.3677,0 9.6681,0.3009 12.9308,0.9026 3.2476,0.6012 5.9689,1.8644 8.1341,3.7735 1.5334,1.3234 2.7364,3.2029 3.6087,5.6233 0.887,2.4209 1.323,4.7364 1.323,6.9468 v 20.6891 c 0,2.21 0.1351,3.9393 0.4209,5.1869 0.2707,1.2481 0.887,2.8418 1.8192,4.7816 h -16.7946 c -0.6766,-1.203 -1.1125,-2.105 -1.323,-2.7364 -0.1954,-0.6318 -0.4063,-1.6087 -0.6167,-2.9472 -2.3456,2.2556 -4.6761,3.8644 -7.0066,4.8267 -3.1723,1.2928 -6.8564,1.9393 -11.0513,1.9393 -5.5781,0 -9.8182,-1.2929 -12.7047,-3.8941 -2.9021,-2.5861 -4.3456,-5.7886 -4.3456,-9.5776 0,-3.5636 1.0377,-6.4953 3.1276,-8.7961 2.0899,-2.3004 5.9388,-4.0142 11.5475,-5.1271 6.7208,-1.3531 11.0809,-2.3004 13.0809,-2.8569 1.9995,-0.541 4.1196,-1.2476 6.3451,-2.1346 0,-2.2105 -0.4511,-3.7439 -1.3686,-4.6314 -0.9021,-0.887 -2.4958,-1.3229 -4.7811,-1.3229 -2.9322,0 -5.1271,0.4661 -6.6007,1.4133 -1.1427,0.7519 -2.0598,2.1351 -2.7665,4.1799 z m 15.5169,9.3822 c -2.4661,0.887 -5.0372,1.669 -7.7283,2.3606 -3.6389,0.9774 -5.9543,1.9398 -6.9166,2.887 -1.0076,0.9774 -1.5033,2.0899 -1.5033,3.3376 0,1.4284 0.4957,2.6012 1.4731,3.5037 0.9925,0.9021 2.436,1.3531 4.3456,1.3531 1.9995,0 3.8639,-0.4962 5.5932,-1.4736 1.7142,-0.9774 2.9317,-2.1652 3.6534,-3.5786 0.7218,-1.4134 1.0829,-3.2476 1.0829,-5.5028 z m 28.417,-24.538 h 16.8097 v 7.6379 c 1.6238,-3.3229 3.2928,-5.6083 5.007,-6.8564 1.7293,-1.2476 3.8494,-1.8644 6.3752,-1.8644 2.6611,0 5.5631,0.8272 8.7057,2.4812 l -5.5635,12.7349 c -2.12,-0.887 -3.8036,-1.323 -5.0367,-1.323 -2.3455,0 -4.1798,0.9774 -5.4731,2.9171 -1.8493,2.7364 -2.7815,7.8634 -2.7815,15.3662 v 15.7274 h -18.0428 z m 66.0063,-17.7721 v 17.7721 h 9.8337 v 13.1713 h -9.8337 v 16.5691 c 0,1.9845 0.1958,3.3079 0.5715,3.9543 0.5866,0.9925 1.6238,1.4887 3.0975,1.4887 1.3229,0 3.1723,-0.3761 5.563,-1.1426 l 1.323,12.4043 c -4.4355,0.977 -8.5701,1.4582 -12.4194,1.4582 -4.4652,0 -7.758,-0.5712 -9.8781,-1.7138 -2.1049,-1.1427 -3.6689,-2.887 -4.6911,-5.2175 -1.0075,-2.3305 -1.5188,-6.1195 -1.5188,-11.337 v -16.4637 h -6.5856 v -13.1713 h 6.5856 v -8.5856 z m 67.6456,64.593 h -16.765 v -7.548 c -2.4958,3.1125 -5.0066,5.3225 -7.5329,6.6459 -2.541,1.323 -5.653,1.9845 -9.3521,1.9845 -4.9317,0 -8.7806,-1.4732 -11.5923,-4.4355 -2.7966,-2.9468 -4.1949,-7.5028 -4.1949,-13.652 v -29.8158 h 18.0428 v 25.8012 c 0,2.9317 0.541,5.0216 1.6238,6.2697 1.0824,1.2331 2.6012,1.8494 4.5556,1.8494 2.12,0 3.8643,-0.8268 5.2325,-2.4657 1.3531,-1.6539 2.0297,-4.6162 2.0297,-8.886 v -22.5686 h 17.9528 z m 11.547,-64.593 h 17.9528 v 64.593 h -17.9528 z m 27.2447,41.3177 c 0,-7.1568 2.4058,-13.0508 7.217,-17.6817 4.8117,-4.6309 11.3069,-6.9468 19.4863,-6.9468 9.3671,0 16.434,2.7218 21.2155,8.1648 3.8338,4.3903 5.7584,9.7881 5.7584,16.1929 0,7.2175 -2.3757,13.1115 -7.1417,17.7273 -4.7664,4.6008 -11.3671,6.9012 -19.787,6.9012 -7.5028,0 -13.5772,-1.9092 -18.2081,-5.7434 -5.6986,-4.7364 -8.5404,-10.9459 -8.5404,-18.6143 z m 17.9528,-0.0302 c 0,4.1954 0.8418,7.2924 2.5259,9.2923 1.6841,1.9996 3.7891,3.0071 6.3451,3.0071 2.5711,0 4.676,-0.9925 6.33,-2.9619 1.6539,-1.9698 2.4807,-5.1421 2.4807,-9.5027 0,-4.0744 -0.8268,-7.097 -2.4958,-9.0965 -1.669,-1.9849 -3.7288,-2.9769 -6.1949,-2.9769 -2.6012,0 -4.7513,1.007 -6.45,3.0221 -1.6992,2.0296 -2.541,5.097 -2.541,9.2165 z m 35.9801,-23.5154 h 18.659 l 9.0814,29.6651 9.3823,-29.6651 H 513.57 l -19.8469,46.8209 h -15.9076 z m 61.0595,-17.7721 h 17.9528 v 12.1789 h -17.9528 z m 0,17.7721 h 17.9528 v 46.8209 h -17.9528 z m 64.3226,28.5074 17.0503,1.8945 c -0.9472,3.5636 -2.4807,6.6459 -4.6308,9.2622 -2.1351,2.6008 -4.8866,4.6309 -8.2246,6.0744 -3.3229,1.443 -7.563,2.1648 -12.7052,2.1648 -4.9769,0 -9.1115,-0.4661 -12.4194,-1.3833 -3.2928,-0.9322 -6.1346,-2.4355 -8.5249,-4.5103 -2.3757,-2.0603 -4.2401,-4.4958 -5.5937,-7.2924 -1.3531,-2.7966 -2.0296,-6.4957 -2.0296,-11.1115 0,-4.8112 0.8272,-8.8258 2.466,-12.0286 1.2025,-2.3607 2.8565,-4.4656 4.9468,-6.33 2.0899,-1.8644 4.2246,-3.2627 6.435,-4.1648 3.5033,-1.4435 7.984,-2.1653 13.442,-2.1653 7.653,0 13.4717,1.3687 17.4863,4.0899 4.0146,2.7364 6.8262,6.7208 8.4501,11.9684 l -16.87,2.2552 c -0.5264,-1.9995 -1.4887,-3.5033 -2.887,-4.5254 -1.3983,-1.0075 -3.2778,-1.5188 -5.6384,-1.5188 -2.9618,0 -5.3677,1.0678 -7.217,3.1874 -1.8343,2.1351 -2.7514,5.353 -2.7514,9.683 0,3.8494 0.9171,6.766 2.7363,8.766 1.8192,1.9995 4.1351,2.992 6.9618,2.992 2.3456,0 4.3301,-0.6012 5.9238,-1.7891 1.6087,-1.2029 2.7966,-3.0372 3.5936,-5.5183 z m 23.7113,-46.2795 h 17.9524 v 23.7711 c 2.4359,-2.5409 4.8568,-4.3601 7.2622,-5.443 2.3907,-1.0974 5.2476,-1.6389 8.5254,-1.6389 4.8714,0 8.7057,1.4887 11.5022,4.4506 2.7966,2.9774 4.1949,7.5329 4.1949,13.6826 v 29.7706 h -18.0427 v -25.756 c 0,-2.9473 -0.5414,-5.0221 -1.6238,-6.2397 -1.0829,-1.2179 -2.6012,-1.8347 -4.556,-1.8347 -2.1502,0 -3.9091,0.8272 -5.2472,2.4661 -1.3385,1.6539 -2.015,4.6007 -2.015,8.871 v 22.4933 h -17.9524 z"
         style="fill:#726e6d;fill-rule:evenodd"
         id="path4" />
    </g>
    <path
       d="m 109.0708,351.1532 h 61.9226 c 7.3105,0 13.2918,5.9813 13.2918,13.2918 v 5.0677 c 0,7.3105 -5.9813,13.2918 -13.2918,13.2918 h -61.9226 c -7.3105,0 -13.2918,-5.9813 -13.2918,-13.2918 v -5.0677 c 0,-7.3105 5.9813,-13.2918 13.2918,-13.2918 z"
       style="fill:#434343;fill-rule:evenodd;stroke:#434343;stroke-width:0.5669;stroke-linecap:butt;stroke-linejoin:miter;stroke-dasharray:none"
       id="path7" />
    <g
       id="Layer1002">
      <path
         d="m 200.4467,363.5504 v -29.3018 h 0.6323 l 19.4871,22.4118 v -22.4118 h 2.9384 v 29.3018 h -0.6668 l -19.3711,-22.2146 v 22.2146 z m 47.9928,-7.1824 2.3535,1.2379 c -0.7753,1.5029 -1.6663,2.7204 -2.68,3.6455 -1.0133,0.9185 -2.1493,1.6256 -3.4143,2.1085 -1.272,0.483 -2.7004,0.7209 -4.2985,0.7209 -3.5507,0 -6.319,-1.156 -8.3185,-3.4687 -2,-2.3124 -3,-4.9247 -3,-7.8356 0,-2.7412 0.8503,-5.1895 2.5441,-7.3322 2.1426,-2.7275 5.0199,-4.0947 8.618,-4.0947 3.7066,0 6.6725,1.4014 8.8829,4.1966 1.5711,1.9725 2.3739,4.4346 2.4009,7.3934 h -19.589 c 0.0545,2.5099 0.864,4.5639 2.4213,6.1625 1.5645,1.6052 3.4962,2.408 5.7886,2.408 1.1085,0 2.1901,-0.1905 3.2374,-0.5715 1.0474,-0.381 1.9384,-0.8844 2.673,-1.5166 0.7346,-0.6327 1.5304,-1.6464 2.3806,-3.054 z m 0.0275,-5.836 c -0.3744,-1.4896 -0.9185,-2.673 -1.6327,-3.564 -0.7209,-0.891 -1.6664,-1.6052 -2.8431,-2.1493 -1.1764,-0.5445 -2.4143,-0.8165 -3.7067,-0.8165 -2.1426,0 -3.9791,0.6801 -5.5165,2.0473 -1.1289,1 -1.9721,2.4896 -2.5503,4.4825 z m 26.9279,-8.6517 h 2.7748 v 17.2488 c 0,3.0337 -0.2649,5.2578 -0.7957,6.6659 -0.7275,1.9862 -1.9929,3.5166 -3.8019,4.591 -1.8028,1.0748 -3.9725,1.6123 -6.5028,1.6123 -1.8569,0 -3.5232,-0.2654 -5.0057,-0.7891 -1.4763,-0.5304 -2.6801,-1.2379 -3.6118,-2.1289 -0.9251,-0.8844 -1.782,-2.1901 -2.5645,-3.8976 h 3.0199 c 0.8233,1.4421 1.8844,2.5099 3.1901,3.2037 1.2995,0.6939 2.918,1.0408 4.8431,1.0408 1.9043,0 3.5095,-0.3536 4.8156,-1.0545 1.3128,-0.7071 2.2445,-1.5915 2.8024,-2.6526 0.5573,-1.0678 0.8365,-2.7886 0.8365,-5.1758 v -1.1157 c -1.0474,1.3261 -2.3332,2.3465 -3.8498,3.0541 -1.5099,0.7142 -3.1222,1.0677 -4.8227,1.0677 -1.9929,0 -3.8631,-0.4966 -5.618,-1.4829 -1.755,-0.9862 -3.1085,-2.3194 -4.0673,-3.9858 -0.9592,-1.673 -1.4355,-3.5094 -1.4355,-5.5094 0,-2.0062 0.4966,-3.8701 1.4966,-5.6043 0.9929,-1.7279 2.3739,-3.1019 4.1356,-4.1085 1.7616,-1.0066 3.6184,-1.5099 5.5706,-1.5099 1.6185,0 3.1355,0.3331 4.5365,0.9933 1.4014,0.6597 2.7549,1.7616 4.054,3.3052 z m -8.237,2.1626 c -1.5782,0 -3.0473,0.3811 -4.4009,1.1431 -1.3535,0.7616 -2.4142,1.8157 -3.1829,3.1626 -0.7688,1.3469 -1.1564,2.8023 -1.1564,4.3734 0,2.374 0.7957,4.3327 2.3876,5.8905 1.5915,1.5507 3.6593,2.3261 6.1896,2.3261 2.564,0 4.6251,-0.7687 6.1824,-2.3057 1.5578,-1.5441 2.3398,-3.5644 2.3398,-6.0739 0,-1.6327 -0.3602,-3.0881 -1.0744,-4.3668 -0.7142,-1.2787 -1.7346,-2.2924 -3.0473,-3.0336 -1.3128,-0.7413 -2.7275,-1.1157 -4.2375,-1.1157 z m 27.2412,-2.6933 c 3.3393,0 6.1146,1.2038 8.3113,3.6184 2,2.1972 3,4.8024 3,7.8085 0,3.0199 -1.0545,5.6592 -3.1697,7.9171 -2.1085,2.2583 -4.8293,3.3872 -8.1416,3.3872 -3.3332,0 -6.0607,-1.1289 -8.1692,-3.3872 -2.1152,-2.2579 -3.1696,-4.8972 -3.1696,-7.9171 0,-2.9928 0.9999,-5.5909 2.9999,-7.7881 2.1967,-2.428 4.9787,-3.6388 8.3389,-3.6388 z m -0.0138,2.7345 c -2.3194,0 -4.3056,0.8498 -5.972,2.5574 -1.6663,1.7071 -2.4962,3.7749 -2.4962,6.1962 0,1.5578 0.381,3.0132 1.136,4.3668 0.7616,1.3469 1.7886,2.3872 3.0811,3.1218 1.2857,0.7346 2.7071,1.1019 4.2511,1.1019 1.5441,0 2.9654,-0.3673 4.2512,-1.1019 1.2924,-0.7346 2.3194,-1.7749 3.081,-3.1218 0.755,-1.3536 1.136,-2.809 1.136,-4.3668 0,-2.4213 -0.8365,-4.4891 -2.5099,-6.1962 -1.6664,-1.7076 -3.6526,-2.5574 -5.9583,-2.5574 z m 37.5184,2.2986 -2.2104,1.374 c -1.918,-2.5299 -4.537,-3.7953 -7.8559,-3.7953 -2.6526,0 -4.8564,0.8502 -6.6114,2.5441 -1.7483,1.6933 -2.6256,3.7474 -2.6256,6.1691 0,1.5778 0.4014,3.0607 1.2109,4.4484 0.8024,1.3872 1.9114,2.4687 3.319,3.2374 1.4014,0.7687 2.9791,1.1497 4.7274,1.1497 3.1967,0 5.8086,-1.2653 7.8356,-3.7957 l 2.2104,1.4559 c -1.0408,1.5574 -2.4351,2.7612 -4.1829,3.6252 -1.755,0.8568 -3.7479,1.2853 -5.9858,1.2853 -3.4417,0 -6.2915,-1.0882 -8.5564,-3.2578 -2.2649,-2.1768 -3.3943,-4.8157 -3.3943,-7.9308 0,-2.0882 0.5308,-4.0336 1.592,-5.8289 1.054,-1.7958 2.5099,-3.1972 4.3597,-4.2038 1.8568,-1.0066 3.9246,-1.5099 6.217,-1.5099 1.4417,0 2.8294,0.2175 4.1692,0.653 1.3332,0.4351 2.4692,1.0067 3.4009,1.7071 0.9389,0.7005 1.7275,1.5915 2.3806,2.673 z m 6.3189,-13.399 c 0.6323,0 1.1697,0.2242 1.6185,0.6801 0.4493,0.4488 0.6735,0.9995 0.6735,1.6322 0,0.6261 -0.2242,1.1701 -0.6735,1.619 -0.4488,0.4554 -0.9862,0.6801 -1.6185,0.6801 -0.626,0 -1.1564,-0.2247 -1.6052,-0.6801 -0.4493,-0.4489 -0.6734,-0.9929 -0.6734,-1.619 0,-0.6327 0.2241,-1.1834 0.6734,-1.6322 0.4488,-0.4559 0.9792,-0.6801 1.6052,-0.6801 z m -1.381,8.8966 h 2.7753 v 21.6701 h -2.7753 z m 18.8544,-0.5307 c 3.3394,0 6.1147,1.2038 8.3114,3.6184 2,2.1972 3,4.8024 3,7.8085 0,3.0199 -1.0545,5.6592 -3.1697,7.9171 -2.1085,2.2583 -4.8293,3.3872 -8.1417,3.3872 -3.3331,0 -6.0606,-1.1289 -8.1691,-3.3872 -2.1152,-2.2579 -3.1697,-4.8972 -3.1697,-7.9171 0,-2.9928 1,-5.5909 3,-7.7881 2.1967,-2.428 4.9787,-3.6388 8.3388,-3.6388 z m -0.0137,2.7345 c -2.3194,0 -4.3057,0.8498 -5.972,2.5574 -1.6664,1.7071 -2.4962,3.7749 -2.4962,6.1962 0,1.5578 0.381,3.0132 1.136,4.3668 0.7616,1.3469 1.7886,2.3872 3.081,3.1218 1.2858,0.7346 2.7071,1.1019 4.2512,1.1019 1.5441,0 2.9654,-0.3673 4.2512,-1.1019 1.2924,-0.7346 2.3194,-1.7749 3.081,-3.1218 0.755,-1.3536 1.136,-2.809 1.136,-4.3668 0,-2.4213 -0.8365,-4.4891 -2.5099,-6.1962 -1.6664,-1.7076 -3.6526,-2.5574 -5.9583,-2.5574 z m 27.3975,0.1493 -1.7957,1.8503 c -1.4895,-1.4422 -2.9521,-2.1631 -4.3734,-2.1631 -0.9048,0 -1.6801,0.2996 -2.3261,0.8981 -0.6464,0.5915 -0.973,1.292 -0.973,2.0877 0,0.7009 0.2654,1.3744 0.7958,2.0066 0.5308,0.6531 1.653,1.4147 3.3535,2.2924 2.0678,1.0678 3.4758,2.1086 4.2237,3.1015 0.7279,1.0066 1.0952,2.1426 1.0952,3.4009 0,1.782 -0.626,3.2853 -1.8772,4.5232 -1.2516,1.2308 -2.8161,1.8498 -4.6933,1.8498 -1.2517,0 -2.4418,-0.2721 -3.5844,-0.8161 -1.136,-0.5441 -2.0744,-1.2924 -2.8227,-2.2512 l 1.7549,-1.9929 c 1.4214,1.6052 2.9384,2.4076 4.5365,2.4076 1.1156,0 2.0678,-0.3602 2.8569,-1.0744 0.782,-0.7143 1.1767,-1.5578 1.1767,-2.5237 0,-0.7958 -0.2587,-1.5029 -0.7753,-2.1289 -0.5237,-0.6119 -1.6938,-1.3806 -3.5166,-2.3057 -1.9588,-1.0066 -3.2919,-1.9995 -3.9928,-2.9791 -0.7072,-0.9797 -1.0612,-2.0948 -1.0612,-3.3531 0,-1.6394 0.5649,-3 1.6872,-4.0881 1.1289,-1.0816 2.5507,-1.6256 4.2715,-1.6256 1.9996,0 4.0128,0.9592 6.0398,2.8838 z m 38.8445,8.5024 2.0204,2.1289 c -1.2925,1.1019 -2.51,2.0677 -3.646,2.9042 0.7687,0.7346 1.7957,1.7346 3.0881,3.0067 0.9996,1.0132 1.8773,1.9383 2.6252,2.7748 h -4.0877 l -3.8905,-3.9791 c -2.4417,1.9455 -4.4213,3.2242 -5.9517,3.8161 -1.5236,0.5986 -3.1355,0.8976 -4.8289,0.8976 -2.2583,0 -4.0677,-0.6459 -5.4346,-1.9384 -1.3672,-1.2924 -2.0473,-2.9042 -2.0473,-4.836 0,-1.4559 0.4554,-2.918 1.3739,-4.3805 0.918,-1.4621 2.7886,-3.3123 5.6114,-5.5502 -1.5782,-1.9451 -2.5915,-3.3801 -3.0474,-4.3052 -0.4488,-0.9252 -0.6735,-1.8095 -0.6735,-2.6526 0,-1.4626 0.5649,-2.6735 1.6872,-3.6323 1.2991,-1.1222 2.918,-1.68 4.8493,-1.68 1.2246,0 2.3332,0.245 3.3398,0.7346 1.0066,0.4966 1.7753,1.1563 2.3057,1.9862 0.5308,0.8294 0.7957,1.7138 0.7957,2.6455 0,0.9796 -0.3465,2.027 -1.0336,3.1355 -0.6939,1.1157 -2.0612,2.5304 -4.0948,4.2583 l 4.4483,4.6659 2.9043,2.9384 c 1.5511,-1.1702 2.782,-2.1493 3.6867,-2.9384 z m -12.8483,-6.8564 c 1.4147,-1.1019 2.4891,-2.1834 3.2033,-3.2512 0.5033,-0.7549 0.755,-1.4284 0.755,-2.0132 0,-0.6735 -0.3261,-1.2583 -0.9863,-1.755 -0.6526,-0.4896 -1.5232,-0.7346 -2.6118,-0.7346 -1.0337,0 -1.8773,0.2517 -2.5299,0.7554 -0.6464,0.51 -0.9729,1.1086 -0.9729,1.7953 0,0.5308 0.1293,1.0341 0.3947,1.4967 0.6526,1.1289 1.5645,2.3668 2.7479,3.7066 z m -0.3877,3.9114 c -2.4758,1.8701 -4.1014,3.353 -4.8701,4.4616 -0.7687,1.1019 -1.1498,2.1289 -1.1498,3.0677 0,1.1086 0.4697,2.0948 1.4152,2.9517 0.9455,0.8502 2.1014,1.2791 3.4687,1.2791 1.0407,0 2.054,-0.218 3.054,-0.6464 1.5711,-0.6801 3.3602,-1.8228 5.3801,-3.4346 l -4.6251,-4.7275 c -0.7957,-0.8431 -1.6867,-1.8227 -2.673,-2.9516 z m 45.2245,-15.5422 13.6715,29.3018 h -3.1492 l -4.5777,-9.6312 h -12.6986 l -4.5507,9.6312 h -3.2644 l 13.8345,-29.3018 z m -0.3673,6.1488 -5.0402,10.6649 h 10.0597 z m 29.0435,3.836 -1.7957,1.8503 c -1.4896,-1.4422 -2.9521,-2.1631 -4.3734,-2.1631 -0.9048,0 -1.6801,0.2996 -2.3261,0.8981 -0.6464,0.5915 -0.973,1.292 -0.973,2.0877 0,0.7009 0.2654,1.3744 0.7958,2.0066 0.5308,0.6531 1.653,1.4147 3.3535,2.2924 2.0678,1.0678 3.4758,2.1086 4.2237,3.1015 0.7279,1.0066 1.0952,2.1426 1.0952,3.4009 0,1.782 -0.626,3.2853 -1.8772,4.5232 -1.2517,1.2308 -2.8161,1.8498 -4.6934,1.8498 -1.2516,0 -2.4417,-0.2721 -3.5843,-0.8161 -1.136,-0.5441 -2.0744,-1.2924 -2.8228,-2.2512 l 1.755,-1.9929 c 1.4213,1.6052 2.9384,2.4076 4.5365,2.4076 1.1156,0 2.0678,-0.3602 2.8569,-1.0744 0.782,-0.7143 1.1767,-1.5578 1.1767,-2.5237 0,-0.7958 -0.2587,-1.5029 -0.7753,-2.1289 -0.5237,-0.6119 -1.6938,-1.3806 -3.5166,-2.3057 -1.9588,-1.0066 -3.2919,-1.9995 -3.9929,-2.9791 -0.7071,-0.9797 -1.0611,-2.0948 -1.0611,-3.3531 0,-1.6394 0.5649,-3 1.6872,-4.0881 1.1289,-1.0816 2.5507,-1.6256 4.2715,-1.6256 1.9996,0 4.0128,0.9592 6.0398,2.8838 z m 23.2005,12.1346 2.3535,1.2379 c -0.7754,1.5029 -1.6664,2.7204 -2.6801,3.6455 -1.0133,0.9185 -2.1493,1.6256 -3.4142,2.1085 -1.272,0.483 -2.7005,0.7209 -4.2986,0.7209 -3.5507,0 -6.3189,-1.156 -8.3184,-3.4687 -2,-2.3124 -3,-4.9247 -3,-7.8356 0,-2.7412 0.8502,-5.1895 2.5441,-7.3322 2.1426,-2.7275 5.0198,-4.0947 8.6179,-4.0947 3.7067,0 6.6725,1.4014 8.8829,4.1966 1.5711,1.9725 2.374,4.4346 2.401,7.3934 h -19.589 c 0.0544,2.5099 0.8639,4.5639 2.4213,6.1625 1.5644,1.6052 3.4962,2.408 5.7886,2.408 1.1085,0 2.19,-0.1905 3.2374,-0.5715 1.0474,-0.381 1.9384,-0.8844 2.673,-1.5166 0.7346,-0.6327 1.5303,-1.6464 2.3806,-3.054 z m 0.0274,-5.836 c -0.3744,-1.4896 -0.9184,-2.673 -1.6327,-3.564 -0.7208,-0.891 -1.6663,-1.6052 -2.8431,-2.1493 -1.1763,-0.5445 -2.4142,-0.8165 -3.7066,-0.8165 -2.1427,0 -3.9791,0.6801 -5.5166,2.0473 -1.1289,1 -1.972,2.4896 -2.5502,4.4825 z m 19.1332,-6.2986 -1.7958,1.8503 c -1.4895,-1.4422 -2.9521,-2.1631 -4.3734,-2.1631 -0.9048,0 -1.6801,0.2996 -2.3261,0.8981 -0.6464,0.5915 -0.973,1.292 -0.973,2.0877 0,0.7009 0.2654,1.3744 0.7958,2.0066 0.5308,0.6531 1.653,1.4147 3.3535,2.2924 2.0678,1.0678 3.4758,2.1086 4.2237,3.1015 0.728,1.0066 1.0953,2.1426 1.0953,3.4009 0,1.782 -0.6261,3.2853 -1.8773,4.5232 -1.2516,1.2308 -2.8161,1.8498 -4.6933,1.8498 -1.2517,0 -2.4417,-0.2721 -3.5844,-0.8161 -1.136,-0.5441 -2.0744,-1.2924 -2.8227,-2.2512 l 1.7549,-1.9929 c 1.4214,1.6052 2.9384,2.4076 4.5365,2.4076 1.1157,0 2.0678,-0.3602 2.8569,-1.0744 0.782,-0.7143 1.1768,-1.5578 1.1768,-2.5237 0,-0.7958 -0.2588,-1.5029 -0.7754,-2.1289 -0.5237,-0.6119 -1.6938,-1.3806 -3.5166,-2.3057 -1.9587,-1.0066 -3.2919,-1.9995 -3.9928,-2.9791 -0.7072,-0.9797 -1.0612,-2.0948 -1.0612,-3.3531 0,-1.6394 0.5649,-3 1.6872,-4.0881 1.1289,-1.0816 2.5507,-1.6256 4.2716,-1.6256 1.9995,0 4.0128,0.9592 6.0398,2.8838 z m 15.1814,-2.8838 c 3.3394,0 6.1147,1.2038 8.3114,3.6184 2,2.1972 3,4.8024 3,7.8085 0,3.0199 -1.0545,5.6592 -3.1697,7.9171 -2.1085,2.2583 -4.8294,3.3872 -8.1417,3.3872 -3.3331,0 -6.0606,-1.1289 -8.1691,-3.3872 -2.1152,-2.2579 -3.1697,-4.8972 -3.1697,-7.9171 0,-2.9928 1,-5.5909 3,-7.7881 2.1967,-2.428 4.9787,-3.6388 8.3388,-3.6388 z m -0.0137,2.7345 c -2.3194,0 -4.3057,0.8498 -5.972,2.5574 -1.6664,1.7071 -2.4962,3.7749 -2.4962,6.1962 0,1.5578 0.381,3.0132 1.136,4.3668 0.7616,1.3469 1.7886,2.3872 3.081,3.1218 1.2858,0.7346 2.7071,1.1019 4.2512,1.1019 1.5441,0 2.9654,-0.3673 4.2512,-1.1019 1.2924,-0.7346 2.3194,-1.7749 3.081,-3.1218 0.755,-1.3536 1.136,-2.809 1.136,-4.3668 0,-2.4213 -0.8365,-4.4891 -2.5099,-6.1962 -1.6664,-1.7076 -3.6526,-2.5574 -5.9583,-2.5574 z m 15.399,-2.2038 h 2.8569 v 3.1693 c 0.8502,-1.2512 1.7483,-2.1764 2.6933,-2.7887 0.9455,-0.6052 1.9318,-0.9113 2.9521,-0.9113 0.7754,0 1.5986,0.245 2.4759,0.7346 l -1.4555,2.3398 c -0.5848,-0.2517 -1.0749,-0.3811 -1.4758,-0.3811 -0.9322,0 -1.8299,0.3811 -2.6938,1.1431 -0.8636,0.7616 -1.5237,1.9517 -1.9792,3.5569 -0.3469,1.2313 -0.517,3.7275 -0.517,7.482 v 7.3255 h -2.8569 z m 34.9274,0 v 21.6701 h -2.7754 v -3.7274 c -1.1697,1.4218 -2.4758,2.4895 -3.9313,3.1971 -1.4488,0.7071 -3.0402,1.0607 -4.7611,1.0607 -3.0611,0 -5.6796,-1.1086 -7.8492,-3.3261 -2.1697,-2.2241 -3.2512,-4.9175 -3.2512,-8.1004 0,-3.1086 1.0948,-5.7749 3.2853,-7.9853 2.1829,-2.2109 4.8156,-3.3194 7.8966,-3.3194 1.7754,0 3.3806,0.3743 4.8223,1.1222 1.4351,0.7484 2.7005,1.8773 3.7886,3.3943 v -3.9858 z m -11.1687,2.1626 c -1.5507,0 -2.9858,0.3811 -4.2919,1.1431 -1.3128,0.755 -2.3531,1.8228 -3.1289,3.1967 -0.7754,1.3739 -1.1631,2.8294 -1.1631,4.3668 0,1.5166 0.3877,2.9721 1.1701,4.3597 0.7821,1.3877 1.8294,2.4692 3.1493,3.2375 1.3195,0.7753 2.7342,1.1634 4.2441,1.1634 1.5166,0 2.9654,-0.381 4.326,-1.1497 1.3669,-0.7687 2.4147,-1.8024 3.1493,-3.1152 0.7346,-1.3061 1.1019,-2.7819 1.1019,-4.4213 0,-2.4962 -0.8232,-4.5843 -2.4758,-6.2639 -1.6464,-1.6801 -3.673,-2.5171 -6.081,-2.5171 z m 17.4597,-2.1626 h 2.7753 v 3.7475 c 0.9725,-1.3806 1.9654,-2.3939 2.9929,-3.0332 1.4076,-0.8299 2.8905,-1.245 4.4412,-1.245 1.0545,0 2.0474,0.2042 2.9929,0.6189 0.9455,0.4081 1.7142,0.9592 2.3128,1.6393 0.5981,0.6868 1.1151,1.6664 1.5573,2.9451 0.9251,-1.7005 2.0882,-2.9929 3.4758,-3.8768 1.3943,-0.8844 2.8906,-1.3265 4.4958,-1.3265 1.4966,0 2.8227,0.381 3.9654,1.136 1.1497,0.7549 1.9999,1.809 2.5573,3.1625 0.5578,1.3536 0.8369,3.3806 0.8369,6.0877 v 11.8146 h -2.8568 v -11.8213 c 0,-2.326 -0.1631,-3.9179 -0.4967,-4.7886 -0.3332,-0.8706 -0.8976,-1.5711 -1.7004,-2.1014 -0.8024,-0.5308 -1.7546,-0.7962 -2.8702,-0.7962 -1.3469,0 -2.5848,0.4014 -3.7,1.1972 -1.1223,0.7957 -1.9388,1.8568 -2.4554,3.1834 -0.5171,1.326 -0.7754,3.5436 -0.7754,6.645 v 8.4819 h -2.7753 v -11.0867 c 0,-2.6118 -0.1631,-4.3872 -0.4896,-5.326 -0.3265,-0.9384 -0.891,-1.6867 -1.7005,-2.2512 -0.8161,-0.5644 -1.7753,-0.8436 -2.8909,-0.8436 -1.292,0 -2.4962,0.3877 -3.6185,1.1635 -1.1223,0.7754 -1.9521,1.8228 -2.4891,3.1355 -0.5375,1.3128 -0.8095,3.3261 -0.8095,6.0332 v 9.1753 h -2.7753 z m 39.2529,-8.8966 c 0.6323,0 1.1697,0.2242 1.6185,0.6801 0.4493,0.4488 0.6735,0.9995 0.6735,1.6322 0,0.6261 -0.2242,1.1701 -0.6735,1.619 -0.4488,0.4554 -0.9862,0.6801 -1.6185,0.6801 -0.626,0 -1.1564,-0.2247 -1.6052,-0.6801 -0.4493,-0.4489 -0.6734,-0.9929 -0.6734,-1.619 0,-0.6327 0.2241,-1.1834 0.6734,-1.6322 0.4488,-0.4559 0.9792,-0.6801 1.6052,-0.6801 z m -1.381,8.8966 h 2.7753 v 21.6701 h -2.7753 z m 26.8734,14.4877 2.3535,1.2379 c -0.7753,1.5029 -1.6663,2.7204 -2.68,3.6455 -1.0133,0.9185 -2.1493,1.6256 -3.4143,2.1085 -1.272,0.483 -2.7004,0.7209 -4.2985,0.7209 -3.5507,0 -6.319,-1.156 -8.3185,-3.4687 -2,-2.3124 -3,-4.9247 -3,-7.8356 0,-2.7412 0.8503,-5.1895 2.5441,-7.3322 2.1426,-2.7275 5.0199,-4.0947 8.618,-4.0947 3.7066,0 6.6725,1.4014 8.8829,4.1966 1.5711,1.9725 2.3739,4.4346 2.4009,7.3934 h -19.589 c 0.0545,2.5099 0.864,4.5639 2.4213,6.1625 1.5645,1.6052 3.4962,2.408 5.7886,2.408 1.1085,0 2.1901,-0.1905 3.2374,-0.5715 1.0474,-0.381 1.9384,-0.8844 2.673,-1.5166 0.7346,-0.6327 1.5304,-1.6464 2.3806,-3.054 z m 0.0275,-5.836 c -0.3744,-1.4896 -0.9185,-2.673 -1.6327,-3.564 -0.7209,-0.891 -1.6664,-1.6052 -2.8431,-2.1493 -1.1764,-0.5445 -2.4143,-0.8165 -3.7067,-0.8165 -2.1426,0 -3.9791,0.6801 -5.5165,2.0473 -1.1289,1 -1.9721,2.4896 -2.5503,4.4825 z m 8.1957,-8.6517 h 2.7753 v 3.8835 c 1.1223,-1.4825 2.3602,-2.5915 3.7138,-3.319 1.3602,-0.7279 2.836,-1.0952 4.4346,-1.0952 1.6255,0 3.0677,0.408 4.326,1.2312 1.2583,0.8228 2.1901,1.9318 2.7886,3.3261 0.5986,1.3876 0.8977,3.5573 0.8977,6.5023 v 11.1412 h -2.7749 v -10.325 c 0,-2.4896 -0.109,-4.156 -0.3199,-4.9925 -0.3398,-1.4284 -0.9659,-2.5028 -1.8839,-3.2307 -0.918,-0.7209 -2.1152,-1.0816 -3.5915,-1.0816 -1.6933,0 -3.2104,0.5579 -4.5435,1.6735 -1.3399,1.1085 -2.2242,2.4891 -2.6456,4.1351 -0.2653,1.0748 -0.4014,3.0336 -0.4014,5.8838 v 7.9374 h -2.7753 z m 27.2956,-8.0805 h 2.7749 v 8.0805 h 4.4076 v 2.4076 h -4.4076 v 19.2625 h -2.7749 v -19.2625 h -3.7952 v -2.4076 h 3.7952 z m 21.6976,7.5498 c 3.3393,0 6.1147,1.2038 8.3114,3.6184 1.9999,2.1972 2.9999,4.8024 2.9999,7.8085 0,3.0199 -1.0545,5.6592 -3.1696,7.9171 -2.1085,2.2583 -4.8294,3.3872 -8.1417,3.3872 -3.3331,0 -6.0606,-1.1289 -8.1692,-3.3872 -2.1151,-2.2579 -3.1696,-4.8972 -3.1696,-7.9171 0,-2.9928 1,-5.5909 3,-7.7881 2.1966,-2.428 4.9786,-3.6388 8.3388,-3.6388 z m -0.0137,2.7345 c -2.3195,0 -4.3057,0.8498 -5.9721,2.5574 -1.6663,1.7071 -2.4962,3.7749 -2.4962,6.1962 0,1.5578 0.3811,3.0132 1.1361,4.3668 0.7616,1.3469 1.7886,2.3872 3.081,3.1218 1.2858,0.7346 2.7071,1.1019 4.2512,1.1019 1.544,0 2.9654,-0.3673 4.2511,-1.1019 1.2924,-0.7346 2.3194,-1.7749 3.0811,-3.1218 0.7549,-1.3536 1.136,-2.809 1.136,-4.3668 0,-2.4213 -0.8365,-4.4891 -2.51,-6.1962 -1.6663,-1.7076 -3.6526,-2.5574 -5.9582,-2.5574 z m 27.3975,0.1493 -1.7957,1.8503 c -1.4896,-1.4422 -2.9521,-2.1631 -4.3735,-2.1631 -0.9047,0 -1.6801,0.2996 -2.326,0.8981 -0.6465,0.5915 -0.973,1.292 -0.973,2.0877 0,0.7009 0.2654,1.3744 0.7957,2.0066 0.5308,0.6531 1.6531,1.4147 3.3536,2.2924 2.0677,1.0678 3.4758,2.1086 4.2237,3.1015 0.7279,1.0066 1.0952,2.1426 1.0952,3.4009 0,1.782 -0.626,3.2853 -1.8773,4.5232 -1.2516,1.2308 -2.816,1.8498 -4.6933,1.8498 -1.2516,0 -2.4417,-0.2721 -3.5844,-0.8161 -1.136,-0.5441 -2.0744,-1.2924 -2.8227,-2.2512 l 1.755,-1.9929 c 1.4213,1.6052 2.9384,2.4076 4.5365,2.4076 1.1156,0 2.0677,-0.3602 2.8568,-1.0744 0.782,-0.7143 1.1768,-1.5578 1.1768,-2.5237 0,-0.7958 -0.2588,-1.5029 -0.7754,-2.1289 -0.5237,-0.6119 -1.6938,-1.3806 -3.5165,-2.3057 -1.9588,-1.0066 -3.292,-1.9995 -3.9929,-2.9791 -0.7071,-0.9797 -1.0611,-2.0948 -1.0611,-3.3531 0,-1.6394 0.5649,-3 1.6871,-4.0881 1.129,-1.0816 2.5507,-1.6256 4.2716,-1.6256 1.9995,0 4.0128,0.9592 6.0398,2.8838 z m -517.3525,43.5449 -2.272,2.1493 c -1.6389,-1.6052 -3.4346,-2.8227 -5.3868,-3.6526 -1.9521,-0.8298 -3.8564,-1.2445 -5.7132,-1.2445 -2.3062,0 -4.5029,0.5644 -6.5844,1.6933 -2.0881,1.1294 -3.707,2.6597 -4.8497,4.5981 -1.1493,1.9318 -1.7208,3.9725 -1.7208,6.1284 0,2.2038 0.5919,4.2986 1.7753,6.2915 1.1834,1.9862 2.8227,3.544 4.9109,4.6796 2.0948,1.136 4.3805,1.7076 6.8696,1.7076 3.0199,0 5.5777,-0.8503 7.6659,-2.5441 2.0881,-1.6938 3.326,-3.8976 3.7137,-6.5976 h -9.3459 v -2.8569 h 12.6516 c -0.0275,4.5232 -1.3744,8.1213 -4.0403,10.781 -2.6734,2.6593 -6.2374,3.9924 -10.7128,3.9924 -5.4279,0 -9.7265,-1.8431 -12.8961,-5.5364 -2.4351,-2.8432 -3.6526,-6.1285 -3.6526,-9.8626 0,-2.7682 0.7005,-5.353 2.0948,-7.7473 1.4014,-2.3872 3.3194,-4.2578 5.7545,-5.6047 2.4417,-1.3465 5.1966,-2.02 8.271,-2.02 2.4891,0 4.836,0.4489 7.0327,1.3399 2.1971,0.898 4.3464,2.3265 6.4346,4.3056 z m 28.4041,2.7209 v 21.67 h -2.7753 v -3.7274 c -1.1697,1.4218 -2.4758,2.4895 -3.9313,3.1971 -1.4488,0.7071 -3.0402,1.0607 -4.7611,1.0607 -3.0611,0 -5.6796,-1.1085 -7.8493,-3.3261 -2.1696,-2.2241 -3.2511,-4.9175 -3.2511,-8.1004 0,-3.1086 1.0948,-5.7749 3.2853,-7.9853 2.1829,-2.2109 4.8156,-3.3194 7.8966,-3.3194 1.7754,0 3.3806,0.3744 4.8223,1.1222 1.4351,0.7484 2.7005,1.8773 3.7886,3.3943 v -3.9857 z m -11.1686,2.1625 c -1.5507,0 -2.9858,0.3811 -4.292,1.1431 -1.3127,0.755 -2.353,1.8228 -3.1288,3.1967 -0.7754,1.3739 -1.1631,2.8294 -1.1631,4.3668 0,1.5166 0.3877,2.9721 1.1701,4.3597 0.782,1.3877 1.8294,2.4692 3.1493,3.2375 1.3195,0.7753 2.7341,1.1635 4.2441,1.1635 1.5166,0 2.9654,-0.3811 4.326,-1.1498 1.3669,-0.7687 2.4147,-1.8024 3.1493,-3.1151 0.7346,-1.3062 1.1019,-2.782 1.1019,-4.4213 0,-2.4963 -0.8232,-4.5844 -2.4758,-6.264 -1.6464,-1.6801 -3.673,-2.5171 -6.081,-2.5171 z m 17.4597,-2.1625 h 2.7753 v 3.8834 c 1.1223,-1.4825 2.3602,-2.5915 3.7137,-3.319 1.3602,-0.7279 2.8361,-1.0952 4.4346,-1.0952 1.6256,0 3.0678,0.408 4.3261,1.2312 1.2583,0.8228 2.19,1.9318 2.7886,3.3261 0.5986,1.3877 0.8976,3.5573 0.8976,6.5023 v 11.1412 h -2.7749 v -10.325 c 0,-2.4896 -0.109,-4.1559 -0.3198,-4.9924 -0.3399,-1.4285 -0.9659,-2.5029 -1.8839,-3.2308 -0.9181,-0.7209 -2.1152,-1.0816 -3.5915,-1.0816 -1.6934,0 -3.2104,0.5579 -4.5436,1.6735 -1.3398,1.1085 -2.2241,2.4891 -2.6455,4.1351 -0.2654,1.0748 -0.4014,3.0336 -0.4014,5.8838 v 7.9374 h -2.7753 z m 46.4766,0 v 21.67 h -2.7754 v -3.7274 c -1.1696,1.4218 -2.4758,2.4895 -3.9312,3.1971 -1.4488,0.7071 -3.0403,1.0607 -4.7612,1.0607 -3.0611,0 -5.6796,-1.1085 -7.8492,-3.3261 -2.1697,-2.2241 -3.2512,-4.9175 -3.2512,-8.1004 0,-3.1086 1.0948,-5.7749 3.2853,-7.9853 2.183,-2.2109 4.8156,-3.3194 7.8967,-3.3194 1.7753,0 3.3805,0.3744 4.8222,1.1222 1.4351,0.7484 2.7005,1.8773 3.7886,3.3943 v -3.9857 z m -11.1687,2.1625 c -1.5507,0 -2.9858,0.3811 -4.2919,1.1431 -1.3128,0.755 -2.3531,1.8228 -3.1289,3.1967 -0.7754,1.3739 -1.1631,2.8294 -1.1631,4.3668 0,1.5166 0.3877,2.9721 1.1702,4.3597 0.782,1.3877 1.8294,2.4692 3.1492,3.2375 1.3195,0.7753 2.7342,1.1635 4.2441,1.1635 1.5166,0 2.9654,-0.3811 4.3261,-1.1498 1.3668,-0.7687 2.4146,-1.8024 3.1492,-3.1151 0.7346,-1.3062 1.1019,-2.782 1.1019,-4.4213 0,-2.4963 -0.8232,-4.5844 -2.4758,-6.264 -1.6464,-1.6801 -3.673,-2.5171 -6.081,-2.5171 z m 39.0895,-10.5289 v 30.0364 h -2.7754 v -3.7274 c -1.1696,1.4218 -2.4758,2.4895 -3.9312,3.1971 -1.4489,0.7071 -3.0403,1.0607 -4.7612,1.0607 -3.0611,0 -5.6796,-1.1085 -7.8492,-3.3261 -2.1697,-2.2241 -3.2512,-4.9175 -3.2512,-8.1004 0,-3.1086 1.0948,-5.7749 3.2853,-7.9853 2.1834,-2.2109 4.8156,-3.3194 7.8967,-3.3194 1.7753,0 3.3805,0.381 4.8222,1.136 1.4355,0.755 2.7005,1.891 3.7886,3.4076 v -12.3792 z m -11.1687,10.5289 c -1.5507,0 -2.9858,0.3811 -4.2919,1.1431 -1.3128,0.755 -2.3531,1.8228 -3.1285,3.1967 -0.7758,1.3739 -1.1635,2.8294 -1.1635,4.3668 0,1.5166 0.3877,2.9721 1.1702,4.3597 0.782,1.3877 1.8298,2.4692 3.1492,3.2375 1.3195,0.7753 2.7342,1.1635 4.2441,1.1635 1.5171,0 2.9654,-0.3811 4.3261,-1.1498 1.3672,-0.7687 2.4146,-1.8024 3.1492,-3.1151 0.7346,-1.3062 1.1019,-2.782 1.1019,-4.4213 0,-2.4963 -0.8232,-4.5844 -2.4758,-6.264 -1.646,-1.6801 -3.673,-2.5171 -6.081,-2.5171 z m 35.7904,12.3251 2.3536,1.2379 c -0.7754,1.5029 -1.6664,2.7204 -2.6801,3.6455 -1.0133,0.9185 -2.1493,1.6256 -3.4142,2.1085 -1.2721,0.483 -2.7005,0.7209 -4.2986,0.7209 -3.5507,0 -6.3189,-1.156 -8.3185,-3.4687 -1.9999,-2.3124 -2.9999,-4.9246 -2.9999,-7.8356 0,-2.7412 0.8502,-5.1895 2.544,-7.3322 2.1427,-2.7274 5.0199,-4.0947 8.618,-4.0947 3.7066,0 6.6725,1.4014 8.8829,4.1966 1.5711,1.9725 2.3739,4.4346 2.401,7.3934 h -19.5891 c 0.0545,2.5099 0.864,4.564 2.4213,6.1625 1.5645,1.6052 3.4962,2.4081 5.7886,2.4081 1.1086,0 2.1901,-0.1906 3.2375,-0.5716 1.0474,-0.381 1.9384,-0.8843 2.673,-1.5166 0.7346,-0.6327 1.5303,-1.6464 2.3805,-3.054 z m 0.0275,-5.836 c -0.3744,-1.4896 -0.9185,-2.673 -1.6327,-3.564 -0.7208,-0.891 -1.6663,-1.6052 -2.8431,-2.1493 -1.1763,-0.5445 -2.4142,-0.8165 -3.7066,-0.8165 -2.1427,0 -3.9792,0.6801 -5.5166,2.0474 -1.1289,0.9999 -1.9721,2.4895 -2.5502,4.4824 z m 7.1346,-8.6516 h 2.8569 v 3.1692 c 0.8502,-1.2512 1.7483,-2.1763 2.6933,-2.7887 0.9455,-0.6052 1.9318,-0.9113 2.9521,-0.9113 0.7754,0 1.5986,0.245 2.4759,0.7346 l -1.4555,2.3398 c -0.5848,-0.2517 -1.0749,-0.3811 -1.4758,-0.3811 -0.9322,0 -1.8299,0.3811 -2.6938,1.1431 -0.8636,0.7617 -1.5237,1.9517 -1.9792,3.5569 -0.3469,1.2313 -0.517,3.7275 -0.517,7.482 v 7.3255 h -2.8569 z"
         style="fill:#726e6d;fill-rule:evenodd"
         id="path9" />
      <path
         d="m 393.2206,389.9684 c 3.3394,0 6.1147,1.2038 8.3114,3.6184 2,2.1972 3,4.8024 3,7.8085 0,3.0199 -1.0545,5.6593 -3.1697,7.9171 -2.1085,2.2583 -4.8294,3.3872 -8.1417,3.3872 -3.3331,0 -6.0606,-1.1289 -8.1691,-3.3872 -2.1152,-2.2578 -3.1697,-4.8972 -3.1697,-7.9171 0,-2.9928 1,-5.5909 3,-7.7881 2.1967,-2.4279 4.9786,-3.6388 8.3388,-3.6388 z m -0.0137,2.7345 c -2.3194,0 -4.3057,0.8498 -5.972,2.5574 -1.6664,1.7071 -2.4962,3.7749 -2.4962,6.1962 0,1.5578 0.381,3.0132 1.136,4.3668 0.7616,1.3469 1.7886,2.3872 3.081,3.1218 1.2858,0.7346 2.7071,1.1019 4.2512,1.1019 1.544,0 2.9654,-0.3673 4.2511,-1.1019 1.2925,-0.7346 2.3195,-1.7749 3.0811,-3.1218 0.755,-1.3536 1.136,-2.809 1.136,-4.3668 0,-2.4213 -0.8365,-4.4891 -2.5099,-6.1962 -1.6664,-1.7076 -3.6526,-2.5574 -5.9583,-2.5574 z m 27.3975,0.1494 -1.7957,1.8502 c -1.4896,-1.4422 -2.9521,-2.1631 -4.3735,-2.1631 -0.9047,0 -1.68,0.2996 -2.326,0.8981 -0.6465,0.5915 -0.973,1.292 -0.973,2.0877 0,0.701 0.2654,1.3744 0.7957,2.0067 0.5308,0.653 1.6531,1.4146 3.3536,2.2924 2.0677,1.0677 3.4758,2.1085 4.2237,3.1014 0.7279,1.0066 1.0952,2.1426 1.0952,3.4009 0,1.782 -0.626,3.2853 -1.8772,4.5232 -1.2517,1.2308 -2.8161,1.8498 -4.6934,1.8498 -1.2516,0 -2.4417,-0.272 -3.5843,-0.8161 -1.136,-0.5441 -2.0744,-1.2924 -2.8228,-2.2512 l 1.755,-1.9929 c 1.4213,1.6052 2.9384,2.4076 4.5365,2.4076 1.1156,0 2.0678,-0.3602 2.8568,-1.0744 0.782,-0.7142 1.1768,-1.5578 1.1768,-2.5237 0,-0.7957 -0.2587,-1.5029 -0.7753,-2.1289 -0.5237,-0.6119 -1.6939,-1.3806 -3.5166,-2.3057 -1.9588,-1.0066 -3.292,-1.9995 -3.9929,-2.9791 -0.7071,-0.9796 -1.0611,-2.0948 -1.0611,-3.3531 0,-1.6393 0.5649,-3 1.6872,-4.0881 1.1289,-1.0816 2.5507,-1.6256 4.2715,-1.6256 1.9995,0 4.0128,0.9592 6.0398,2.8839 z"
         style="fill:#726e6d;fill-rule:evenodd"
         id="path11" />
    </g>
  </g>
</svg>
