<?xml version="1.0" encoding="UTF-8" standalone="no"?>
<svg
   version="1.1"
   width="358.8848"
   height="718.71954"
   id="svg21"
   viewBox="0 0 358.88479 718.71954"
   sodipodi:docname="e3e2f76f2317edfc6af135f7fcbd4e5a.cdr"
   xmlns:inkscape="http://www.inkscape.org/namespaces/inkscape"
   xmlns:sodipodi="http://sodipodi.sourceforge.net/DTD/sodipodi-0.dtd"
   xmlns="http://www.w3.org/2000/svg"
   xmlns:svg="http://www.w3.org/2000/svg">
  <defs
     id="defs25" />
  <sodipodi:namedview
     id="namedview23"
     pagecolor="#ffffff"
     bordercolor="#666666"
     borderopacity="1.0"
     inkscape:pageshadow="2"
     inkscape:pageopacity="0.0"
     inkscape:pagecheckerboard="0" />
  <g
     id="Layer1000"
     transform="translate(-117.9933,-61.6)">
    <path
       d="m 187.1714,690.0596 -3.4725,3.4365 c -2.1968,-2.323 -4.7605,-3.4847 -7.6855,-3.4847 -2.5458,0 -4.6823,0.8428 -6.4035,2.5339 -1.7212,1.6912 -2.5818,3.7435 -2.5818,6.1628 0,2.4976 0.8906,4.616 2.6782,6.3553 1.7875,1.7393 3.99,2.6059 6.6081,2.6059 1.703,0 3.1416,-0.3611 4.3092,-1.0772 1.1673,-0.7163 2.1124,-1.8357 2.8284,-3.3644 h -7.5047 v -4.6219 h 13.0357 l 0.036,1.0893 c 0,2.2689 -0.5896,4.4173 -1.7634,6.4517 -1.1795,2.0282 -2.702,3.5807 -4.5678,4.6519 -1.8717,1.0653 -4.0686,1.601 -6.584,1.601 -2.6904,0 -5.0916,-0.5836 -7.204,-1.7512 -2.1124,-1.1735 -3.7794,-2.8346 -5.0133,-4.9952 -1.2277,-2.1668 -1.8417,-4.4958 -1.8417,-6.9993 0,-3.4305 1.1375,-6.4157 3.4064,-8.9493 2.6903,-3.0214 6.1991,-4.532 10.514,-4.532 2.2569,0 4.3693,0.4153 6.3374,1.2521 1.6551,0.7041 3.28,1.9196 4.8688,3.6348 z m 4.6944,2.5158 h 4.1528 v 2.4375 c 0.4453,-0.951 1.0349,-1.6733 1.7694,-2.1668 0.7401,-0.4935 1.5466,-0.7401 2.4193,-0.7401 0.6197,0 1.2697,0.1624 1.95,0.4935 l -1.4927,4.1527 c -0.5596,-0.2829 -1.0231,-0.4215 -1.3842,-0.4215 -0.7342,0 -1.3601,0.4575 -1.8658,1.3723 -0.5113,0.9147 -0.7642,2.7082 -0.7642,5.3804 l 0.0182,0.9329 v 7.7335 h -4.8028 z m 12.6686,0 h 4.8748 v 9.2199 c 0,1.7935 0.1264,3.0393 0.3733,3.7375 0.2466,0.6982 0.6437,1.2399 1.1917,1.6311 0.5476,0.3852 1.2277,0.5777 2.0279,0.5777 0.8005,0 1.4868,-0.1925 2.0463,-0.5718 0.5599,-0.3792 0.9751,-0.9388 1.2458,-1.6792 0.1987,-0.5536 0.3011,-1.7331 0.3011,-3.5388 v -9.3764 h 4.8024 v 8.1127 c 0,3.346 -0.2647,5.633 -0.7942,6.867 -0.6441,1.5046 -1.601,2.654 -2.8588,3.4605 -1.258,0.8005 -2.8587,1.2036 -4.7968,1.2036 -2.1064,0 -3.8035,-0.4694 -5.1035,-1.4083 -1.2999,-0.9388 -2.2147,-2.2447 -2.7442,-3.924 -0.3793,-1.1616 -0.5658,-3.274 -0.5658,-6.3374 z m 26.4748,0 v 2.1064 c 0.8665,-0.8547 1.8054,-1.5046 2.8165,-1.9318 1.0111,-0.4275 2.0942,-0.644 3.2439,-0.644 2.4976,0 4.6219,0.9447 6.3735,2.8286 1.7512,1.8896 2.6237,4.309 2.6237,7.2641 0,2.8466 -0.9025,5.2299 -2.7142,7.1436 -1.8054,1.9199 -3.9481,2.8769 -6.4275,2.8769 -1.1013,0 -2.1305,-0.1987 -3.0813,-0.5899 -0.951,-0.3912 -1.8958,-1.0349 -2.8346,-1.9318 v 9.0575 h -4.8028 v -26.1796 z m 5.0431,3.9359 c -1.5106,0 -2.7683,0.5176 -3.7613,1.5468 -0.9992,1.0353 -1.4987,2.3831 -1.4987,4.0502 0,1.7033 0.4995,3.0815 1.4987,4.1286 0.993,1.0534 2.2507,1.577 3.7613,1.577 1.4686,0 2.7023,-0.5358 3.7074,-1.601 1.0052,-1.0713 1.5046,-2.4313 1.5046,-4.0865 0,-1.6429 -0.4935,-2.9911 -1.4805,-4.0382 -0.9811,-1.0534 -2.2269,-1.5769 -3.7315,-1.5769 z m 23.0142,-4.4053 c 1.8113,0 3.5147,0.4512 5.1094,1.3541 1.601,0.9028 2.8406,2.1245 3.7375,3.6711 0.8966,1.5528 1.3419,3.2199 1.3419,5.0134 0,1.8054 -0.4512,3.4905 -1.3478,5.0612 -0.9029,1.571 -2.1306,2.7987 -3.6834,3.6834 -1.5587,0.8847 -3.268,1.33 -5.1398,1.33 -2.7561,0 -5.1094,-0.9749 -7.0534,-2.9248 -1.95,-1.9562 -2.9248,-4.3274 -2.9248,-7.1138 0,-2.9912 1.1013,-5.4828 3.3041,-7.4747 1.9318,-1.7334 4.1465,-2.5999 6.6563,-2.5999 z m 0.0723,4.5136 c -1.4987,0 -2.7445,0.5176 -3.7375,1.5528 -0.993,1.0411 -1.4924,2.3652 -1.4924,3.9841 0,1.6611 0.4932,3.0092 1.4742,4.0382 0.9811,1.0293 2.2269,1.5469 3.7375,1.5469 1.5047,0 2.7564,-0.5236 3.7613,-1.5647 0.9992,-1.0412 1.4987,-2.3834 1.4987,-4.0204 0,-1.643 -0.4935,-2.973 -1.4746,-4.0023 -0.9808,-1.023 -2.2388,-1.5346 -3.7672,-1.5346 z m 24.705,-10.7969 h 5.8439 c 3.7676,0 6.5659,0.4694 8.4017,1.4023 1.8294,0.9329 3.34,2.4494 4.5257,4.5558 1.1855,2.1005 1.7754,4.5561 1.7754,7.3667 0,1.9979 -0.3311,3.8336 -0.993,5.5066 -0.6622,1.6733 -1.5829,3.0634 -2.7504,4.1709 -1.1676,1.1012 -2.4313,1.8655 -3.7917,2.2929 -1.36,0.4212 -3.7193,0.6319 -7.0775,0.6319 h -5.9341 z m 4.9111,4.7667 v 16.3576 h 2.287 c 2.2569,0 3.8877,-0.2588 4.9047,-0.7761 1.0174,-0.5176 1.8477,-1.3904 2.4917,-2.6121 0.644,-1.2218 0.9689,-2.7264 0.9689,-4.5199 0,-2.7501 -0.7702,-4.8866 -2.3049,-6.4034 -1.3841,-1.3661 -3.611,-2.0461 -6.6744,-2.0461 z m 21.702,-5.8861 c 0.8428,0 1.5647,0.307 2.1668,0.915 0.6078,0.6077 0.9088,1.3419 0.9088,2.2085 0,0.8546 -0.301,1.5828 -0.8969,2.1846 -0.5958,0.6021 -1.3119,0.9029 -2.1486,0.9029 -0.8544,0 -1.5826,-0.307 -2.1844,-0.9207 -0.608,-0.614 -0.9088,-1.3604 -0.9088,-2.2388 0,-0.8428 0.3008,-1.5588 0.8966,-2.1546 0.5958,-0.5959 1.3181,-0.8969 2.1665,-0.8969 z m -2.4131,7.8721 h 4.8024 v 19.1744 h -4.8024 z m 27.9371,3.8999 -4.0022,2.2028 c -0.7523,-0.7886 -1.4925,-1.3303 -2.2269,-1.637 -0.7342,-0.307 -1.5948,-0.4575 -2.5818,-0.4575 -1.7994,0 -3.2559,0.5357 -4.3634,1.601 -1.1132,1.0712 -1.667,2.4372 -1.667,4.1105 0,1.6248 0.5357,2.9489 1.601,3.9778 1.0712,1.0293 2.4735,1.541 4.2128,1.541 2.1484,0 3.8217,-0.7345 5.0253,-2.2028 l 3.7854,2.5999 c -2.0583,2.6722 -4.959,4.0082 -8.7084,4.0082 -3.3763,0 -6.0185,-0.9989 -7.9262,-2.9911 -1.9077,-1.9922 -2.8647,-4.3212 -2.8647,-6.9934 0,-1.8536 0.4635,-3.5566 1.3901,-5.1154 0.9329,-1.5588 2.2269,-2.7864 3.894,-3.6774 1.6611,-0.8906 3.5206,-1.3359 5.5788,-1.3359 1.908,0 3.6171,0.3792 5.1339,1.1375 1.5165,0.7583 2.7564,1.8354 3.7193,3.2318 z m 4.3753,-11.3026 h 4.8027 v 9.3645 c 0.9389,-0.8124 1.8777,-1.4201 2.8287,-1.8235 0.9448,-0.4031 1.9077,-0.6077 2.8766,-0.6077 1.8958,0 3.4968,0.6559 4.7968,1.974 1.1132,1.1375 1.6671,2.8106 1.6671,5.0134 v 12.6564 h -4.7305 v -8.3957 c 0,-2.2147 -0.1023,-3.7193 -0.3129,-4.5017 -0.2107,-0.7883 -0.5718,-1.372 -1.0834,-1.7634 -0.5055,-0.385 -1.1373,-0.5777 -1.8837,-0.5777 -0.9688,0 -1.8056,0.3251 -2.5035,0.9691 -0.6922,0.6438 -1.1738,1.5225 -1.4446,2.636 -0.1383,0.5777 -0.2106,1.8896 -0.2106,3.9418 v 7.6916 h -4.8027 z m 23.5437,-0.4694 c 0.8427,0 1.5647,0.307 2.1668,0.915 0.6078,0.6077 0.9088,1.3419 0.9088,2.2085 0,0.8546 -0.301,1.5828 -0.8969,2.1846 -0.5958,0.6021 -1.3119,0.9029 -2.1486,0.9029 -0.8544,0 -1.5826,-0.307 -2.1844,-0.9207 -0.6081,-0.614 -0.9088,-1.3604 -0.9088,-2.2388 0,-0.8428 0.3007,-1.5588 0.8966,-2.1546 0.5958,-0.5959 1.3181,-0.8969 2.1665,-0.8969 z m -2.4131,7.8721 h 4.8024 v 19.1744 h -4.8024 z m 23.3509,0 h 4.8028 v 19.1744 h -4.8028 v -2.0401 c -0.9388,0.8906 -1.8836,1.5284 -2.8284,1.9196 -0.945,0.3912 -1.974,0.5899 -3.0753,0.5899 -2.4857,0 -4.6281,-0.957 -6.4397,-2.8769 -1.8117,-1.9137 -2.7142,-4.297 -2.7142,-7.1436 0,-2.9551 0.8785,-5.3745 2.63,-7.2641 1.7512,-1.8839 3.8758,-2.8286 6.3793,-2.8286 1.1555,0 2.2329,0.2165 3.244,0.644 1.0111,0.4272 1.9437,1.0771 2.8043,1.9318 z m -5.0612,3.9359 c -1.4925,0 -2.7323,0.5235 -3.7134,1.5769 -0.987,1.0471 -1.4805,2.3953 -1.4805,4.0382 0,1.6552 0.4994,3.0152 1.5046,4.0865 1.0051,1.0652 2.2388,1.601 3.7074,1.601 1.5106,0 2.7683,-0.5236 3.7613,-1.577 0.9992,-1.0471 1.4987,-2.4253 1.4987,-4.1286 0,-1.6671 -0.4995,-3.0149 -1.4987,-4.0502 -0.993,-1.0292 -2.2569,-1.5468 -3.7794,-1.5468 z m 13.5893,-3.9359 h 4.1527 v 2.4375 c 0.4453,-0.951 1.0349,-1.6733 1.7694,-2.1668 0.7401,-0.4935 1.5466,-0.7401 2.4194,-0.7401 0.6196,0 1.2696,0.1624 1.9499,0.4935 l -1.4927,4.1527 c -0.5596,-0.2829 -1.023,-0.4215 -1.3842,-0.4215 -0.7341,0 -1.36,0.4575 -1.8657,1.3723 -0.5114,0.9147 -0.7642,2.7082 -0.7642,5.3804 l 0.0181,0.9329 v 7.7335 h -4.8027 z m 26.8596,0 h 4.8028 v 19.1744 h -4.8028 v -2.0401 c -0.9388,0.8906 -1.8836,1.5284 -2.8284,1.9196 -0.945,0.3912 -1.974,0.5899 -3.0753,0.5899 -2.4857,0 -4.6281,-0.957 -6.4397,-2.8769 -1.8116,-1.9137 -2.7142,-4.297 -2.7142,-7.1436 0,-2.9551 0.8785,-5.3745 2.63,-7.2641 1.7512,-1.8839 3.8758,-2.8286 6.3794,-2.8286 1.1554,0 2.2328,0.2165 3.2439,0.644 1.0112,0.4272 1.9438,1.0771 2.8043,1.9318 z m -5.0612,3.9359 c -1.4925,0 -2.7323,0.5235 -3.7134,1.5769 -0.987,1.0471 -1.4805,2.3953 -1.4805,4.0382 0,1.6552 0.4994,3.0152 1.5046,4.0865 1.0052,1.0652 2.2388,1.601 3.7074,1.601 1.5106,0 2.7683,-0.5236 3.7613,-1.577 0.9992,-1.0471 1.4987,-2.4253 1.4987,-4.1286 0,-1.6671 -0.4995,-3.0149 -1.4987,-4.0502 -0.993,-1.0292 -2.2569,-1.5468 -3.7794,-1.5468 z"
       style="fill:#1b1918;fill-rule:evenodd"
       id="path2" />
    <path
       d="M 476.8781,61.6 H 117.9933 l 0.0116,251.4955 c 0.5198,3.6273 -0.4544,-1.709 0.4062,1.9044 0.0736,0.3071 0.2202,0.6606 0.2875,0.9058 0.0666,0.244 0.1842,0.6044 0.3123,0.893 4.7192,1.537 351.6755,1.6251 356.8977,-0.0324 z"
       style="fill:#ffd300;fill-rule:evenodd"
       id="path4" />
    <path
       d="m 203.7416,635.7242 c 16.639,1.5746 67.1262,-0.8456 74.291,0.3807 6.2897,1.0762 7.6377,7.0234 18.4443,7.3288 10.9607,0.3101 12.0137,-4.4885 17.9667,-6.7429 4.4879,-1.6992 68.3878,-0.7238 76.1431,-0.7238 3.6864,-11.4574 4.6641,-38.8195 6.8153,-52.318 0.9997,-6.2723 6.6942,-8.511 15.0865,-14.4912 6.5244,-4.649 31.0282,-20.2228 32.4191,-26.9866 4.9718,-24.1798 1.2703,-55.9255 -7.0431,-78.1159 -48.9688,-130.7144 -233.1887,-129.3374 -280.9648,-0.2364 -9.119,24.6423 -11.8729,50.4466 -7.4447,76.9783 1.2906,7.735 4.4247,7.666 14.5463,15.1438 39.4703,29.1563 31.8465,15.8403 36.2249,52.5213 1.0258,8.5916 1.8643,18.9566 3.5154,27.2619 z"
       style="fill:#fe161d;fill-rule:evenodd"
       id="path6" />
    <path
       d="m 253.6337,402.0035 c -0.6613,7.8805 4.9561,28.3664 6.5006,37.6001 3.0182,18.0514 22.3578,105.0092 21.3378,110.3571 -2.3749,-10.7155 -6.7052,-24.01 -9.9766,-35.0461 L 241.3754,409.0408 c -9.2274,0.6502 -33.5672,15.9343 -31.0045,24.7275 1.9125,6.5598 51.1937,106.0749 55.4405,118.641 -2.9133,-1.7972 -28.9517,-48.0208 -32.6109,-54.3858 -10.3632,-18.0287 -22.1967,-37.5091 -31.8437,-55.0255 -5.7802,2.2358 -23.2323,26.261 -18.071,34.2707 l 49.5078,60.9936 c 4.1501,5.4076 8.0596,9.5188 12.4392,15.1762 2.1071,2.7233 9.6469,13.637 11.8346,14.7179 -5.8794,-4.1611 -22.4888,-22.4106 -28.6289,-28.6145 -3.5451,-3.5821 -6.8496,-6.2503 -9.8788,-9.542 -3.9988,-4.346 -35.7137,-37.3515 -39.6383,-38.9557 -4.5923,9.8555 -7.006,24.9176 -3.9548,37.6013 1.2738,5.2935 6.9353,7.7866 10.8072,10.6107 l 25.4542,18.5288 c 4.645,3.2622 9.8834,4.9834 10.7382,11.837 1.6557,13.2684 3.5132,26.567 4.9579,39.9959 7.5432,0.0586 52.063,-1.4471 56.876,1.3712 4.328,2.5343 6.6467,6.8721 13.7066,6.8333 6.6264,-0.0359 8.3934,-3.9484 12.7857,-6.7139 5.5345,-3.4847 42.6971,-0.002 57.5592,-1.7786 1.2002,-12.9729 3.2361,-26.159 4.7997,-38.8305 1.053,-8.5354 12.5904,-14.0792 23.3952,-21.9139 5.629,-4.0816 22.1898,-14.2872 23.7621,-20.1249 2.7064,-10.0456 0.6044,-30.9001 -4.7569,-37.49 -3.4783,2.0944 -13.8323,13.3797 -17.565,17.1548 -6.6444,6.7202 -50.2224,52.0548 -53.9384,53.6341 1.9409,-4.8496 50.2253,-62.5659 57.2788,-71.766 1.6963,-2.2121 10.4501,-12.198 11.3102,-14.2328 2.4114,-5.7072 -10.5939,-28.983 -18.5521,-32.2029 -3.8249,3.8713 -58.8777,100.5485 -63.3783,108.396 -1.0554,-1.7253 1.5236,-6.3691 2.8368,-9.1016 1.7878,-3.7183 2.8791,-6.1147 4.6432,-9.7339 l 27.7429,-59.0938 c 22.0767,-47.0101 25.1135,-40.7407 8.114,-54.9873 -4.4908,-3.7635 -13.116,-9.064 -20.1811,-10.1315 -9.7547,29.7156 -21.4155,74.6075 -30.6498,107.1622 l -10.4467,35.7978 c 0.3993,-5.388 2.033,-12.6478 3.2217,-18.5909 l 11.3652,-55.7355 c 2.3894,-11.6666 14.6639,-68.2053 14.3817,-75.5358 -10.307,-5.9188 -22.9084,-9.4134 -37.1203,-7.6325 -3.2732,14.7921 -2.8142,133.0743 -6.6194,142.0124 l -4.6861,-92.4588 c -0.2202,-9.5617 -0.0916,-39.6244 -1.6557,-46.9851 -1.1823,-5.5641 -15.1751,-2.6096 -19.8131,-1.6881 -5.9965,1.1909 -13.666,3.939 -17.7065,6.7521 z"
       style="fill:#ffd300;fill-rule:evenodd"
       id="path8" />
    <path
       d="m 254.9301,778.745 7.4545,0.5047 0.2255,-18.3306 17.1756,0.0997 0.1831,18.2419 7.2761,0.0371 0.1483,-39.1706 -7.5269,-0.1125 0.0162,13.6243 -17.3455,0.3326 -0.0301,-13.5686 -7.6035,-0.1762 z"
       style="fill:#030303;fill-rule:evenodd"
       id="path10" />
    <path
       d="m 296.2108,779.3001 22.6934,-0.1361 -0.1895,-6.514 -14.9259,-0.4051 0.0174,-10.4525 14.6361,-0.3738 0.5199,-6.4745 -15.1004,-0.4903 -0.0515,-7.7634 14.9786,-0.3385 0.2272,-6.1054 -22.8348,-0.2793 z"
       style="fill:#030303;fill-rule:evenodd"
       id="path12" />
    <path
       d="m 226.9612,768.1876 -2.6038,1.37 c -0.2005,0.1263 -0.4938,0.3292 -0.6833,0.4544 l -1.3833,1.017 c 3.341,12.5921 22.396,12.0816 25.4409,0.302 4.2775,-16.5509 -19.987,-13.4284 -15.7198,-23.8131 5.2094,-3.1683 6.7295,-0.8606 8.9891,1.8986 l 6.0416,-3.0634 c -7.327,-15.2591 -30.7158,-4.1408 -22.1909,9.3519 2.9035,4.5951 13.1218,7.2917 14.854,10.9602 2.4793,5.2517 -4.179,8.6107 -9.0615,4.806 -3.1649,-2.4665 0.113,-1.607 -3.683,-3.2836 z"
       style="fill:#030303;fill-rule:evenodd"
       id="path14" />
    <path
       d="m 352.5815,779.2555 21.2503,-0.1367 c 0.2765,-5.4019 1.4379,-6.124 -2.7417,-6.831 -2.1507,-0.364 -8.019,0.0858 -11.0686,-0.1918 l 0.036,-31.977 -7.4951,-0.1135 z"
       style="fill:#030303;fill-rule:evenodd"
       id="path16" />
    <path
       d="m 325.956,779.1709 21.2654,0.0829 c 0.4787,-9.7385 1.0292,-6.0787 -13.8387,-7.0848 l 0.0319,-32.1068 -7.4916,-0.0249 z"
       style="fill:#030303;fill-rule:evenodd"
       id="path18" />
  </g>
</svg>
