<?xml version="1.0" encoding="UTF-8" standalone="no"?>
<svg
   xmlns:dc="http://purl.org/dc/elements/1.1/"
   xmlns:cc="http://creativecommons.org/ns#"
   xmlns:rdf="http://www.w3.org/1999/02/22-rdf-syntax-ns#"
   xmlns:svg="http://www.w3.org/2000/svg"
   xmlns="http://www.w3.org/2000/svg"
   viewBox="0 0 595.27557 841.88977"
   id="svg2"
   height="841.88977"
   width="595.27557"
   version="1.1">
  <metadata
     id="metadata98">
    <rdf:RDF>
      <cc:Work
         rdf:about="">
        <dc:format>image/svg+xml</dc:format>
        <dc:type
           rdf:resource="http://purl.org/dc/dcmitype/StillImage" />
      </cc:Work>
    </rdf:RDF>
  </metadata>
  <defs
     id="defs96" />
  <g
     id="g4">
    <g
       id="g6">
      <path
         id="path8"
         style="fill:#125b35;fill-rule:evenodd"
         d="m 236.2918,424.7542 c 2.9458,0.7074 13.544,6.2744 15.3818,7.9417 l -2.8816,3.6982 c -4.7537,-2.5929 -8.8823,-8.1583 -12.5002,-11.6399 z m 76.412,27.4024 c 0.8042,-0.9245 1.7517,-1.7196 2.7244,-2.6335 2.0587,-1.9341 6.3969,-6.4985 8.6288,-8.1075 2.1325,-1.5373 4.1382,-3.4249 6.2242,-5.0734 9.5689,-7.5631 23.1717,-16.5117 35.5452,-20.6804 -3.1041,4.0879 -3.1324,4.9691 -6.8824,9.0272 -6.1611,6.668 -2.826,4.1072 -11.3666,11.2505 -7.5525,6.3173 -23.0782,14.5825 -34.8736,16.2171 z M 218.601,388.832 c 8.008,-0.7374 24.9197,4.8409 31.885,7.3316 4.912,1.756 8.8892,3.6195 13.5932,5.8681 l 13.1285,6.6888 -6.1429,5.0339 c -2.2896,1.9394 -4.0933,3.2976 -5.9103,5.1408 -10.141,-6.6124 -30.6188,-15.8545 -43.0415,-17.455 -0.8475,-3.0789 -3.3719,-9.5972 -3.512,-12.6082 z m 156.2029,8.277 c -11.3399,-1.1839 -41.9475,14.9214 -51.3158,21.0606 -12.0912,7.9225 -22.6392,16.0422 -32.0209,26.895 l -4.2077,4.843 c -1.2133,1.2785 -1.3818,1.4336 -2.2624,2.5383 -3.0175,-0.8502 -6.7777,-1.4122 -10.1796,-2.3496 -3.4933,-0.963 -6.5712,-2.4046 -9.7303,-3.3372 l 10.2779,-11.0222 c 6.3028,-6.1231 16.0984,-14.4461 23.7139,-19.2779 15.5679,-9.8774 23.8636,-15.0845 43.1217,-21.6279 7.1792,-2.4394 27.4506,-8.4743 35.2918,-7.5316 l -2.6886,9.8095 z M 293.189,348.3705 c -0.6053,-0.9956 -2.3811,-10.1501 -6.0311,-17.3886 -2.7897,-5.5312 -6.3445,-10.3566 -9.9699,-13.6162 -8.2893,-7.4541 -21.2099,-13.8574 -33.5582,-12.9697 -1.5101,8.0898 2.841,19.7858 5.9397,25.6319 5.7943,10.9319 15.954,17.2331 26.8485,21.6617 8.0005,3.2522 13.4862,7.5722 16.1101,16.409 1.2903,4.3447 0.6304,22.7905 0.6128,28.9473 l -17.9368,-9.7817 c -11.8633,-6.2124 -29.0012,-11.1575 -42.5142,-13.6638 -5.8157,-1.0791 -19.5222,-3.4821 -25.0128,-2.8624 0.2128,21.9515 8.5149,45.8141 23.1567,61.8199 6.8648,7.5044 18.2191,17.0166 29.3387,21.8178 36.8296,15.9027 73.5662,8.4652 101.4959,-18.8174 17.3405,-16.939 25.3502,-40.085 26.0453,-64.8385 -12.6596,-1.3063 -35.318,4.111 -47.1803,6.9942 -9.471,2.3026 -20.7659,7.1204 -29.6466,11.1111 -1.9245,0.8651 -7.669,4.1548 -8.9101,4.3612 1.3036,-11.9891 -4.3324,-30.7766 12.174,-39.106 3.8907,-1.9635 8.7668,-3.6147 12.1158,-5.5205 15.4487,-8.7897 24.9881,-20.0489 25.6678,-44.3612 -24.1257,1.3941 -40.5727,13.4906 -47.2706,34.9923 -0.8973,2.8801 -1.2845,6.9146 -2.4491,9.3577 -0.7293,-1.9357 -0.1727,-16.4353 -0.2128,-20.897 -0.0679,-7.6187 7.6006,-9.7667 10.5496,-25.9132 2.2939,-12.5585 -0.6487,-24.9524 -7.846,-34.4956 l -4.9847,-5.8835 c -1.0919,-1.1187 -0.916,-1.0492 -2.2838,-1.6566 -3.9313,4.2671 -8.8722,9.0844 -11.8356,16.5385 -6.5044,16.362 -3.7554,30.8524 5.629,45.1638 1.3336,2.0335 1.9218,2.1683 1.9411,5.3242 0.0144,2.4159 -0.0145,4.8526 -0.0214,7.2712 -0.0128,4.7879 0.0626,9.5924 0.039,14.3701 z" />
      <path
         id="path10"
         style="fill:#125a34;fill-rule:evenodd"
         d="m 427.0881,539.9839 10.1939,-0.0225 -0.024,-35.7826 c 1.8212,3.0351 6.9776,19.5971 9.2261,25.0449 0.1877,0.4545 0.2224,0.5625 0.4449,0.9694 0.3048,0.5599 0.3668,0.6305 0.6122,0.9411 l 7.6974,6e-4 c 1.0972,-2.0796 1.7838,-4.6265 2.5806,-6.7167 1.6843,-4.42 6.137,-17.8421 7.7428,-20.2799 l -0.3112,35.6965 10.5356,0.1465 -0.005,-52.8419 -13.3002,0.0861 -10.9682,30.6766 -11.1036,-30.5386 -13.4017,-0.1706 0.0802,52.7911 z" />
      <path
         id="path12"
         style="fill:#f8f6ef;fill-rule:evenodd"
         d="m 377.4925,387.2995 c -7.8412,-0.9427 -28.1126,5.0922 -35.2918,7.5316 -19.2581,6.5434 -27.5538,11.7505 -43.1217,21.6279 -7.6155,4.8318 -17.4111,13.1548 -23.7139,19.2779 l -10.2779,11.0222 c 3.1591,0.9326 6.237,2.3742 9.7303,3.3372 3.4019,0.9374 7.1621,1.4994 10.1796,2.3496 0.8806,-1.1047 1.0491,-1.2598 2.2624,-2.5383 l 4.2077,-4.843 c 9.3817,-10.8528 19.9297,-18.9725 32.0209,-26.895 9.3683,-6.1392 39.9759,-22.2445 51.3158,-21.0606 l 2.6886,-9.8095 z" />
      <path
         id="path14"
         style="fill:#125a34;fill-rule:evenodd"
         d="m 243.0913,540.0106 10.5105,-0.0807 0.0316,-25.2892 c -0.004,-1.3598 0.0107,-2.7415 -0.0385,-4.0987 -0.0513,-1.4293 -0.3305,-2.5415 0.231,-3.689 0.6566,2.3105 2.6421,6.0798 3.8709,8.3887 l 12.4317,24.6909 11.1747,0.0203 0.0192,-52.6548 -10.4624,-0.1165 c 0.1925,7.1177 -0.8721,27.7537 0.438,32.9015 -2.2261,-1.5416 -14.1659,-27.8393 -17.5261,-32.6588 l -10.7341,-0.2417 0.0535,52.828 z" />
      <path
         id="path16"
         style="fill:#145a35;fill-rule:evenodd"
         d="m 300.1805,518.2624 c -0.0288,-7.6038 -1.2272,-19.3421 5.1195,-21.7793 3.5805,-1.3748 8.2657,-0.6711 10.4068,1.4983 2.3025,2.334 2.9057,6.5364 3.0228,10.7773 0.2117,7.6995 0.9518,19.025 -5.1259,21.7809 -3.3297,1.5101 -8.1294,0.701 -10.4833,-1.3951 -2.4773,-2.2052 -2.926,-7.1198 -2.9399,-10.8821 z m 5.7349,-31.9198 c -16.971,2.0699 -17.3844,18.2715 -16.9769,31.0166 0.1048,3.2672 0.5663,7.445 1.4908,10.3897 3.2902,10.4795 12.5056,14.4097 23.0642,13.1221 16.3166,-1.9897 16.616,-18.7602 16.3861,-31.2166 -0.2839,-15.4038 -7.7941,-25.2839 -23.9642,-23.3118 z" />
      <path
         id="path18"
         style="fill:#125a34;fill-rule:evenodd"
         d="m 399.453,498.8893 5.4991,21.1783 -10.7538,-0.007 5.2547,-21.1713 z m -21.7477,41.0492 11.4062,0.0181 2.6934,-11.204 15.3358,0.0267 2.8715,11.165 11.3966,0.0214 -15.3557,-52.6232 -12.8392,-0.1342 -15.5086,52.7302 z" />
      <path
         id="path20"
         style="fill:#125a34;fill-rule:evenodd"
         d="m 236.0645,521.7402 -11.3142,0.0299 c 0.1813,9.1433 -6.1734,10.4336 -11.2645,8.2252 -5.2831,-2.2919 -4.9638,-9.5293 -4.9676,-16.2599 -0.004,-6.0386 -0.4973,-14.475 4.4158,-16.8058 3.6692,-1.7406 11.8404,-2.0491 11.7976,8.2673 l 11.1228,-0.0454 c 0.2502,-13.5542 -8.7369,-21.0622 -22.9744,-18.7603 -12.7992,2.0694 -15.899,12.8585 -15.8305,26.8913 0.0588,12.2067 1.5747,24.2203 15.4262,27.2944 6.0194,1.3363 13.7296,-0.123 17.3251,-3.2693 4.7184,-4.1297 5.6873,-7.222 6.2637,-15.5674 z" />
      <path
         id="path22"
         style="fill:#145a35;fill-rule:evenodd"
         d="m 374.7258,521.7151 -11.0431,0.055 c 0.0936,3.4319 -0.3888,6.4253 -2.5651,7.853 -2.2362,1.4662 -5.8269,1.3726 -8.2903,0.4743 -5.605,-2.0432 -5.2815,-9.1999 -5.2863,-15.9096 -0.004,-6.5531 -0.5272,-14.5525 4.2532,-16.9417 2.5875,-1.2935 6.5455,-1.4218 8.9497,0.0947 2.7067,1.7073 2.9238,4.0313 2.9591,7.8219 l 11.0078,-0.0118 c 0.0674,-23.3299 -27.304,-24.0855 -35.4655,-10.0463 -2.9437,5.0638 -2.9624,11.7286 -2.9763,18.1779 -0.0305,14.1124 2.8063,24.8903 15.1482,27.3276 12.4575,2.4602 23.0461,-3.4126 23.3086,-18.895 z" />
      <path
         id="path24"
         style="fill:#125a34;fill-rule:evenodd"
         d="m 160.5648,539.8754 31.2123,0.0812 0.0348,-9.5047 -20.38,0.0246 0.0177,-12.543 17.17,-0.0251 -0.0161,-9.2384 -17.1732,-0.0113 0.0236,-11.9954 20.0125,0.0968 -0.0909,-9.6053 -30.8396,0.0663 0.0289,52.6543 z" />
      <path
         id="path26"
         style="fill:#145a35;fill-rule:evenodd"
         d="m 119.2039,496.8328 12.5227,-0.061 -0.0139,43.0319 10.9725,0.1406 0.004,-43.2013 11.8312,0.0534 0.3097,-9.6672 -35.7447,0.0737 0.1187,9.6299 z" />
      <path
         id="path28"
         style="fill:#f8f6ef;fill-rule:evenodd"
         d="m 250.486,396.1636 c -6.9653,-2.4907 -23.877,-8.069 -31.885,-7.3316 0.1401,3.011 2.6645,9.5293 3.512,12.6082 12.4227,1.6005 32.9005,10.8426 43.0415,17.455 1.817,-1.8432 3.6207,-3.2014 5.9103,-5.1408 l 6.1429,-5.0339 -13.1285,-6.6888 c -4.704,-2.2486 -8.6812,-4.1121 -13.5932,-5.8681 z" />
      <path
         id="path30"
         style="fill:#f8f6ef;fill-rule:evenodd"
         d="m 300.1805,518.2624 c 0.0139,3.7623 0.4626,8.6769 2.9399,10.8821 2.3539,2.0961 7.1536,2.9052 10.4833,1.3951 6.0777,-2.7559 5.3376,-14.0814 5.1259,-21.7809 -0.1171,-4.2409 -0.7203,-8.4433 -3.0228,-10.7773 -2.1411,-2.1694 -6.8263,-2.8731 -10.4068,-1.4983 -6.3467,2.4372 -5.1483,14.1755 -5.1195,21.7793 z" />
      <path
         id="path32"
         style="fill:#f8f6ef;fill-rule:evenodd"
         d="m 312.7038,452.1566 c 11.7954,-1.6346 27.3211,-9.8998 34.8736,-16.2171 8.5406,-7.1433 5.2055,-4.5825 11.3666,-11.2505 3.75,-4.0581 3.7783,-4.9393 6.8824,-9.0272 -12.3735,4.1687 -25.9763,13.1173 -35.5452,20.6804 -2.086,1.6485 -4.0917,3.5361 -6.2242,5.0734 -2.2319,1.609 -6.5701,6.1734 -8.6288,8.1075 -0.9727,0.9139 -1.9202,1.709 -2.7244,2.6335 z" />
      <path
         id="path34"
         style="fill:#f8f6ef;fill-rule:evenodd"
         d="m 394.1983,520.0606 10.7538,0.007 -5.4991,-21.1783 -5.2547,21.1713 z" />
      <path
         id="path36"
         style="fill:#f5f6ed;fill-rule:evenodd"
         d="m 236.2918,424.7542 c 3.6179,3.4816 7.7465,9.047 12.5002,11.6399 l 2.8816,-3.6982 c -1.8378,-1.6673 -12.436,-7.2343 -15.3818,-7.9417 z" />
    </g>
    <g
       id="g38">
      <path
         id="path40"
         style="fill:#145532;fill-rule:evenodd"
         d="m 234.877,570.9311 c 2.48,2.495 4.9045,7.8717 7.6043,10.8608 l 3.057,0.1042 0.031,-17.1379 -3.2158,0.0829 0.0118,11.0635 -4.5676,-6.5253 c -0.7176,-1.0967 -1.2652,-2.1314 -2.1031,-3.3324 -1.2775,-1.8325 -1.3673,-1.2245 -3.9249,-1.2871 l 0.1615,17.1123 2.9939,-0.1145 -0.0481,-10.8265 z" />
      <path
         id="path42"
         style="fill:#246442;fill-rule:evenodd"
         d="m 446.581,577.5499 6.1915,0.01 1.5277,4.2757 3.1437,0.1331 c -0.2807,-3.3559 -4.7676,-13.0178 -5.6483,-17.2036 l -4.2222,-0.0653 c -0.8202,5.0451 -5.5467,13.027 -5.6328,17.2117 l 3.1202,-0.0652 1.5202,-4.296 z" />
      <path
         id="path44"
         style="fill:#246442;fill-rule:evenodd"
         d="m 403.1015,577.5478 6.0499,0.0957 1.5929,4.2339 3.1057,0.0412 c -0.1395,-3.6308 -4.9419,-12.7366 -5.5937,-17.1785 l -4.2088,-0.0391 c -0.9198,4.5297 -5.4446,13.6788 -5.5644,17.1989 l 3.1078,-0.0401 1.5106,-4.312 z" />
      <path
         id="path46"
         style="fill:#145532;fill-rule:evenodd"
         d="m 297.7674,567.7222 c 2.6961,-0.2444 6.0338,-0.4898 6.0568,2.5052 0.0241,3.064 -3.3286,2.7132 -6.029,2.5496 l -0.0278,-5.0548 z m 6.1964,7.4797 c 1.4422,-1.3523 2.3966,-1.2218 2.8757,-3.8521 1.4395,-7.908 -7.524,-6.5023 -12.274,-6.5932 l 0.0647,15.4284 c 0.3449,1.8614 0.1209,0.9181 0.6625,1.7192 l 1.8111,0.0101 c 0.4583,-0.6663 0.7123,-0.5524 0.7556,-3.0987 0.0155,-0.931 -0.0668,-2.1528 -0.1096,-3.1666 l 3.1575,-0.122 c 0.5823,2.1673 2.3469,4.5837 3.41,6.3199 l 3.2757,0.0995 c -0.4364,-2.0977 -2.5458,-4.9959 -3.6292,-6.7445 z" />
      <path
         id="path48"
         style="fill:#246442;fill-rule:evenodd"
         d="m 262.2441,577.5927 5.8194,-0.001 1.555,4.2783 3.2469,-0.1149 c -0.3909,-2.1844 -5.0115,-15.4969 -6.0938,-16.9968 l -3.6104,0.0107 -5.782,17.0716 3.0025,0.0572 1.8624,-4.305 z" />
      <path
         id="path50"
         style="fill:#145532;fill-rule:evenodd"
         d="m 420.9528,567.7682 c 2.657,-0.3962 5.961,-0.4561 5.9525,2.4629 -0.01,3.0645 -3.287,2.7576 -5.9878,2.5031 l 0.0353,-4.966 z m 6.1118,7.4337 c 1.2615,-1.4427 2.4758,-1.2983 2.925,-3.8543 1.3951,-7.9422 -8.3882,-6.4968 -12.2479,-6.5979 l 0.2385,17.1106 2.8945,0.01 -0.0246,-6.2685 3.126,-0.0364 c 0.5614,1.6427 2.3832,4.7254 3.511,6.2301 l 3.18,0.1144 c -0.3963,-2.3186 -2.448,-4.5879 -3.6025,-6.7076 z" />
      <path
         id="path52"
         style="fill:#145532;fill-rule:evenodd"
         d="m 214.9896,574.7512 c -1.2486,-8.3214 7.5396,-10.5459 8.778,-3.1287 1.4346,8.5898 -7.6541,10.6217 -8.778,3.1287 z m -3.2447,0 c 1.0165,10.7046 16.5796,9.9089 15.2658,-3.1565 -1.016,-10.1068 -16.5187,-10.0394 -15.2658,3.1565 z" />
      <path
         id="path54"
         style="fill:#145532;fill-rule:evenodd"
         d="m 286.7259,575.072 c -0.1444,2.6335 -0.9079,4.9847 -4.851,4.0174 -2.0442,-0.5011 -3.303,-2.7186 -3.5062,-5.2339 -0.5609,-6.9423 6.3809,-8.6935 8.0915,-4.4623 l 3.3639,-0.0994 c -0.9272,-7.3803 -17.0534,-6.86 -14.4231,6.2798 1.8282,9.1346 12.3457,6.7722 14.0274,3.7179 0.8609,-1.5641 0.2749,-4.7836 0.3786,-6.9445 l -6.4028,0.1546 -0.0235,2.4998 3.3452,0.0706 z" />
      <path
         id="path56"
         style="fill:#145532;fill-rule:evenodd"
         d="m 317.8426,567.3399 c 6.3519,-1.8913 7.508,10.4148 2.2003,11.8029 -6.6594,1.7411 -7.6909,-10.1677 -2.2003,-11.8029 z m -6.5151,7.862 c 1.8175,10.6769 16.6208,8.7337 15.2177,-3.5751 -1.2465,-10.9292 -17.3769,-9.1064 -15.2177,3.5751 z" />
      <path
         id="path58"
         style="fill:#145532;fill-rule:evenodd"
         d="m 150.7741,575.1715 c -0.0492,4.7943 -3.6656,4.4692 -5.3826,3.704 -6.1434,-2.7378 -2.2891,-16.0006 4.5372,-10.4154 1.6619,1.3604 1.4272,0.8524 3.8837,0.9385 -1.1208,-6.7942 -13.7392,-7.3209 -14.6301,2.7206 -0.4021,4.5329 1.5069,7.7284 4.3313,9.1107 4.6446,2.2725 7.5022,-0.01 10.163,-1.9603 l 0.1219,-7.0509 -6.3996,0.3305 0.0733,2.4832 3.3019,0.1391 z" />
      <path
         id="path60"
         style="fill:#145532;fill-rule:evenodd"
         d="m 172.1785,576.6553 c -0.0984,7.9257 14.6964,7.0851 12.3559,-1.1042 -0.9807,-3.4324 -5.2943,-3.1495 -7.7359,-5.0483 -2.9543,-2.2977 2.7282,-5.6269 4.1302,-1.1208 l 3.5212,0.0385 c -0.6556,-6.5028 -10.525,-6.3787 -11.7484,-1.2684 -1.7742,7.4118 9.0887,4.4709 8.4721,10.2678 -3.1623,1.5582 -4.4494,1.2037 -5.8937,-1.7865 l -3.1014,0.0219 z" />
      <path
         id="path62"
         style="fill:#145532;fill-rule:evenodd"
         d="m 381.8297,564.8887 c -0.0674,9.7486 -1.9806,17.2748 6.7242,17.2154 8.7293,-0.0593 6.8054,-7.0893 6.8316,-17.309 l -3.2789,-0.0454 c 0.1598,7.2278 1.3753,14.5364 -3.5522,14.5851 -5.0473,0.0497 -3.4618,-6.7872 -3.5928,-14.5755 l -3.1319,0.1294 z" />
      <path
         id="path64"
         style="fill:#145532;fill-rule:evenodd"
         d="m 351.1457,567.6302 7.6032,0.0439 0.0235,-2.8806 -10.7581,-0.0438 -0.1101,17.1432 10.8779,0.0642 -0.015,-3.0196 -7.5525,0.01 -0.1229,-4.1393 c 1.2491,-0.0802 2.2891,-0.0438 3.5152,-0.0566 l 3.0383,-0.4508 0.0278,-1.8031 c -1.6474,-1.094 -3.8564,-0.5759 -6.5038,-0.7016 l -0.0235,-4.1655 z" />
      <path
         id="path66"
         style="fill:#145532;fill-rule:evenodd"
         d="m 161.7086,567.6099 7.4664,0.0802 0.0395,-2.9115 -10.7019,-0.003 0.1765,17.048 10.665,-0.0246 0.1321,-2.8441 -7.7391,0.0529 -0.0989,-4.2858 6.4279,0.0422 0.1166,-2.9345 -6.5033,0.0775 0.0192,-4.2976 z" />
      <path
         id="path68"
         style="fill:#145532;fill-rule:evenodd"
         d="m 334.6874,567.6131 c 3.4073,0.0337 3.572,-0.2219 5.7686,1.6272 0.1075,4.6077 -1.8742,4.0195 -5.7183,4.0703 l -0.0503,-5.6975 z m 0.0423,8.408 c 4.9547,0.0877 10.0806,-1.0389 8.8523,-6.9252 -1.0416,-4.9889 -6.6899,-4.6007 -11.9917,-4.2211 l 0.1144,16.9117 2.972,0.1027 0.053,-5.8681 z" />
      <path
         id="path70"
         style="fill:#145532;fill-rule:evenodd"
         d="m 377.861,576.866 c -3.3565,0.0476 -2.3004,-0.5294 -4.0741,1.224 -0.7764,0.7673 -1.4795,1.271 -3.3211,1.1502 -8.307,-0.5449 -3.4811,-18.9137 4.0537,-9.6144 l 2.9822,-0.0101 c 0.3839,-6.1862 -14.2638,-8.5535 -14.5793,3.3864 -0.2968,11.2436 13.5558,11.7869 14.9386,3.8639 z" />
      <path
         id="path72"
         style="fill:#f9f6ef;fill-rule:evenodd"
         d="m 317.8426,567.3399 c -5.4906,1.6352 -4.4591,13.544 2.2003,11.8029 5.3077,-1.3881 4.1516,-13.6942 -2.2003,-11.8029 z" />
      <path
         id="path74"
         style="fill:#f9f6ef;fill-rule:evenodd"
         d="m 214.9896,574.7512 c 1.1239,7.493 10.2126,5.4611 8.778,-3.1287 -1.2384,-7.4172 -10.0266,-5.1927 -8.778,3.1287 z" />
      <path
         id="path76"
         style="fill:#145532;fill-rule:evenodd"
         d="m 195.7326,581.9079 0.0604,-14.2418 5.2269,-0.1963 -0.0353,-2.6404 -13.5071,-0.0658 -0.0749,2.895 5.2494,-0.0321 0.1048,14.1413 2.9758,0.1401 z" />
      <path
         id="path78"
         style="fill:#145532;fill-rule:evenodd"
         d="m 204.4614,581.8229 2.9613,0.008 0.008,-17.0192 -3.1345,0 0.1652,17.0112 z" />
      <path
         id="path80"
         style="fill:#f9f6ef;fill-rule:evenodd"
         d="m 334.7377,573.3106 c 3.8441,-0.0508 5.8258,0.5374 5.7183,-4.0703 -2.1966,-1.8491 -2.3613,-1.5935 -5.7686,-1.6272 l 0.0503,5.6975 z" />
      <path
         id="path82"
         style="fill:#f9f6ef;fill-rule:evenodd"
         d="m 297.7952,572.777 c 2.7004,0.1636 6.0531,0.5144 6.029,-2.5496 -0.023,-2.995 -3.3607,-2.7496 -6.0568,-2.5052 l 0.0278,5.0548 z" />
      <path
         id="path84"
         style="fill:#f9f6ef;fill-rule:evenodd"
         d="m 420.9175,572.7342 c 2.7008,0.2545 5.9782,0.5614 5.9878,-2.5031 0.008,-2.919 -3.2955,-2.8591 -5.9525,-2.4629 l -0.0353,4.966 z" />
      <path
         id="path86"
         style="fill:#145532;fill-rule:evenodd"
         d="m 434.7494,581.7993 2.9613,0.008 0.008,-17.0192 -3.1345,0 0.1652,17.0111 z" />
      <path
         id="path88"
         style="fill:#ffffff;fill-rule:evenodd;stroke:#ffffff;stroke-width:0.56690001;stroke-linecap:butt;stroke-linejoin:miter;stroke-dasharray:none"
         d="m 403.7159,574.3208 2.5155,-5.6007 2.5157,5.6007 -5.0312,0 z" />
      <path
         id="path90"
         style="fill:#ffffff;fill-rule:evenodd;stroke:#ffffff;stroke-width:0.56690001;stroke-linecap:butt;stroke-linejoin:miter;stroke-dasharray:none"
         d="m 262.819,574.2065 2.5155,-5.6007 2.5157,5.6007 -5.0312,0 z" />
      <path
         id="path92"
         style="fill:#ffffff;fill-rule:evenodd;stroke:#ffffff;stroke-width:0.56690001;stroke-linecap:butt;stroke-linejoin:miter;stroke-dasharray:none"
         d="m 447.1767,574.1498 2.5155,-5.6007 2.5157,5.6007 -5.0312,0 z" />
    </g>
  </g>
</svg>
